<?xml version="1.0" encoding="utf-8"?>
<!-- Generator: Adobe Illustrator 23.0.1, SVG Export Plug-In . SVG Version: 6.00 Build 0)  -->
<svg version="1.1" id="Слой_1" xmlns="http://www.w3.org/2000/svg" xmlns:xlink="http://www.w3.org/1999/xlink" x="0px" y="0px" width="117" height="104"
	 viewBox="0 0 117 104" style="enable-background:new 0 0 117 104;" xml:space="preserve">
<style type="text/css">
	.st0{fill:#F4F4F4;}
	.st1{fill:#B7BBBD;}
	.st2{fill:#F5F5F5;}
	.st3{fill:#434343;}
	.st4{fill:#8CBB9B;}
	.st5{fill:#FA7676;}
</style>
<path class="st0" d="M53.83,101.51c-0.25,0-0.48-0.05-0.68,0.01c-0.5,0.14-1.01,0.06-1.51,0.08c-0.52,0.01-1.03,0-1.55,0
	c-0.31,0-0.6-0.13-0.91-0.09c-0.31,0.03-0.64,0.06-0.94-0.01c-0.38-0.09-0.76-0.02-1.13-0.09c-0.29-0.06-0.59-0.03-0.87-0.09
	c-0.25-0.05-0.5-0.05-0.74-0.08c-0.23-0.04-0.47-0.04-0.69-0.1c-0.21-0.05-0.43-0.01-0.61-0.08c-0.21-0.09-0.42-0.03-0.61-0.08
	c-0.45-0.12-0.91-0.14-1.36-0.24c-0.35-0.08-0.72-0.16-1.08-0.2c-0.4-0.05-0.8-0.15-1.18-0.27c-0.38-0.12-0.77-0.21-1.16-0.32
	c-0.42-0.12-0.85-0.24-1.27-0.36c-0.31-0.09-0.63-0.14-0.92-0.27c-0.29-0.13-0.6-0.23-0.9-0.33c-0.65-0.21-1.28-0.45-1.92-0.66
	c-0.53-0.18-1.04-0.4-1.56-0.62c-0.51-0.22-1.02-0.46-1.53-0.68c-1.08-0.48-2.13-1.04-3.18-1.6c-0.74-0.4-1.47-0.84-2.18-1.31
	c-0.82-0.55-1.66-1.07-2.47-1.63c-0.38-0.27-0.75-0.55-1.13-0.83c-0.3-0.22-0.6-0.44-0.89-0.66c-0.19-0.14-0.37-0.3-0.55-0.45
	c-0.37-0.32-0.73-0.65-1.12-0.96c-0.49-0.39-0.93-0.83-1.39-1.23c-1.04-0.91-1.95-1.95-2.93-2.92c-0.34-0.34-0.67-0.7-0.97-1.08
	c-0.3-0.38-0.61-0.73-0.91-1.1c-0.29-0.35-0.53-0.75-0.83-1.09c-0.36-0.41-0.65-0.87-0.99-1.29c-0.23-0.29-0.43-0.6-0.64-0.91
	c-0.24-0.35-0.47-0.7-0.7-1.06c-0.33-0.52-0.65-1.04-0.97-1.56c-0.16-0.25-0.32-0.5-0.47-0.76c-0.16-0.28-0.3-0.58-0.48-0.85
	c-0.49-0.78-0.84-1.63-1.27-2.44c-0.17-0.32-0.31-0.66-0.46-0.99c-0.15-0.33-0.31-0.66-0.45-0.99c-0.14-0.34-0.33-0.65-0.4-1.01
	c-0.43-0.73-0.61-1.55-0.9-2.33c-0.33-0.87-0.61-1.76-0.87-2.65c-0.23-0.79-0.48-1.59-0.64-2.4C2.83,62.5,2.73,62.1,2.6,61.72
	c-0.06-0.18-0.07-0.38-0.11-0.57c-0.04-0.2,0-0.45-0.1-0.61c-0.12-0.2-0.04-0.4-0.14-0.6c-0.11-0.22-0.06-0.52-0.11-0.79
	c-0.06-0.31-0.03-0.64-0.16-0.94c-0.02-0.04-0.01-0.08-0.01-0.13c-0.03-0.34-0.02-0.69-0.1-1.01c-0.07-0.28-0.01-0.58-0.09-0.84
	c-0.09-0.27-0.01-0.55-0.08-0.8c-0.1-0.37-0.02-0.75-0.09-1.1c-0.12-0.62,0-1.24-0.09-1.85c-0.14-0.95-0.03-1.9-0.08-2.86
	c-0.02-0.34,0.13-0.67,0.09-1.02c-0.03-0.33-0.07-0.69,0.01-1c0.09-0.36,0.06-0.71,0.07-1.06c0.01-0.2,0.12-0.37,0.1-0.58
	c-0.02-0.19-0.08-0.4,0.07-0.58c0.01-0.02,0-0.06,0-0.09c0.03-0.38,0.05-0.76,0.09-1.15c0.01-0.15,0.06-0.3,0.08-0.45
	C2,43.58,2,43.45,2.04,43.31c0.06-0.2,0.09-0.44,0.09-0.66c-0.01-0.35,0.06-0.68,0.12-1.01c0.06-0.34,0.16-0.7,0.21-1.04
	c0.06-0.35,0.17-0.7,0.21-1.06c0.04-0.39,0.16-0.77,0.27-1.15c0.11-0.41,0.24-0.81,0.32-1.22c0.03-0.16,0.13-0.3,0.16-0.45
	c0.24-1.05,0.61-2.05,0.96-3.06c0.28-0.8,0.52-1.62,0.88-2.39c0.26-0.56,0.48-1.14,0.74-1.7c0.48-1.04,0.95-2.08,1.5-3.09
	c0.45-0.84,0.92-1.66,1.44-2.46c0.51-0.79,1.02-1.58,1.54-2.37c0.24-0.37,0.51-0.72,0.75-1.09c0.3-0.46,0.69-0.86,0.98-1.34
	c0.11-0.19,0.28-0.35,0.43-0.52c0.39-0.47,0.76-0.95,1.17-1.4c0.25-0.29,0.53-0.56,0.77-0.85c0.85-1.04,1.86-1.92,2.77-2.9
	c0.44-0.26,0.71-0.71,1.14-1c0.26-0.18,0.47-0.44,0.72-0.65c0.54-0.45,1.08-0.91,1.65-1.33c0.28-0.21,0.53-0.44,0.82-0.64
	c0.53-0.38,1.06-0.78,1.59-1.16c0.47-0.33,0.95-0.63,1.42-0.94c0.46-0.3,0.93-0.61,1.4-0.9c0.41-0.25,0.84-0.48,1.24-0.75
	c0.06-0.04,0.12-0.07,0.18-0.09c0.46-0.17,0.87-0.46,1.32-0.66c0.45-0.2,0.86-0.49,1.31-0.68c0.63-0.26,1.22-0.6,1.85-0.85
	c0.42-0.16,0.82-0.38,1.26-0.51c0.65-0.18,1.27-0.47,1.92-0.68c0.63-0.2,1.25-0.46,1.89-0.65c0.47-0.14,0.94-0.32,1.43-0.41
	c0.37-0.07,0.71-0.23,1.08-0.3c0.32-0.06,0.62-0.19,0.95-0.22c0.32-0.03,0.63-0.14,0.94-0.22c0.21-0.05,0.42-0.1,0.64-0.12
	c0.18-0.01,0.35-0.03,0.52-0.09c0.17-0.05,0.34,0,0.53-0.08c0.23-0.1,0.52-0.05,0.77-0.11c0.31-0.06,0.63-0.03,0.92-0.17
	c0.01-0.01,0.03,0,0.04,0c0.32-0.03,0.64-0.06,0.95-0.09c0.22-0.02,0.44-0.05,0.65-0.09c0.2-0.03,0.42,0.08,0.61-0.08
	c0.02-0.01,0.06,0,0.08,0c0.6-0.03,1.21-0.08,1.81-0.08c1.76-0.01,3.53-0.01,5.29,0c0.45,0,0.89,0.12,1.34,0.08
	c0.22,0.14,0.46,0.07,0.7,0.09c0.19,0.02,0.38,0.05,0.57,0.09c0.17,0.03,0.37-0.08,0.53,0.09c0.01,0.01,0.06,0,0.08,0
	c0.22,0.01,0.43-0.01,0.66,0.07c0.18,0.07,0.4,0.03,0.61,0.09c0.28,0.08,0.58,0.05,0.86,0.11c0.17,0.03,0.34,0.1,0.52,0.08
	c0.19-0.02,0.36,0.13,0.57,0.09c0.17-0.03,0.35,0.07,0.52,0.1c0.25,0.04,0.51,0.07,0.75,0.16c0.25,0.09,0.5,0.1,0.75,0.16
	c0.25,0.07,0.5,0.12,0.74,0.19c0.63,0.21,1.28,0.38,1.92,0.56c0.95,0.28,1.88,0.61,2.81,0.93c0.65,0.22,1.32,0.41,1.94,0.71
	c0.6,0.29,1.21,0.56,1.81,0.83c1.08,0.49,2.12,1.06,3.18,1.59c0.34,0.17,0.66,0.36,0.97,0.57c0.2,0.13,0.42,0.24,0.63,0.36
	c0.68,0.39,1.32,0.84,1.98,1.27c0.62,0.4,1.21,0.84,1.81,1.27c0.57,0.41,1.12,0.84,1.67,1.28c0.47,0.37,0.94,0.74,1.39,1.14
	c0.49,0.43,0.96,0.87,1.45,1.3c1.02,0.89,1.91,1.91,2.87,2.86c0.18,0.18,0.33,0.39,0.49,0.58c0.16,0.19,0.38,0.34,0.49,0.58
	c0.06,0.12,0.2,0.21,0.3,0.31c0.19,0.21,0.39,0.41,0.54,0.65c0.15,0.23,0.34,0.44,0.51,0.66c0.23,0.3,0.45,0.6,0.69,0.89
	c0.29,0.35,0.56,0.73,0.82,1.1c0.29,0.42,0.6,0.82,0.88,1.25c0.44,0.69,0.89,1.37,1.3,2.08c0.14,0.25,0.3,0.49,0.45,0.73
	c0.23,0.37,0.45,0.75,0.65,1.13c0.56,1.07,1.14,2.14,1.63,3.25c0.28,0.64,0.55,1.29,0.83,1.93c0.29,0.67,0.51,1.36,0.76,2.04
	c0.25,0.67,0.44,1.36,0.66,2.04c0.19,0.59,0.44,1.17,0.57,1.77c0.11,0.51,0.29,0.99,0.38,1.51c0.07,0.4,0.19,0.79,0.31,1.18
	c0.05,0.17,0.01,0.35,0.1,0.53c0.09,0.19,0.02,0.46,0.11,0.65c0.1,0.21,0.05,0.43,0.14,0.64c0.1,0.25,0.07,0.55,0.1,0.83
	c0.02,0.15,0.06,0.3,0.08,0.45c0.03,0.15-0.06,0.32,0.08,0.45c0.02,0.02,0,0.08,0,0.13c0.03,0.34,0.01,0.69,0.1,1.01
	c0.07,0.26,0.02,0.51,0.08,0.75c0.08,0.3,0.02,0.6,0.09,0.88c0.09,0.37,0.01,0.75,0.08,1.1c0.13,0.6,0,1.21,0.09,1.8
	c0.14,0.95,0.03,1.9,0.08,2.86c0.02,0.36-0.13,0.7-0.09,1.06c0.03,0.35,0.06,0.71-0.01,1.05c-0.08,0.37-0.05,0.74-0.07,1.11
	c-0.01,0.19-0.11,0.37-0.09,0.58c0.02,0.19,0.06,0.4-0.08,0.58c-0.01,0.02-0.01,0.06,0,0.09c0.06,0.37-0.11,0.73-0.09,1.1
	c0.01,0.14-0.09,0.28-0.09,0.45c0.01,0.13,0.04,0.27-0.05,0.42c-0.07,0.12,0,0.31-0.04,0.46c-0.1,0.38-0.08,0.78-0.18,1.15
	c-0.13,0.49-0.22,0.99-0.31,1.48c-0.12,0.69-0.33,1.36-0.46,2.05c-0.1,0.52-0.26,1.02-0.43,1.52c-0.11,0.32-0.17,0.65-0.31,0.96
	c-0.15,0.31-0.21,0.67-0.31,1.01c-0.1,0.32-0.18,0.66-0.31,0.96c-0.25,0.58-0.41,1.2-0.65,1.78c-0.29,0.69-0.59,1.39-0.88,2.08
	c-0.47,1.12-1.06,2.18-1.57,3.28c-0.25,0.54-0.62,1.02-0.9,1.55c-0.4,0.78-0.92,1.47-1.35,2.23c-0.32,0.56-0.76,1.05-1.11,1.59
	c-0.32,0.5-0.71,0.94-1.02,1.45c-0.12,0.2-0.3,0.37-0.45,0.56c-0.31,0.38-0.64,0.75-0.94,1.14c-0.38,0.5-0.81,0.94-1.21,1.42
	c-0.85,1.02-1.84,1.91-2.75,2.86c-0.36,0.38-0.75,0.74-1.15,1.08c-0.37,0.32-0.74,0.65-1.12,0.95c-0.72,0.57-1.43,1.18-2.17,1.72
	c-0.72,0.52-1.41,1.09-2.16,1.56c-0.73,0.45-1.44,0.95-2.18,1.39c-0.64,0.37-1.27,0.76-1.91,1.12c-0.63,0.35-1.28,0.65-1.93,0.97
	c-0.48,0.24-0.95,0.48-1.44,0.7c-0.73,0.32-1.47,0.62-2.19,0.95c-0.49,0.04-0.9,0.32-1.36,0.46c-0.74,0.23-1.46,0.49-2.2,0.72
	c-0.57,0.18-1.15,0.36-1.73,0.52c-0.62,0.17-1.25,0.28-1.86,0.5c-0.16,0.06-0.35,0.05-0.52,0.09c-0.4,0.1-0.82,0.15-1.23,0.27
	c-0.26,0.07-0.55,0.06-0.82,0.1c-0.16,0.02-0.32,0.06-0.48,0.09c-0.16,0.03-0.34-0.08-0.48,0.08c-0.01,0.01-0.05,0-0.08,0
	c-0.21,0-0.41,0.01-0.61,0.08c-0.18,0.06-0.39-0.02-0.56,0.1c-0.01,0.01-0.03,0-0.04,0c-0.43,0.03-0.87,0.02-1.29,0.1
	c-0.39,0.07-0.79,0.01-1.17,0.09C54.49,101.51,54.14,101.49,53.83,101.51z M38.4,38.98c0.01,0,0.03,0,0.04,0
	c-0.01-0.02-0.01-0.05-0.03-0.07c0-0.01-0.03,0.01-0.05,0.01c0.01,0.02,0.03,0.03-0.01-0.01c0.1,0.14,0.12,0.21,0.17,0.24
	c0.13,0.07,0.27,0.11,0.4,0.18c0.14,0.08,0.28,0.17,0.41,0.26c0.17,0.12,0.19,0.31,0.06,0.47c-0.07,0.09-0.14,0.18-0.18,0.24
	c-0.47-0.03-0.88,0.07-1.25-0.18c-0.07-0.05-0.2-0.02-0.26,0.09c-0.05,0.08-0.12,0.17-0.12,0.25c-0.01,0.42-0.01,0.85-0.01,1.27
	c0.13,0.09,0.06,0.17,0.01,0.28c-0.08,0.17,0,0.27,0.23,0.39c0.03-0.31,0.16-0.61,0.1-0.92c-0.05-0.25,0.08-0.43,0.18-0.63
	c0.06-0.11,0.16-0.16,0.29-0.13c0.23,0.06,0.48,0.09,0.7,0.18c0.32,0.13,0.6,0.09,0.89-0.09c0.18-0.12,0.31-0.27,0.41-0.45
	c0.08-0.14-0.03-0.23-0.05-0.35c-0.02-0.08,0-0.16,0-0.21c0.24-0.11,0.44-0.18,0.62-0.29c0.2-0.12,0.21-0.38,0.33-0.54
	c-0.15-0.31-0.3-0.6-0.45-0.92c0.09-0.07,0.18-0.19,0.28-0.22c0.41-0.1,0.8-0.28,1.22-0.27c0.24,0,0.45-0.1,0.64-0.21
	c0.33-0.2,0.34-0.28,0.37-0.67c0.03-0.39-0.1-0.74-0.2-1.1c-0.07-0.25-0.16-0.5-0.15-0.77c0-0.07,0.01-0.16-0.03-0.2
	c-0.11-0.12-0.01-0.26-0.06-0.37c-0.07-0.13-0.08-0.26-0.08-0.4c0-0.35-0.01-0.7,0.01-1.05c0.01-0.21,0.03-0.42,0.1-0.61
	c0.04-0.11,0.08-0.26,0.24-0.31c0.1-0.03,0.17-0.17,0.25-0.26c0.11-0.11,0.13-0.29,0.32-0.37c0.04,0.24,0.01,0.51,0.13,0.66
	c0.14,0.18,0.16,0.35,0.16,0.55c0,0.04,0.02,0.08,0.03,0.12c0.18,0.42,0.34,0.85,0.5,1.28c0.08,0.22,0.17,0.46,0.3,0.66
	c0.1,0.15,0.12,0.27,0.09,0.4c-0.3,0.18-0.53,0.38-0.49,0.74c0.04,0.4,0.19,0.76,0.42,1.09c0.17,0.25,0.4,0.47,0.54,0.74
	c0.14,0.27,0.41,0.38,0.56,0.62c0.01,0.01,0.07-0.01,0.12-0.03c-0.14-0.32-0.22-0.67-0.41-0.93c-0.3-0.41-0.3-0.85-0.28-1.3
	c0.21-0.14,0.36-0.26,0.61-0.12c0.13,0.07,0.31,0.22,0.51,0.04c-0.09-0.13-0.19-0.26-0.26-0.41c-0.08-0.17-0.09-0.38-0.2-0.53
	c-0.25-0.36-0.22-0.81-0.42-1.18c-0.04-0.08,0.01-0.2-0.01-0.3c-0.02-0.11-0.04-0.21-0.08-0.31c-0.11-0.29-0.16-0.6-0.16-0.89
	c0-0.6-0.04-1.2,0.06-1.81c0.08-0.51,0.24-0.98,0.44-1.44c0.19-0.43,0.41-0.85,0.78-1.16c0.21-0.18,0.38-0.39,0.58-0.58
	c0.2-0.19,0.42-0.35,0.69-0.43c0.05-0.01,0.1-0.04,0.14-0.07c0.47-0.35,1.03-0.5,1.59-0.52c0.73-0.03,1.47-0.1,2.2,0.06
	c0.25,0.05,0.49,0.11,0.73,0.21c0.22,0.09,0.44,0.18,0.65,0.3c0.13,0.08,0.33,0.05,0.46,0.14c0.49,0.35,1.01,0.67,1.44,1.11
	c0.48,0.48,0.81,1.09,1.24,1.62c0.03,0.04,0.05,0.1,0.06,0.15c0.07,0.21,0.09,0.44,0.21,0.61c0.12,0.19,0.16,0.41,0.22,0.61
	c0.08,0.28,0.05,0.54-0.12,0.8c-0.29,0.44-0.55,0.91-0.37,1.48c0,0.02-0.03,0.04-0.05,0.07c-0.38-0.19-0.74-0.08-1.1,0.07
	c-0.39,0.17-0.38,0.18-0.75,0.58c-0.09,0.1-0.12,0.19-0.05,0.3c0.12-0.01,0.24,0.03,0.36-0.07c0.12-0.1,0.29-0.14,0.43-0.19
	c0.16-0.06,0.33-0.15,0.49-0.16c0.15-0.01,0.32,0.05,0.47,0.11c0.42,0.15,0.55,0.17,0.94,0.15c0.16-0.01,0.33-0.02,0.48,0.08
	c0.09,0.06,0.19,0.08,0.3,0.13c0,0.05,0,0.12,0,0.19c-0.3,0.06-0.55,0.23-0.7,0.47c-0.1,0.16-0.21,0.36-0.11,0.62
	c0.1,0.27,0.27,0.44,0.48,0.6c0.18,0.15,0.42,0.18,0.63,0.32c-0.09,0.13-0.18,0.25-0.25,0.38c-0.11,0.2-0.31,0.38-0.18,0.7
	c0.1,0.08,0.23,0.2,0.4,0.34c0,0.03,0.01,0.1,0,0.17c-0.01,0.05-0.05,0.09-0.08,0.14c-0.12,0.24-0.22,0.5-0.37,0.72
	c-0.41,0.57-0.88,1.09-1.53,1.39c-0.15,0.07-0.26,0.16-0.35,0.33c-0.19,0.36-0.6,0.46-0.92,0.67c-0.04,0.03-0.11,0-0.17,0
	c-0.07,0-0.17-0.03-0.21,0.01c-0.25,0.19-0.4,0-0.57-0.12c-0.26-0.18-0.51-0.37-0.78-0.52c-0.26-0.15-0.54-0.31-0.83-0.39
	c-0.18-0.05-0.37-0.06-0.56-0.11c-0.09-0.02-0.18-0.07-0.27-0.08c-0.11-0.01-0.23-0.01-0.34,0c-0.18,0.02-0.34,0.13-0.52,0.09
	c-0.35,0.23-0.68,0.06-0.96-0.1c-0.51-0.29-1.03-0.6-1.42-1.07c-0.15-0.18-0.3-0.37-0.46-0.55c-0.02-0.02-0.06-0.04-0.06-0.06
	c0.02-0.2-0.17-0.28-0.24-0.43c-0.08-0.15-0.15-0.32-0.2-0.48c-0.12-0.36-0.31-0.69-0.36-1.08c-0.02-0.11-0.09-0.21-0.25-0.15
	c0,0.49,0,0.99,0,1.48c0,0.28-0.06,0.57,0.16,0.81c0.01,0.02,0.01,0.06,0.01,0.08c-0.06,0.24,0.24,0.34,0.21,0.57
	c0.23,0.27,0.46,0.54,0.7,0.8c0.1,0.11,0.24,0.18,0.35,0.28c0.13,0.13,0.29,0.19,0.46,0.26c0.2,0.09,0.46,0.03,0.64,0.27
	c-0.15,0.11-0.34,0.19-0.41,0.33c-0.08,0.17-0.33,0.16-0.31,0.38c-0.2,0.04-0.26,0.2-0.34,0.4c0.1-0.02,0.19-0.01,0.24-0.05
	c0.23-0.17,0.55-0.16,0.74-0.4c0.18,0.02,0.3-0.12,0.45-0.17c0.28-0.08,0.59-0.06,0.87-0.18c0.05-0.02,0.11-0.01,0.17,0
	c0.28,0.01,0.55,0.01,0.83,0.07c0.47,0.12,0.92,0.28,1.33,0.54c0.12,0.07,0.21,0.19,0.33,0.26c0.23,0.14,0.4,0.33,0.55,0.56
	c0.16,0.24,0.33,0.47,0.45,0.73c0.12,0.26,0.32,0.46,0.42,0.74c0.05,0.14,0.2,0.28,0.2,0.43c0.01,0.2,0.19,0.3,0.22,0.48
	c0.02,0.16,0.12,0.3,0.16,0.45c0.05,0.16-0.03,0.32,0.07,0.5c0.08,0.13,0.01,0.34,0.01,0.49c-0.14,0.15-0.24,0.34-0.4,0.41
	c-0.19,0.07-0.09,0.16-0.11,0.29c0.1-0.02,0.17-0.03,0.25-0.05c0.27-0.06,0.55-0.23,0.8-0.11c0.2,0.09,0.42-0.02,0.58,0.16
	c0.42-0.01,0.79,0.17,1.19,0.25c0.34,0.07,0.67,0.22,1.01,0.27c0.35,0.05,0.66,0.22,0.99,0.31c0.25,0.07,0.48,0.16,0.71,0.28
	c0.14,0.08,0.32,0.07,0.54,0.11c-0.11-0.18-0.18-0.29-0.34-0.36c-0.18-0.07-0.35-0.21-0.51-0.33c-0.11-0.09-0.19-0.17-0.11-0.36
	c0.09-0.21,0.17-0.44,0.14-0.68C60,46.5,59.93,46.4,59.94,46.3c0.01-0.16-0.1-0.31-0.08-0.44c0.03-0.21-0.14-0.3-0.21-0.44
	c-0.14-0.28-0.27-0.57-0.45-0.81c-0.23-0.29-0.33-0.62-0.41-0.97c-0.07,0-0.14,0-0.23,0c0.05,0.22-0.04,0.42,0.07,0.63
	c0.13,0.26,0.19,0.56,0.28,0.84c0.1,0.3,0.16,0.59,0.33,0.87c0.1,0.17,0.09,0.43,0.1,0.66c0.01,0.22,0.19,0.42,0.06,0.66
	c-0.12,0-0.23,0.01-0.35-0.06c-0.32-0.19-0.67-0.33-1-0.51c-0.13-0.07-0.24-0.17-0.32-0.22c-0.08-0.58,0.08-1.1-0.1-1.61
	c-0.02-0.06-0.03-0.16,0-0.21c0.13-0.2,0.07-0.41,0.08-0.62c0.01-0.4,0.24-0.78,0.58-0.96c0.07-0.04,0.13-0.08,0.2-0.12
	c-0.21-0.18-0.43-0.15-0.65-0.13c-0.1,0.01-0.24,0.05-0.29,0.12c-0.19,0.3-0.37,0.6-0.36,0.99c0.01,0.69,0,1.37,0,2.06
	c0,0.11-0.01,0.22-0.01,0.34c-0.33-0.04-0.63-0.09-0.93-0.13c0.02-0.39-0.15-0.76-0.09-1.15c0.01-0.04-0.01-0.09-0.03-0.12
	c-0.16-0.2-0.17-0.46-0.22-0.69c-0.09-0.37-0.25-0.72-0.4-1.06c-0.14-0.32-0.36-0.61-0.56-0.9c-0.06-0.09-0.14-0.22-0.23-0.24
	c-0.21-0.05-0.09-0.16-0.1-0.25c0.21-0.02,0.41-0.02,0.59-0.08c0.53-0.16,0.69-0.37,0.95-0.75c0.04-0.06,0.11-0.12,0.17-0.16
	c0.1-0.07,0.21-0.12,0.31-0.19c0.11-0.08,0.23-0.16,0.33-0.25c0.08-0.08,0.15-0.18,0.25-0.32c0.05,0.22,0.13,0.38,0.15,0.58
	c0.03,0.49,0.22,0.89,0.66,1.14c0.05,0.03,0.1,0.05,0.14,0.08c0.32,0.23,0.67,0.34,1.06,0.36c0.08,0,0.17-0.01,0.25,0.02
	c0.29,0.09,0.58,0.16,0.88,0.15c0.6-0.02,1.21,0.05,1.82-0.07c0.43-0.08,0.9,0.03,1.34-0.1c0.18-0.05,0.37-0.07,0.55-0.13
	c0.29-0.1,0.58-0.19,0.85-0.33c0.14-0.07,0.3-0.14,0.45-0.14c0.19,0,0.11,0.24,0.19,0.33c0.19,0.2,0.2,0.46,0.21,0.7
	c0.02,0.35,0.07,0.7-0.08,1.05c0.17,0.04,0.2-0.06,0.27-0.16c0.31-0.49,0.38-1.07,0.57-1.6c0.06-0.18,0.03-0.4,0.03-0.6
	c0.01-0.27,0.11-0.48,0.36-0.6c0.12-0.06,0.23-0.15,0.34-0.23c0.37-0.25,0.74-0.52,1.1-0.78c0.21-0.15,0.42-0.34,0.55-0.61
	c-0.06-0.02-0.12-0.05-0.13-0.04c-0.16,0.19-0.4,0.21-0.61,0.32c-0.47,0.25-0.96,0.46-1.44,0.69c-0.04,0.02-0.08,0.05-0.11,0.04
	c-0.14-0.02-0.23,0.05-0.34,0.14c-0.09,0.07-0.23,0.07-0.34,0.1c-0.18,0.05-0.31,0.2-0.52,0.21c-0.2,0-0.33,0.22-0.57,0.2
	c-0.12-0.01-0.26,0.06-0.38,0.12c-0.25,0.13-0.49,0.24-0.78,0.2c-0.06-0.01-0.12,0.05-0.18,0.07c-0.52,0.12-1.02,0.3-1.56,0.28
	c-0.16-0.01-0.32-0.01-0.49,0.05c-0.19,0.07-0.43,0.07-0.62,0.01c-0.12-0.04-0.24-0.04-0.36-0.06c-0.25-0.03-0.53,0.01-0.73-0.1
	c-0.41-0.22-0.91-0.31-1.18-0.76c0-0.22,0.01-0.44,0-0.66c-0.01-0.18,0.04-0.33,0.11-0.48c0.11-0.2,0.22-0.4,0.33-0.6
	c0.05-0.09,0.07-0.21,0.13-0.3c0.07-0.11,0.17-0.19,0.27-0.28c0.09-0.08,0.14-0.18,0.11-0.25c-0.19-0.14-0.34-0.24-0.49-0.36
	c-0.15-0.11-0.15-0.26-0.07-0.41c0.07-0.12,0.14-0.27,0.25-0.32c0.14-0.06,0.22-0.17,0.32-0.26c0.21-0.17,0.22-0.27,0.02-0.38
	c-0.22-0.12-0.45-0.23-0.67-0.35c-0.34-0.19-0.58-0.48-0.78-0.8c-0.07-0.1-0.07-0.23,0.02-0.35c0.1-0.13,0.17-0.27,0.26-0.42
	c0.34,0,0.7-0.01,1.06,0c0.24,0.01,0.45-0.1,0.59-0.24c0.15-0.15,0.39-0.34,0.23-0.65c-0.06,0.24-0.24,0.35-0.45,0.35
	c-0.36,0-0.72-0.05-1.08-0.08c-0.03,0-0.06-0.07-0.1-0.08c-0.21-0.04-0.39-0.16-0.61-0.19c-0.21-0.03-0.43-0.1-0.56-0.31
	c-0.12-0.19-0.19-0.38-0.07-0.59c0.09-0.17,0.21-0.32,0.29-0.49c0.09-0.18,0.13-0.38,0.27-0.55c0.13-0.16,0.18-0.39,0.28-0.58
	c0.26-0.5,0.61-0.92,0.95-1.35c0.18-0.22,0.27-0.45,0.26-0.72c-0.01-0.13-0.09-0.27-0.07-0.4c0.05-0.4-0.1-0.74-0.26-1.07
	c-0.08-0.17-0.17-0.34-0.23-0.52c-0.05-0.15-0.1-0.32-0.11-0.48c-0.01-0.12,0.08-0.24,0.07-0.36c-0.03-0.23,0-0.49,0.11-0.65
	c0.13-0.21,0.12-0.44,0.23-0.65c0.16-0.29,0.29-0.61,0.4-0.92c0.06-0.16,0.15-0.32,0.19-0.49c0.09-0.33,0.07-0.68,0.27-0.98
	c0.02-0.03,0.01-0.09,0-0.13c0-0.02-0.04-0.04-0.06-0.05c-0.02-0.01-0.07,0-0.08,0.01c-0.15,0.27-0.37,0.48-0.54,0.74
	c-0.36,0.55-0.68,1.12-1.03,1.67c-0.11,0.16-0.12,0.39-0.27,0.54c0.04,0.3-0.15,0.55-0.19,0.84c-0.07,0.52-0.11,0.59,0.09,1.04
	c0.05,0.11,0.05,0.25,0.11,0.35c0.2,0.34,0.18,0.74,0.33,1.09c0.05,0.12,0.02,0.29-0.07,0.44c-0.2,0.34-0.3,0.72-0.52,1.05
	c-0.06,0.09-0.16,0.18-0.16,0.28c0,0.19-0.13,0.25-0.24,0.36c-0.14-0.23-0.22-0.43-0.2-0.66c0.03-0.29-0.03-0.57-0.13-0.82
	c-0.25-0.67-0.51-1.33-0.81-1.98c-0.08-0.17-0.23-0.31-0.25-0.46c-0.04-0.21-0.22-0.32-0.27-0.5c-0.05-0.23-0.26-0.33-0.4-0.49
	c-0.38-0.46-0.86-0.82-1.33-1.17c-0.24-0.18-0.51-0.33-0.82-0.42c-0.25-0.07-0.5-0.13-0.75-0.16c-0.1-0.01-0.21,0.02-0.29-0.02
	c-0.23-0.09-0.46-0.19-0.71-0.15c-0.26,0.04-0.49-0.11-0.74-0.1c-0.3,0.01-0.63-0.07-0.9,0.02c-0.3,0.11-0.62-0.04-0.88,0.15
	c-0.44,0.01-0.86,0.1-1.27,0.26c-0.18,0.08-0.39,0.13-0.54,0.25c-0.2,0.15-0.43,0.2-0.69,0.31c0.04-0.22,0.09-0.37,0.1-0.53
	c0.01-0.25,0-0.5,0.01-0.74c0-0.12-0.04-0.21-0.08-0.32c-0.15-0.38-0.42-0.69-0.52-1.09c-0.36-0.43-0.58-0.98-0.99-1.38
	c-0.19-0.19-0.35-0.4-0.52-0.61c-0.09-0.11-0.15-0.24-0.25-0.33c-0.11-0.1-0.14-0.25-0.29-0.32c-0.11-0.06-0.15-0.23-0.25-0.32
	c-0.36-0.34-0.69-0.72-1.08-1.04c-0.49-0.41-0.9-0.92-1.4-1.32c-0.37-0.3-0.72-0.62-1.09-0.92c-0.11-0.09-0.31-0.08-0.35-0.28
	c-0.13-0.01-0.23-0.05-0.33-0.15c-0.08-0.09-0.23-0.03-0.33-0.15c-0.06-0.08-0.21-0.1-0.32-0.15c-0.11-0.05-0.21-0.15-0.32-0.16
	c-0.2,0-0.34-0.22-0.52-0.19c-0.23,0.04-0.31-0.2-0.53-0.21c-0.17-0.01-0.37-0.07-0.54-0.15c-0.22-0.11-0.44-0.22-0.7-0.18
	c-0.03,0.01-0.07-0.05-0.1-0.06c-0.32-0.07-0.61-0.2-0.95-0.22c-0.23-0.01-0.47-0.02-0.69-0.08c-0.14-0.04-0.26-0.05-0.4-0.07
	c-0.15-0.02-0.29-0.08-0.44-0.08c-0.46-0.01-0.92,0.02-1.38-0.01c-0.45-0.03-0.89,0.12-1.34,0.09c-0.01,0-0.03,0-0.04,0
	c-0.42,0.14-0.86,0.19-1.3,0.18c-0.07,0-0.15-0.01-0.21,0.02c-0.29,0.12-0.61,0.09-0.89,0.24c-0.42-0.03-0.76,0.27-1.18,0.28
	c-0.42,0.26-0.91,0.38-1.35,0.6c-0.13,0.06-0.25,0.15-0.39,0.21c-0.15,0.06-0.3,0.11-0.42,0.23c-0.19-0.07-0.21,0.15-0.34,0.21
	c-0.41,0.19-0.76,0.48-1.11,0.76c-0.13,0.1-0.26,0.21-0.39,0.31c-0.13,0.1-0.2,0.28-0.39,0.31c-0.07,0.22-0.33,0.24-0.42,0.43
	c-0.2,0.42-0.66,0.61-0.85,1.04c-0.27,0.06-0.34,0.31-0.48,0.49c-0.14,0.19-0.28,0.38-0.39,0.58c-0.25,0.43-0.44,0.89-0.68,1.33
	c-0.23,0.42-0.3,0.92-0.47,1.38c-0.11,0.31-0.14,0.64-0.25,0.95c-0.07,0.18-0.12,0.37-0.09,0.58c0.01,0.06,0.03,0.14,0,0.17
	c-0.15,0.13-0.01,0.33-0.1,0.44c-0.11,0.15-0.05,0.3-0.07,0.45c-0.01,0.07-0.03,0.13-0.04,0.2c-0.03,0.28-0.16,0.54-0.13,0.82
	c0.01,0.08,0.08,0.15,0.08,0.23c0,0.08-0.07,0.15-0.08,0.23c-0.01,0.34-0.03,0.68-0.08,1.02c-0.08,0.62-0.02,1.26-0.08,1.89
	c-0.08,0.77-0.04,1.55-0.01,2.32c0.03,0.78-0.1,1.55-0.09,2.33c0,0.28,0,0.55,0,0.83c0,0.3-0.14,0.58-0.09,0.88
	c-0.12,0.11-0.07,0.26-0.09,0.4c-0.02,0.14-0.08,0.27-0.08,0.4c0.01,0.16-0.05,0.3-0.1,0.44c-0.02,0.06-0.06,0.12-0.08,0.19
	c-0.06,0.22-0.14,0.44-0.17,0.67c-0.02,0.14-0.18,0.19-0.17,0.28c0.02,0.3-0.16,0.52-0.24,0.78c-0.15,0.48-0.42,0.88-0.68,1.29
	c-0.2,0.32-0.43,0.61-0.62,0.92c-0.29,0.48-0.7,0.83-1.03,1.27c-0.2,0.27-0.46,0.5-0.66,0.78c-0.29,0.4-0.6,0.78-0.94,1.13
	c-0.21,0.22-0.43,0.45-0.6,0.71c-0.11,0.17-0.26,0.3-0.37,0.46c-0.26,0.36-0.56,0.69-0.79,1.07c-0.24,0.38-0.53,0.72-0.71,1.15
	c-0.11,0.26-0.31,0.48-0.33,0.78c-0.26,0.21-0.26,0.51-0.28,0.8c0,0.02-0.05,0.04-0.06,0.06c-0.06,0.22-0.11,0.43-0.1,0.66
	c0.01,0.6,0.01,1.2,0,1.8c0,0.24,0.08,0.46,0.15,0.68c0.07,0.23,0.13,0.47,0.2,0.7c0.08,0.24,0.18,0.48,0.27,0.72
	c0.12,0.34,0.22,0.7,0.41,1.01c0.09,0.14,0.19,0.27,0.25,0.42c0.09,0.2,0.18,0.41,0.34,0.54c0.18,0.16,0.2,0.41,0.4,0.55
	c0.07,0.05,0.17,0.14,0.2,0.21c0.09,0.19,0.32,0.22,0.39,0.44c0.05,0.15,0.21,0.27,0.35,0.37c0.44,0.32,0.86,0.67,1.25,1.03
	c0.34,0.32,0.67,0.67,0.94,1.05c0.18,0.25,0.41,0.47,0.55,0.77c0.15,0.33,0.37,0.63,0.51,0.97c0.06,0.16,0.2,0.28,0.26,0.46
	c0.06,0.18,0.16,0.33,0.2,0.53c0.04,0.22,0.1,0.45,0.22,0.65c0,0.72,0,1.43,0,2.15c0,0.01,0,0.03,0,0.04
	c-0.21,0.49-0.22,1.04-0.43,1.53c-0.16,0.38-0.28,0.79-0.44,1.17c-0.1,0.26-0.29,0.51-0.33,0.78c-0.05,0.31-0.19,0.57-0.28,0.85
	c-0.08,0.26-0.14,0.53-0.21,0.79c-0.03,0.13,0,0.26-0.05,0.37c-0.07,0.13-0.07,0.26-0.08,0.4c-0.04,0.57,0.09,1.11,0.27,1.64
	c0.21,0.62,0.52,1.18,0.99,1.64c0.27,0.27,0.54,0.54,0.84,0.79c0.38,0.31,0.8,0.56,1.23,0.79c0.71,0.38,1.41,0.76,2.11,1.16
	c0.13,0.08,0.32,0.22,0.51,0.11c-0.03-0.19-0.15-0.29-0.28-0.38c-0.33-0.23-0.67-0.46-0.93-0.77c-0.04-0.04-0.07-0.1-0.12-0.12
	c-0.2-0.07-0.32-0.24-0.47-0.36c-0.16-0.13-0.32-0.26-0.45-0.41c-0.2-0.23-0.39-0.47-0.58-0.71c-0.11-0.13-0.24-0.24-0.34-0.38
	c-0.31-0.43-0.53-0.91-0.75-1.39c-0.23-0.52-0.33-1.08-0.37-1.64c-0.02-0.33-0.05-0.68,0.07-1.02c0.08-0.25,0.07-0.53,0.1-0.79
	c0.01-0.05,0.03-0.1,0.06-0.15c0.18-0.32,0.16-0.72,0.37-1.03c-0.02-0.2,0.08-0.37,0.14-0.55c0.06-0.18,0.14-0.35,0.18-0.54
	c0.11-0.49,0.36-0.93,0.54-1.39c0.15-0.41,0.35-0.8,0.35-1.25c0.21-0.47,0.17-0.98,0.24-1.47c0.06-0.39,0.03-0.79,0.01-1.18
	c-0.02-0.3-0.06-0.6-0.19-0.88c-0.02-0.05-0.04-0.1-0.06-0.15c-0.09-0.36-0.14-0.73-0.4-1.02c-0.02-0.03-0.03-0.08-0.03-0.12
	c-0.03-0.17-0.13-0.3-0.24-0.42c-0.17-0.19-0.33-0.39-0.49-0.58c-0.1-0.13-0.19-0.28-0.31-0.39c-0.47-0.48-0.93-0.97-1.45-1.4
	c-0.15-0.12-0.22-0.35-0.38-0.44c-0.15-0.08-0.17-0.24-0.29-0.32c-0.13-0.09-0.23-0.22-0.34-0.34c-0.1-0.11-0.19-0.24-0.27-0.37
	c-0.13-0.19-0.25-0.39-0.37-0.59c-0.19-0.32-0.34-0.65-0.55-0.95c-0.17-0.22-0.17-0.53-0.39-0.71c-0.1-0.46-0.33-0.89-0.26-1.38
	c0.03-0.21,0-0.44,0.01-0.66c0-0.07-0.01-0.15,0.01-0.21c0.1-0.27,0.16-0.54,0.25-0.82c0.09-0.27,0.16-0.54,0.26-0.81
	c0.09-0.24,0.18-0.49,0.32-0.7c0.28-0.43,0.61-0.82,0.86-1.26c0.16-0.27,0.34-0.51,0.56-0.72c0.35-0.34,0.66-0.71,1.05-1
	c0.24-0.18,0.43-0.43,0.64-0.64c0.2-0.21,0.41-0.41,0.61-0.62c0.21-0.22,0.39-0.51,0.65-0.63c0.29-0.13,0.29-0.53,0.62-0.57
	c0.07-0.24,0.28-0.35,0.43-0.52c0.15-0.19,0.31-0.36,0.45-0.55c0.17-0.24,0.38-0.48,0.48-0.76c0.11-0.3,0.26-0.56,0.38-0.85
	c0.03-0.06,0.08-0.12,0.08-0.18c-0.01-0.3,0.26-0.53,0.19-0.84c0.14-0.23,0.09-0.52,0.22-0.74c0.15-0.25,0.11-0.52,0.12-0.78
	c0-0.04,0.05-0.07,0.06-0.11c0.07-0.37,0.16-0.73,0.19-1.1c0.06-0.77,0-1.55,0.07-2.33c0.1-1.18-0.04-2.37,0.1-3.55
	c0.04-0.37,0.03-0.76,0-1.14c-0.04-0.52,0.12-1.02,0.09-1.54c0-0.04,0.02-0.08,0.03-0.12c0.1-0.42,0.23-0.83,0.23-1.26
	c0-0.08,0.04-0.16,0.04-0.24c0.02-0.24,0.17-0.43,0.2-0.66c0.04-0.27,0.14-0.53,0.21-0.79c0.07-0.24,0.14-0.49,0.26-0.72
	c0.12-0.23,0.2-0.47,0.27-0.72c0.07-0.22,0.17-0.43,0.3-0.61c0.15-0.2,0.16-0.48,0.39-0.63c0.02-0.02,0.01-0.08,0.03-0.11
	c0.14-0.21,0.29-0.4,0.42-0.61c0.16-0.26,0.43-0.43,0.57-0.68c0.16-0.31,0.44-0.48,0.66-0.71c0.27-0.29,0.64-0.47,0.94-0.73
	c0.41-0.34,0.86-0.6,1.34-0.83c0.1-0.05,0.2-0.07,0.29-0.13c0.26-0.16,0.55-0.26,0.83-0.38c0.22-0.1,0.46-0.14,0.67-0.25
	c0.21-0.11,0.47-0.11,0.7-0.17c0.42-0.12,0.85-0.25,1.3-0.19c0.08,0.01,0.17-0.07,0.26-0.08c0.19-0.01,0.37,0.01,0.56-0.01
	c0.19-0.01,0.38-0.06,0.57-0.08c0.51-0.07,1,0.13,1.51,0.09c0.29,0.16,0.61,0.06,0.91,0.09c0.1,0.01,0.18,0.04,0.27,0.06
	c0.33,0.09,0.64,0.23,1,0.2c0.06-0.01,0.13,0.04,0.19,0.06c0.48,0.16,0.97,0.3,1.45,0.45c0.27,0.08,0.54,0.16,0.8,0.27
	c0.26,0.1,0.5,0.25,0.74,0.4c0.17,0.11,0.34,0.21,0.52,0.31c0.17,0.1,0.4,0.14,0.49,0.35c0.22-0.02,0.33,0.18,0.49,0.26
	c0.11,0.05,0.2,0.14,0.3,0.21c0.1,0.07,0.17,0.17,0.29,0.23c0.25,0.14,0.48,0.32,0.69,0.51c0.55,0.49,1.02,1.05,1.4,1.69
	c0.16,0.26,0.34,0.52,0.41,0.84c0.07,0.3,0.18,0.6,0.24,0.91c0.09,0.46,0.2,0.91,0.15,1.37c-0.03,0.28-0.1,0.56-0.07,0.85
	c-0.09,0.08-0.19,0.16-0.3,0.26c-0.05-0.07-0.11-0.11-0.12-0.16c-0.06-0.38-0.32-0.69-0.37-1.07c-0.21-0.22-0.16-0.5-0.17-0.76
	c-0.01-0.17,0.02-0.34-0.02-0.49c-0.23-0.06-0.35,0.09-0.4,0.22c-0.06,0.15-0.17,0.23-0.26,0.33c-0.12,0.12-0.26,0.21-0.39,0.31
	c-0.14,0.11-0.28,0.23-0.42,0.34c-0.35,0.28-0.72,0.52-1.12,0.72c-0.55,0.28-1.1,0.54-1.65,0.81c-0.57,0.29-1.22,0.4-1.76,0.76
	c-0.01,0.01-0.03,0-0.04,0c-0.58,0.19-1.14,0.44-1.7,0.68c-0.4,0.17-0.79,0.38-1.2,0.55c-0.4,0.17-0.79,0.38-1.2,0.53
	c-0.17,0.06-0.35,0.16-0.48,0.29c-0.15,0.15-0.35,0.26-0.52,0.3c-0.24,0.06-0.37,0.29-0.61,0.31c-0.3,0.36-0.8,0.45-1.08,0.84
	c-0.55,0.32-1,0.78-1.49,1.18c-0.42,0.35-0.76,0.8-1.06,1.25c-0.31,0.46-0.5,0.98-0.6,1.54c-0.06,0.32-0.16,0.64-0.21,0.96
	c-0.06,0.34-0.08,0.7,0.03,1.06c0.14,0.44,0.25,0.89,0.35,1.34c0.09,0.41,0.33,0.78,0.36,1.21c0,0.01,0.01,0.03,0.02,0.03
	c0.17,0.11,0.13,0.33,0.23,0.47c0.12,0.15,0.19,0.33,0.29,0.49c0.23,0.4,0.49,0.79,0.75,1.17c0.11,0.16,0.19,0.33,0.29,0.49
	c0.1,0.16,0.32,0.25,0.37,0.41c0.06,0.19,0.23,0.27,0.29,0.44c0.01,0.02,0.08,0.05,0.11,0.04c0.03-0.01,0.05-0.06,0.05-0.09
	c0-0.05-0.02-0.11-0.04-0.16c-0.1-0.24-0.21-0.47-0.3-0.7c-0.1-0.25-0.21-0.5-0.25-0.77c-0.04-0.26-0.26-0.47-0.19-0.76
	c0.01-0.06-0.07-0.14-0.11-0.21c-0.05-0.08-0.13-0.16-0.14-0.25c-0.07-0.5-0.12-1-0.18-1.5c-0.02-0.21,0.05-0.43-0.08-0.62
	c-0.03-0.05-0.04-0.17,0-0.21c0.14-0.14,0.07-0.3,0.08-0.45c0.03-0.37,0.06-0.73,0.09-1.1c0-0.01,0-0.03,0.01-0.04
	c0.21-0.45,0.3-0.96,0.6-1.37c0.23-0.32,0.39-0.7,0.68-0.98c0.36-0.35,0.68-0.73,1.08-1.03c0.52-0.38,1.05-0.73,1.6-1.03
	c0.51-0.28,1.05-0.52,1.57-0.79c0.36-0.18,0.76-0.25,1.09-0.49c0.02-0.02,0.05-0.03,0.07-0.04c0.3-0.08,0.56-0.24,0.85-0.34
	c0.29-0.1,0.58-0.18,0.84-0.36c0.06-0.04,0.15-0.06,0.22-0.09c0.45-0.19,0.92-0.36,1.36-0.57c0.56-0.28,1.11-0.6,1.66-0.89
	c0.22-0.12,0.47-0.2,0.67-0.35c0.3-0.23,0.58-0.5,0.85-0.77c0.45-0.45,0.77-0.99,0.91-1.63c0.2,0.13,0.21,0.13,0.21,0.27
	c0,0.25,0.14,0.49,0.09,0.75c0.17,0.24,0.04,0.5,0.08,0.75c0.04,0.27-0.07,0.52-0.13,0.78c-0.1,0.39-0.22,0.78-0.38,1.15
	c-0.07,0.17-0.11,0.39-0.24,0.51c-0.13,0.11-0.02,0.37-0.26,0.37c-0.07,0.15-0.12,0.3-0.2,0.44c-0.13,0.24-0.26,0.48-0.42,0.7
	c-0.11,0.15-0.19,0.3-0.28,0.45c-0.14,0.24-0.21,0.5-0.3,0.75c-0.12,0.32-0.12,0.65-0.19,0.97c-0.05,0.25-0.04,0.53,0,0.78
	c0.04,0.21,0.02,0.45,0.2,0.61c0.03,0.02,0.04,0.07,0.05,0.11c0.01,0.49,0.17,0.94,0.32,1.4c0.1,0.32-0.03,0.64-0.34,0.74
	c-0.18,0.06-0.35,0.15-0.56,0.12c-0.19-0.02-0.38,0.02-0.57,0.06c-0.19,0.04-0.36,0.11-0.38,0.26c-0.02,0.15-0.23,0.29-0.06,0.47
	c0.05,0.05,0.04,0.16,0.04,0.24c0,0.13,0.02,0.25,0.09,0.36c0.07,0.11,0.16,0.23,0.02,0.37c-0.09,0.1-0.15,0.26-0.25,0.31
	c-0.22,0.12-0.5,0.16-0.73,0.08C39.12,39.13,38.76,39.12,38.4,38.98z M50.64,48.93c-0.01-0.02-0.03-0.03-0.04-0.05
	c-0.01,0.01-0.03,0.03-0.04,0.04c0.02,0.01,0.03,0.03,0.05,0.04c0,0,0.02-0.02-0.04-0.05c-0.01-0.08,0-0.15-0.03-0.17
	c-0.08-0.07-0.18-0.13-0.26-0.19c-0.28-0.2-0.54-0.43-0.84-0.58c-0.25-0.12-0.44-0.31-0.66-0.45c-0.49-0.31-0.93-0.68-1.38-1.04
	c-0.17-0.14-0.36-0.27-0.38-0.54c0-0.08-0.1-0.16-0.14-0.24c-0.03-0.06-0.08-0.12-0.09-0.18c-0.01-0.23-0.02-0.47,0-0.7
	c0.02-0.14,0.07-0.3,0.15-0.41c0.1-0.15,0.23-0.29,0.46-0.25c0.07,0.01,0.16-0.08,0.23-0.12c0-0.08,0-0.15,0-0.23
	c-0.23,0-0.44,0-0.66,0c-0.03,0-0.06,0-0.09,0c-0.18-0.01-0.37,0.06-0.42,0.21c-0.08,0.22-0.24,0.37-0.37,0.55
	c-0.13,0.18-0.18,0.38-0.19,0.63c-0.01,0.35,0.11,0.67,0.1,1.02c0.17,0.11,0.06,0.23,0,0.32c-0.25,0.32-0.36,0.7-0.48,1.07
	c-0.07,0.21-0.18,0.43-0.11,0.65c0.1,0.31,0.13,0.64,0.37,0.9c0.15,0.16,0.21,0.35,0.06,0.56c-0.06,0.08-0.09,0.16-0.09,0.27
	c0,0.12,0.06,0.27-0.08,0.36c-0.03,0.5-0.04,1,0.39,1.37c0.12,0.1,0.22,0.22,0.33,0.33c-0.07,0.18-0.12,0.34-0.21,0.47
	c-0.09,0.15-0.13,0.27-0.03,0.43c0.02,0.03,0.03,0.08,0.03,0.12c0,0.29,0.08,0.54,0.24,0.77c0.14,0.22,0.11,0.46,0.1,0.7
	c0,0.06-0.08,0.12-0.08,0.18c0.01,0.33-0.16,0.61-0.22,0.92c-0.06,0.36-0.26,0.68-0.33,1.04c-0.05,0.25-0.18,0.49-0.3,0.81
	c-0.11-0.17-0.21-0.26-0.23-0.36c-0.07-0.3-0.21-0.56-0.39-0.8c-0.4-0.55-0.74-1.15-1.23-1.62c-0.15-0.15-0.31-0.28-0.48-0.4
	c-0.17-0.13-0.34-0.29-0.54-0.36c-0.21-0.08-0.38-0.21-0.57-0.29c-0.15-0.07-0.33-0.09-0.49-0.17c-0.16-0.08-0.36-0.1-0.52-0.19
	c-0.05-0.03-0.13,0-0.19,0c-0.06,0.25,0.09,0.33,0.24,0.43c0.15,0.1,0.35,0.17,0.42,0.31c0.19,0.38,0.54,0.6,0.79,0.93
	c0.37,0.51,0.74,1.03,1.01,1.59c0.27,0.57,0.42,1.18,0.46,1.82c0.01,0.22-0.08,0.41-0.08,0.62c0,0.2-0.04,0.39-0.09,0.58
	c-0.14,0.5-0.3,0.98-0.52,1.45c-0.19,0.39-0.36,0.8-0.61,1.14c-0.25,0.33-0.38,0.74-0.71,1.02c-0.11,0.1-0.16,0.26-0.26,0.44
	c0.25-0.01,0.38-0.13,0.5-0.26c0.51-0.52,1.01-1.03,1.52-1.55c0.07-0.07,0.1-0.17,0.16-0.23c0.3-0.28,0.42-0.68,0.69-0.98
	c0-0.21,0.14-0.11,0.25-0.12c0,0.11,0.03,0.22-0.01,0.3c-0.17,0.33-0.14,0.7-0.24,1.04c-0.08,0.28,0.01,1.29,0.08,1.58
	c0.17,0.09,0.05,0.26,0.11,0.39c0.2,0.39,0.4,0.79,0.56,1.21c0.08,0.21,0.21,0.36,0.35,0.51c0.15,0.16,0.28,0.33,0.44,0.48
	c0.27,0.25,0.58,0.45,0.9,0.64c0.12,0.07,0.27,0.19,0.19,0.38c-0.45,0.19-0.9,0.39-1.37,0.55c-0.49,0.17-0.96,0.4-1.45,0.57
	c-0.19,0.06-0.38,0.13-0.55,0.23c-0.19,0.11-0.44,0.06-0.58,0.26c-0.49,0.16-0.96,0.39-1.43,0.61c-0.2,0.1-0.43,0.15-0.62,0.27
	c-0.22,0.14-0.45,0.23-0.67,0.36c-0.08,0.04-0.17,0.06-0.23,0.09c-0.2-0.43-0.39-0.81-0.57-1.21c-0.04-0.08-0.06-0.18-0.09-0.27
	c-0.1-0.31-0.25-0.6-0.4-0.88c-0.15-0.3-0.3-0.6-0.46-0.9c-0.14-0.26-0.29-0.52-0.4-0.8c-0.11-0.29-0.29-0.55-0.42-0.83
	c-0.12-0.25-0.27-0.5-0.39-0.76c-0.12-0.26-0.33-0.46-0.46-0.72c-0.11-0.21-0.19-0.47-0.36-0.63c-0.19-0.19-0.22-0.45-0.39-0.63
	c-0.17-0.2-0.19-0.49-0.42-0.66c-0.05-0.03-0.08-0.11-0.09-0.18c-0.05-0.24-0.2-0.44-0.3-0.66c-0.25-0.53-0.6-0.99-0.85-1.52
	c-0.25-0.53-0.66-0.99-1.04-1.44c-0.26-0.3-0.55-0.58-0.82-0.88c-0.27-0.3-0.4-0.71-0.73-0.96c-0.03-0.02-0.03-0.08-0.05-0.11
	c-0.22-0.29-0.43-0.58-0.65-0.86c-0.25-0.33-0.47-0.7-0.79-0.98c-0.02-0.02-0.01-0.09-0.03-0.11c-0.19-0.18-0.26-0.48-0.55-0.58
	c-0.09,0.22,0.04,0.35,0.13,0.5c0.24,0.39,0.48,0.79,0.69,1.2c0.24,0.47,0.44,0.96,0.68,1.42c0.24,0.45,0.47,0.91,0.66,1.38
	c0.08,0.19,0.19,0.36,0.33,0.52c0.23,0.25,0.32,0.59,0.46,0.9c0.27,0.63,0.58,1.24,1.04,1.75c0.18,0.45,0.59,0.75,0.77,1.21
	c0.13,0.34,0.34,0.64,0.51,0.97c0.06,0.12,0.05,0.28,0.13,0.38c0.25,0.33,0.4,0.71,0.58,1.07c0.3,0.63,0.58,1.27,0.88,1.91
	c0.13,0.27,0.24,0.54,0.37,0.81c0.07,0.15,0.08,0.33,0.23,0.43c0.06,0.37,0.26,0.68,0.39,1.02c0.19,0.5,0.43,0.99,0.61,1.49
	c0.07,0.19,0.21,0.35,0.24,0.56c0.02,0.11-0.01,0.26,0.05,0.32c0.23,0.21,0.25,0.51,0.38,0.77c0.15,0.3,0.35,0.58,0.41,0.92
	c0.01,0.05,0.09,0.09,0.16,0.16c0.17-0.14,0.32-0.26,0.46-0.39c0.14-0.13,0.28-0.26,0.46-0.36c0.41-0.23,0.76-0.56,1.21-0.72
	c0.01,0,0.02-0.02,0.03-0.03c0.24-0.25,0.56-0.39,0.85-0.55c0.2-0.11,0.41-0.21,0.59-0.33c0.33-0.21,0.72-0.34,0.99-0.63
	c0.04-0.05,0.12-0.09,0.18-0.09c0.26,0,0.46-0.16,0.66-0.28c0.24-0.15,0.48-0.31,0.75-0.38c0.28-0.07,0.5-0.25,0.78-0.32
	c0.19-0.05,0.35-0.18,0.54-0.25c0.36-0.13,0.72-0.26,1.07-0.44c0.18-0.09,0.36-0.18,0.54-0.26c0.54-0.22,1.08-0.44,1.61-0.71
	c0.18-0.09,0.38-0.12,0.57-0.18c0.04-0.01,0.1,0,0.12-0.02c0.18-0.22,0.46-0.22,0.68-0.34c0.28-0.15,0.56-0.35,0.86-0.41
	c0.55-0.12,1.01-0.42,1.5-0.64c0.4-0.18,0.81-0.35,1.22-0.5c0.13-0.05,0.19-0.19,0.31-0.19c0.26,0.01,0.45-0.17,0.67-0.26
	c0.22-0.09,0.43-0.23,0.65-0.18c0.38,0.47,0.46,1.04,0.77,1.5c-0.25,0.29-0.46,0.57-0.71,0.82c-0.31,0.31-0.65,0.59-0.96,0.9
	c-0.31,0.31-0.67,0.54-1.01,0.8c-0.34,0.27-0.71,0.51-1.06,0.77c-0.2,0.15-0.37,0.34-0.58,0.49c-0.21,0.15-0.45,0.25-0.65,0.41
	c-0.42,0.34-0.91,0.6-1.27,1.02c-0.04,0.05-0.11,0.08-0.17,0.12c-0.47,0.32-0.95,0.64-1.41,0.97c-0.31,0.22-0.62,0.45-0.94,0.66
	c-0.32,0.22-0.64,0.45-0.98,0.65c-0.21,0.13-0.39,0.31-0.6,0.43c-0.38,0.2-0.71,0.5-1.08,0.71c-0.4,0.23-0.74,0.57-1.15,0.77
	c-0.69,0.34-1.27,0.86-1.97,1.19c-0.52,0.24-0.98,0.61-1.49,0.89c-0.19,0.1-0.43,0.09-0.57,0.3c-0.24-0.04-0.33,0.23-0.54,0.26
	c-0.23,0.04-0.43,0.13-0.64,0.23c-0.21,0.11-0.47,0.11-0.7,0.18c-0.21,0.07-0.44,0.04-0.63-0.09c-0.14-0.09-0.27-0.2-0.39-0.31
	c-0.2-0.19-0.38-0.4-0.58-0.58c-0.19-0.18-0.4-0.35-0.6-0.52c-0.27-0.24-0.47-0.57-0.84-0.69c-0.07-0.02-0.13-0.12-0.18-0.18
	c-0.2-0.23-0.39-0.49-0.61-0.7c-0.38-0.38-0.75-0.78-1.17-1.13c-0.46-0.39-0.81-0.9-1.2-1.37c-0.37-0.45-0.78-0.87-1.18-1.3
	c-0.4-0.44-0.81-0.88-1.21-1.32c-0.01-0.01-0.02-0.02-0.03-0.03c-0.25-0.38-0.53-0.72-0.85-1.04c-0.08-0.08-0.17-0.16-0.24-0.25
	c-0.32-0.44-0.67-0.86-1-1.29c-0.14-0.18-0.32-0.33-0.42-0.52c-0.11-0.2-0.29-0.33-0.38-0.54c-0.09-0.22-0.22-0.41-0.39-0.58
	c-0.11-0.11-0.17-0.27-0.25-0.42c-0.18-0.35-0.41-0.67-0.59-1.02c-0.12-0.22-0.26-0.45-0.43-0.66c-0.17-0.21-0.36-0.41-0.5-0.66
	c-0.13-0.22-0.28-0.43-0.42-0.64c0.08-0.09,0.16-0.14,0.19-0.22c0.19-0.48,0.56-0.82,0.87-1.21c0.2-0.25,0.41-0.51,0.74-0.59
	c0.14-0.26,0.42-0.35,0.65-0.51c0.23-0.16,0.47-0.31,0.72-0.44c0.32-0.17,0.66-0.28,0.99-0.42c0.45-0.18,0.91-0.32,1.39-0.38
	c0.08-0.01,0.15-0.07,0.26-0.13c-0.24-0.17-0.48-0.2-0.7-0.21c-0.36-0.02-0.72-0.01-1.07-0.01c-0.07,0-0.14-0.01-0.21,0.02
	c-0.47,0.16-0.96,0.19-1.45,0.25c-0.15,0.02-0.32-0.07-0.44,0.09c-0.22-0.06-0.4,0.1-0.61,0.09c-0.44-0.03-0.71,0.3-1.05,0.47
	c-0.25,0.37-0.53,0.71-0.77,1.08c-0.16,0.25-0.34,0.29-0.58,0.29c-0.1-0.18-0.21-0.36-0.29-0.54c-0.16-0.36-0.37-0.68-0.53-1.05
	c-0.1-0.23-0.25-0.42-0.25-0.68c0-0.06-0.04-0.13-0.08-0.18c-0.14-0.17-0.19-0.39-0.27-0.59c-0.11-0.3-0.26-0.59-0.36-0.9
	c-0.05-0.17-0.1-0.34-0.15-0.51c-0.15-0.58-0.38-1.14-0.43-1.74c-0.2-0.35-0.09-0.76-0.24-1.12c0.06-0.52-0.11-1.02-0.09-1.54
	c0.02-0.47-0.05-0.94,0.08-1.41c0.05-0.19-0.06-0.45,0.03-0.6c0.1-0.19-0.01-0.4,0.14-0.56c0.13-0.14,0.11-0.36,0.17-0.54
	c0.05-0.17,0.17-0.32,0.19-0.49c0.03-0.31,0.17-0.58,0.3-0.84c0.16-0.3,0.32-0.6,0.56-0.87c0.18-0.21,0.34-0.43,0.58-0.58
	c0.03-0.01,0.03-0.07,0.04-0.12c-0.39-0.11-0.72-0.02-1,0.23c-0.54,0.49-0.97,1.06-1.29,1.73c-0.27,0.58-0.54,1.15-0.66,1.78
	c-0.06,0.3-0.18,0.58-0.16,0.89c-0.17,0.15-0.07,0.35-0.08,0.53c-0.01,0.2-0.11,0.37-0.1,0.58c0.04,1.1-0.04,2.2,0.08,3.29
	c0.05,0.41,0.16,0.81,0.1,1.23c0.12,0.21,0.02,0.46,0.1,0.66c0.12,0.31,0.15,0.64,0.23,0.95c0.07,0.29,0.17,0.57,0.24,0.87
	c0.06,0.29,0.18,0.57,0.3,0.84c0.07,0.17,0.12,0.36,0.18,0.54c0.06,0.19,0.17,0.37,0.17,0.58c0,0.2,0.16,0.33,0.19,0.54
	c0.03,0.27,0.13,0.57,0.28,0.8c0.19,0.3,0.32,0.63,0.49,0.93c0.18,0.32,0.27,0.68,0.45,0.99c0.21,0.35,0.43,0.69,0.6,1.06
	c0.05,0.11,0.14,0.21,0.21,0.31c0.13,0.17,0.28,0.32,0.39,0.49c0.17,0.26,0.36,0.52,0.48,0.8c0.15,0.36,0.3,0.72,0.44,1.08
	c0.12,0.3,0.32,0.57,0.41,0.88c0.07,0.24,0.2,0.44,0.28,0.67c0.15,0.42,0.29,0.84,0.49,1.24c0.07,0.13,0.15,0.26,0.19,0.4
	c0.22,0.77,0.58,1.48,0.78,2.25c0.21,0.27,0.28,0.62,0.37,0.93c0.1,0.32,0.23,0.64,0.31,0.97c0.1,0.39,0.27,0.76,0.4,1.14
	c0.13,0.37,0.27,0.74,0.35,1.12c0.12,0.59,0.33,1.15,0.49,1.73c0.16,0.6,0.33,1.21,0.46,1.82c0.1,0.46,0.22,0.91,0.28,1.38
	c0.03,0.23,0.12,0.48,0.14,0.72c0.02,0.25,0.16,0.49,0.1,0.75c-0.01,0.04-0.02,0.11,0,0.13c0.16,0.16,0.02,0.37,0.09,0.53
	c0.08,0.18,0.06,0.36,0.08,0.54c0.03,0.3,0.07,0.6,0.11,0.91c0.15-0.03,0.22-0.09,0.23-0.23c0.02-0.35,0.22-0.66,0.17-1.02
	c0.16-0.22,0.06-0.47,0.09-0.71c0.03-0.25,0.11-0.49,0.09-0.75c-0.03-0.38,0.05-0.77-0.09-1.15c0.06-0.76-0.09-1.52-0.09-2.28
	c0-0.27,0.03-0.53-0.07-0.8c-0.07-0.19,0-0.43-0.02-0.65c-0.01-0.21-0.06-0.41-0.08-0.62c-0.04-0.41-0.02-0.83-0.1-1.23
	c-0.04-0.22,0-0.48-0.09-0.66c-0.12-0.23-0.04-0.46-0.13-0.69c-0.09-0.22-0.02-0.51-0.02-0.77c0.15,0,0.28,0,0.42,0
	c0.05,0.09,0.08,0.18,0.14,0.25c0.39,0.46,0.78,0.93,1.19,1.38c0.19,0.22,0.41,0.41,0.6,0.62c0.1,0.11,0.16,0.28,0.28,0.36
	c0.25,0.16,0.4,0.43,0.64,0.6c0.21,0.15,0.36,0.39,0.57,0.58c0.5,0.44,0.94,0.96,1.46,1.38c0.25,0.21,0.48,0.44,0.73,0.65
	c0.17,0.14,0.36,0.25,0.53,0.4c0.29,0.25,0.65,0.38,0.99,0.52c0.38,0.15,0.75,0.32,1.18,0.27c0.24-0.03,0.49-0.02,0.73,0
	c0.44,0.04,0.83-0.13,1.23-0.25c0.39-0.11,0.72-0.35,1.07-0.53c0.54-0.28,1.02-0.65,1.53-0.99c0.41-0.27,0.8-0.58,1.2-0.86
	c0.31-0.22,0.63-0.43,0.93-0.68c0.23-0.19,0.47-0.38,0.72-0.55c0.41-0.28,0.81-0.57,1.18-0.89c0.3-0.25,0.65-0.42,0.92-0.69
	c0.27-0.27,0.65-0.42,0.85-0.84c0.19,0.28,0.47,0.41,0.64,0.67c0.09,0.14,0.2,0.27,0.3,0.4s0.21,0.26,0.3,0.4
	c0.03,0.05,0.06,0.15,0.04,0.2c-0.11,0.18-0.14,0.39-0.16,0.59c-0.02,0.22-0.08,0.44-0.12,0.66c-0.03,0.21-0.01,0.43-0.08,0.62
	c-0.12,0.31-0.17,0.62-0.16,0.94c0,0.07,0,0.15-0.02,0.21c-0.17,0.43-0.18,0.9-0.23,1.35c-0.03,0.29,0.05,0.6-0.02,0.87
	c-0.07,0.25-0.01,0.49-0.08,0.71c-0.08,0.25-0.08,0.5-0.08,0.75c0,0.51-0.01,1.02,0,1.53c0.01,0.5-0.01,1,0.07,1.5
	c0.07,0.44,0.15,0.9,0.11,1.36c-0.02,0.18,0.14,0.34,0.09,0.53c-0.01,0.02,0.02,0.05,0.03,0.07c0.15,0.38,0.18,0.8,0.31,1.18
	c0.11,0.32,0.13,0.68,0.39,0.95c0.07-0.17,0.13-0.34,0.21-0.49c0.1-0.19,0.03-0.4,0.1-0.57c0.08-0.2,0.02-0.4,0.08-0.58
	c0.08-0.21,0.07-0.41,0.08-0.62c0-0.04-0.01-0.1,0-0.13c0.18-0.37,0.17-0.78,0.24-1.17c0.09-0.46,0.07-0.94,0.1-1.41
	c0.02-0.24,0.04-0.48,0.1-0.7c0.09-0.31,0.15-0.62,0.16-0.94c0.01-0.37,0.05-0.73,0.08-1.1c0-0.03,0.01-0.05,0.03-0.08
	c0.1-0.2,0.05-0.44,0.15-0.64c-0.06-0.91,0.09-1.81,0.09-2.72c0-0.08,0.01-0.16,0.01-0.25c0.06,0,0.1-0.01,0.11,0
	c0.09,0.08,0.41,0.62,0.48,0.76c0.1,0.21,0.2,0.43,0.35,0.59c0.26,0.29,0.44,0.64,0.68,0.94c0.17,0.22,0.33,0.47,0.54,0.64
	c0.13,0.1,0.28,0.2,0.38,0.32c0.23,0.29,0.55,0.39,0.87,0.51c0.24,0.09,0.48,0.21,0.75,0.17c0.12,0.18,0.33,0.02,0.47,0.12
	c0.15,0.11,0.33,0.04,0.49,0.05c0.19,0.01,0.36-0.12,0.57-0.09c0.45,0.06,0.86-0.14,1.28-0.21c0.26-0.05,0.47-0.21,0.73-0.22
	c0.2-0.01,1.27-0.49,1.43-0.59c0.22-0.14,0.43-0.28,0.65-0.4c0.21-0.11,0.36-0.28,0.51-0.44c0.1-0.11,0.17-0.25,0.27-0.39
	c0.03-0.2,0.02-0.43-0.12-0.62c-0.12-0.03-0.22,0.01-0.29,0.12c-0.44,0.71-1.1,1.09-1.85,1.36c-0.28,0.1-0.56,0.23-0.87,0.18
	c-0.17,0.14-0.38,0.11-0.58,0.17c-0.18,0.05-0.37-0.01-0.57,0.08c-0.18,0.08-0.43-0.01-0.64,0.02c-0.4,0.05-0.77-0.13-1.17-0.09
	c-0.21-0.13-0.47-0.08-0.67-0.26c-0.49-0.42-0.77-1.02-1.23-1.46c-0.01-0.01,0.01-0.06-0.01-0.08c-0.25-0.39-0.51-0.78-0.77-1.17
	c-0.11-0.16-0.26-0.3-0.32-0.48c-0.11-0.36-0.38-0.62-0.54-0.96c-0.2-0.43-0.47-0.82-0.69-1.24c-0.38-0.73-0.85-1.39-1.29-2.08
	c-0.07-0.11-0.28-0.08-0.25-0.3c0.3-0.24,0.5-0.63,0.92-0.75c0.04-0.01,0.06-0.06,0.09-0.09c0.31-0.32,0.62-0.63,1.05-0.81
	c0.11-0.05,0.15-0.19,0.3-0.23c0.12-0.03,0.23-0.14,0.33-0.24c0.08-0.08,0.12-0.19,0.24-0.25c0.12-0.06,0.21-0.2,0.31-0.3
	c0.15-0.15,0.28-0.34,0.46-0.46c0.49-0.32,0.85-0.77,1.29-1.15c0.07-0.06,0.13-0.15,0.18-0.23c0.2-0.3,0.61-0.5,0.9-0.32
	c0.25,0.15,0.57,0.09,0.77,0.32c0.7,0.17,1.23,0.65,1.81,1.05c0.15,0.11,0.25,0.26,0.3,0.44c0.1,0.34,0.25,0.65,0.4,0.97
	c0.1,0.21,0.21,0.41,0.32,0.61c0.11,0.2,0.2,0.41,0.31,0.61c0.06,0.1,0.14,0.21,0.17,0.32c0.12,0.42,0.33,0.8,0.56,1.17
	c0.07,0.12,0.2,0.24,0.1,0.43c-0.11,0.02-0.2-0.01-0.29-0.1c-0.24-0.24-0.47-0.51-0.76-0.67c-0.31-0.17-0.55-0.41-0.82-0.61
	c-0.37-0.28-0.69-0.63-1.04-0.95c-0.13-0.12-0.25-0.24-0.36-0.37c-0.14-0.17-0.39-0.2-0.46-0.44c-0.24-0.04-0.37-0.24-0.54-0.38
	c-0.06-0.05-0.17-0.04-0.3-0.07c0.13,0.47,0.25,0.87,0.55,1.19c0.17,0.18,0.29,0.38,0.34,0.6c0.1,0.47,0.31,1.04,0.57,1.38
	c0.13,0.17,0.24,0.37,0.4,0.48c0.25,0.17,0.53,0.31,0.79,0.48c0.22,0.14,0.45,0.22,0.7,0.29c0.19,0.05,0.4,0.09,0.58,0.16
	c0.22,0.09,0.41,0.04,0.62,0.07c0.16,0.02,0.32,0.01,0.47,0c0.13-0.01,0.23,0.04,0.26,0.16c0.03,0.14,0.22,0.18,0.19,0.37
	c-0.02,0.13,0.16,0.19,0.18,0.36c0.02,0.18,0.17,0.37,0.3,0.52c0.14,0.17,0.18,0.4,0.35,0.56c0.19,0.18,0.32,0.44,0.44,0.68
	c0.14,0.27,0.34,0.5,0.49,0.75c0.2,0.33,0.45,0.62,0.66,0.95c0.19,0.3,0.47,0.56,0.65,0.87c0.2,0.33,0.5,0.56,0.73,0.87
	c0.31,0.42,0.7,0.78,1.06,1.17c0.7,0.77,1.45,1.5,2.18,2.23c0.22,0.21,0.48,0.38,0.71,0.57c0.25,0.21,0.53,0.39,0.72,0.65
	c0.16,0.22,0.33,0.45,0.51,0.65c0.42,0.49,0.96,0.8,1.57,0.98c0.21,0.06,0.43,0.07,0.62,0.17c0.12,0.07,0.23,0.08,0.36,0.08
	c0.44,0.01,0.85-0.11,1.26-0.28c0.27-0.11,0.52-0.27,0.81-0.34c0.21-0.05,0.41-0.19,0.6-0.32c0.24-0.16,0.45-0.37,0.7-0.51
	c0.11-0.07,0.24-0.22,0.41-0.08c0,0.16,0.01,0.32,0,0.48c-0.01,0.15-0.07,0.3-0.08,0.45c-0.01,0.39,0,0.79,0,1.17
	c0.08,0.08,0.15,0.16,0.21,0.23c0.15,0,0.29,0,0.48,0c0.13-0.2,0.29-0.41,0.4-0.65c0.06-0.13,0.04-0.3,0.11-0.43
	c0.13-0.26,0.18-0.54,0.27-0.81c0.09-0.3,0.13-0.61,0.24-0.9c0.11-0.3,0.21-0.62,0.25-0.94c0.07-0.45,0.34-0.76,0.63-1.03
	c0.15-0.14,0.33-0.26,0.47-0.42c0.26-0.29,0.62-0.47,0.81-0.82c0.22-0.06,0.28-0.3,0.43-0.42c0.17-0.13,0.33-0.27,0.47-0.42
	c0.13-0.14,0.24-0.31,0.37-0.46c0.43-0.48,0.87-0.95,1.31-1.42c0.02-0.02,0.05-0.04,0.06-0.06c0.12-0.19,0.27-0.35,0.42-0.52
	c0.17-0.19,0.33-0.39,0.49-0.58c0.18-0.22,0.38-0.42,0.54-0.65c0.23-0.34,0.48-0.66,0.76-0.95c0.04-0.04,0.09-0.08,0.12-0.12
	c0.25-0.49,0.61-0.91,0.93-1.35c0.33-0.45,0.56-0.96,0.95-1.36c0-0.21,0.28-0.24,0.27-0.45c0.26-0.39,0.54-0.76,0.79-1.16
	c0.38-0.6,0.74-1.21,1.1-1.81c0.12-0.2,0.2-0.42,0.35-0.59c0.16-0.19,0.17-0.48,0.4-0.63c0.06-0.04,0.08-0.14,0.11-0.21
	c0.06-0.14,0.09-0.29,0.18-0.41c0.38-0.55,0.61-1.18,0.94-1.75c0.34-0.6,0.57-1.25,0.89-1.86c0.23-0.43,0.4-0.89,0.56-1.34
	c0.22-0.61,0.37-1.25,0.55-1.87c0.18-0.61,0.35-1.22,0.56-1.82c0.05-0.15,0.01-0.3,0.07-0.45c0.12-0.29,0.18-0.61,0.21-0.92
	c0.03-0.32,0.08-0.63,0.18-0.93c0.06-0.19,0.07-0.38,0.09-0.58c0.02-0.32-0.06-0.65,0.07-0.98c0.07-0.19,0-0.43,0.02-0.65
	c0.01-0.21,0.07-0.41,0.08-0.62c0.01-0.22-0.01-0.44-0.07-0.67c-0.08-0.35-0.07-0.73-0.1-1.1c-0.01-0.08,0.01-0.18-0.02-0.25
	c-0.12-0.31-0.19-0.62-0.26-0.94c-0.07-0.3-0.16-0.6-0.25-0.9c-0.09-0.3-0.22-0.58-0.28-0.89c-0.02-0.12-0.02-0.28-0.1-0.35
	c-0.14-0.13-0.18-0.31-0.19-0.44c-0.02-0.2-0.27-0.28-0.2-0.49c-0.4-0.82-0.87-1.59-1.46-2.27c-0.34-0.39-0.73-0.75-1.09-1.12
	c-0.05-0.05-0.09-0.12-0.15-0.15c-0.27-0.15-0.5-0.34-0.72-0.56c-0.06-0.06-0.13-0.1-0.2-0.14c-0.82-0.45-1.66-0.85-2.55-1.13
	c-0.16-0.05-0.29-0.17-0.44-0.18c-0.28-0.01-0.53-0.1-0.79-0.18c-0.5-0.15-1.03-0.2-1.54-0.34c-0.24-0.07-0.51-0.12-0.73-0.22
	c-0.23-0.11-0.48-0.15-0.72-0.25c-0.31-0.13-0.58-0.34-0.88-0.47c-0.27-0.12-0.49-0.33-0.79-0.39c-0.37-0.35-0.87-0.49-1.27-0.79
	c-0.31-0.23-0.66-0.37-0.94-0.65c-0.18-0.18-0.43-0.3-0.62-0.48c-0.12-0.12-0.29-0.19-0.37-0.36c-0.08-0.16-0.26-0.21-0.37-0.36
	c-0.17-0.24-0.39-0.43-0.52-0.7c-0.07-0.15-0.22-0.27-0.28-0.45c-0.05-0.16-0.15-0.32-0.26-0.46c-0.06-0.08-0.08-0.14-0.08-0.23
	c0-0.05,0-0.13-0.04-0.16c-0.13-0.1-0.12-0.24-0.14-0.38c-0.02-0.18-0.1-0.34-0.09-0.53c0.01-0.07-0.07-0.14-0.11-0.21
	c-0.01-0.02-0.05-0.02-0.08-0.02c-0.02,0-0.06,0.03-0.06,0.04c-0.01,0.06-0.03,0.13,0,0.17c0.13,0.17,0.09,0.33,0.02,0.51
	c-0.04,0.12-0.01,0.28,0.02,0.41c0.06,0.26,0.15,0.52,0.21,0.79c0.04,0.19,0.03,0.39,0.1,0.57c0.25,0.75,0.58,1.41,1.12,1.94
	c0.27,0.26,0.52,0.55,0.87,0.72c0.22,0.11,0.38,0.33,0.59,0.45c0.32,0.18,0.62,0.39,0.92,0.58c0.57,0.36,1.12,0.73,1.74,1.02
	c0.42,0.2,0.89,0.29,1.26,0.6c0.49,0.1,0.88,0.44,1.37,0.54c0.71,0.43,1.49,0.72,2.19,1.17c0.25,0.16,0.49,0.34,0.75,0.47
	c0.41,0.2,0.74,0.52,1.09,0.81c0.15,0.12,0.29,0.25,0.46,0.34c0.18,0.1,0.39,0.21,0.49,0.37c0.25,0.42,0.56,0.79,0.84,1.18
	c0.29,0.4,0.41,0.89,0.73,1.27c-0.01,0.23,0.13,0.41,0.19,0.62c0.08,0.29,0.2,0.58,0.18,0.89c0.2,0.13-0.02,0.4,0.17,0.54
	c0,0.19-0.01,0.38,0,0.57c0.01,0.19,0.07,0.38,0.08,0.58c0.01,0.2,0.01,0.41,0,0.61c-0.01,0.21-0.06,0.41-0.08,0.62
	c-0.03,0.38-0.03,0.77-0.1,1.14c-0.03,0.16-0.1,0.33-0.07,0.49c0.03,0.18-0.11,0.32-0.09,0.49c0.02,0.27-0.01,0.54-0.09,0.8
	c-0.03,0.1-0.07,0.21-0.08,0.31c-0.04,0.22-0.01,0.46-0.1,0.66c-0.12,0.28-0.19,0.57-0.24,0.86c-0.05,0.32-0.19,0.61-0.19,0.93
	c0,0.19-0.06,0.38-0.13,0.55c-0.09,0.23-0.15,0.47-0.2,0.7c-0.09,0.38-0.22,0.75-0.35,1.12c-0.14,0.41-0.27,0.82-0.43,1.22
	c-0.23,0.57-0.31,1.21-0.68,1.73c-0.04,0.38-0.3,0.66-0.43,1c-0.09,0.23-0.18,0.45-0.27,0.67c-0.1,0.23-0.34,0.4-0.33,0.69
	c-0.34,0.33-0.37,0.85-0.67,1.21c-0.01,0.38-0.41,0.58-0.44,0.95c-0.21,0.19-0.23,0.49-0.39,0.71c-0.19,0.27-0.37,0.57-0.51,0.87
	c-0.13,0.28-0.28,0.55-0.42,0.83c-0.27,0.53-0.63,1.02-0.89,1.55c-0.22,0.44-0.47,0.85-0.7,1.28c-0.07,0.12-0.19,0.21-0.25,0.33
	c-0.13,0.3-0.34,0.56-0.53,0.83c-0.3,0.43-0.56,0.89-0.89,1.3c-0.22,0.27-0.39,0.6-0.61,0.88c-0.33,0.42-0.6,0.89-0.91,1.32
	c-0.24,0.34-0.51,0.66-0.77,0.99c-0.14,0.18-0.3,0.34-0.42,0.52c-0.15,0.24-0.3,0.47-0.49,0.67c-0.21,0.23-0.43,0.45-0.62,0.7
	c-0.32,0.42-0.7,0.79-1.05,1.18c-0.07,0.07-0.15,0.14-0.21,0.22c-0.42,0.58-0.92,1.08-1.49,1.51c-0.45,0.34-0.96,0.51-1.52,0.5
	c-0.32-0.01-0.65,0.06-0.95-0.09c-0.53,0.02-0.97-0.31-1.46-0.44c-0.26-0.27-0.64-0.4-0.87-0.71c-0.14-0.19-0.32-0.36-0.45-0.56
	c-0.15-0.23-0.38-0.39-0.51-0.62c-0.14-0.23-0.31-0.42-0.44-0.64c-0.13-0.21-0.31-0.38-0.39-0.62c-0.08-0.23-0.38-0.33-0.42-0.6
	c-0.28-0.27-0.44-0.63-0.67-0.95c-0.19-0.27-0.37-0.54-0.55-0.82c-0.2-0.31-0.38-0.63-0.58-0.94c-0.22-0.35-0.44-0.69-0.67-1.03
	c0.08-0.2-0.13-0.27-0.18-0.41c-0.05-0.14-0.2-0.24-0.24-0.38c-0.07-0.21-0.28-0.3-0.35-0.51c-0.06-0.19-0.18-0.36-0.26-0.55
	c-0.02-0.04-0.01-0.09-0.04-0.11c-0.23-0.23-0.27-0.56-0.45-0.82c-0.18-0.25-0.35-0.51-0.46-0.81c-0.1-0.25-0.21-0.51-0.37-0.72
	c-0.31-0.42-0.49-0.9-0.74-1.36c-0.21-0.38-0.45-0.74-0.53-1.18c-0.21-0.17-0.23-0.47-0.4-0.66c-0.18-0.21-0.29-0.46-0.43-0.69
	c-0.42-0.7-0.86-1.38-1.23-2.11c-0.1-0.19-0.19-0.39-0.29-0.58c-0.38-0.66-0.7-1.35-1.08-2c-0.12-0.21-0.26-0.42-0.36-0.64
	c-0.1-0.22-0.2-0.44-0.32-0.65c-0.35-0.64-0.7-1.28-1.03-1.93c-0.24-0.48-0.62-0.89-0.78-1.42c0-0.01-0.02-0.02-0.03-0.03
	c-0.2-0.33-0.52-0.6-0.58-1.03c0-0.03-0.05-0.08-0.09-0.09c-0.19-0.05-0.22-0.26-0.35-0.38c-0.13-0.11-0.21-0.29-0.32-0.43
	c-0.08-0.11-0.15-0.26-0.27-0.32c-0.31-0.18-0.55-0.52-0.96-0.49c-0.02,0-0.05-0.03-0.07-0.05c-0.13-0.13-0.28-0.19-0.47-0.23
	c-0.16-0.03-0.33-0.11-0.47-0.21c-0.39-0.29-0.86-0.44-1.25-0.74c-0.1-0.07-0.2-0.14-0.32-0.17c-0.27-0.09-0.48-0.28-0.74-0.39
	c-0.13-0.06-0.25-0.17-0.36-0.27c-0.13-0.12-0.27-0.17-0.43-0.23c-0.11-0.04-0.2-0.18-0.32-0.25c-0.21-0.12-0.42-0.25-0.62-0.38
	c-0.37-0.25-0.74-0.51-1.09-0.79c-0.31-0.25-0.65-0.48-0.94-0.76c-0.28-0.27-0.53-0.58-0.83-0.83c-0.17-0.15-0.12-0.42-0.33-0.52
	c0.02-0.28-0.08-0.59,0.16-0.86c0.16,0.05,0.3,0.12,0.43,0.23c0.3,0.24,0.64,0.44,1.03,0.61c0.01-0.15,0.04-0.25-0.08-0.34
	c-0.13-0.1-0.25-0.22-0.39-0.3c-0.23-0.15-0.46-0.3-0.66-0.5c-0.2-0.21-0.45-0.34-0.61-0.61c-0.13-0.21-0.23-0.41-0.23-0.65
	c0-0.31,0.1-0.59,0.21-0.91c0.15,0.07,0.33,0.1,0.4,0.21c0.12,0.18,0.32,0.04,0.46,0.17c0.33,0.3,0.75,0.46,1.14,0.66
	c0.14,0.07,0.24,0.06,0.39,0.01c-0.14-0.2-0.24-0.41-0.39-0.52c-0.16-0.12-0.24-0.27-0.33-0.43c-0.14-0.29-0.32-0.56-0.57-0.77
	c-0.1-0.08-0.2-0.16-0.28-0.25c-0.08-0.08-0.15-0.18-0.23-0.27c-0.06-0.06-0.12-0.15-0.19-0.16c-0.32-0.05-0.48-0.27-0.58-0.55
	c-0.08-0.22-0.22-0.45-0.04-0.7c0.06-0.09,0.06-0.23,0.09-0.35c0.01-0.02,0.03-0.04,0.04-0.07c0.06,0,0.11,0,0.17,0
	c0.03,0.06,0.05,0.13,0.09,0.18c0.27,0.28,0.56,0.54,0.92,0.7c0.19,0.09,0.34,0.27,0.57,0.3c0.4,0.34,0.9,0.46,1.37,0.66
	C49.84,48.74,50.21,48.8,50.64,48.93z M58.15,23.18c0.2-0.17,0.3-0.34,0.38-0.52c0.27-0.54,0.64-1.01,0.96-1.52
	c0.17-0.26,0.43-0.43,0.56-0.72c0.06-0.14,0.2-0.24,0.3-0.35c0.09-0.1,0.16-0.27,0.27-0.3c0.14-0.04,0.13-0.21,0.24-0.23
	c0.18-0.03,0.15-0.22,0.26-0.3c0.12-0.09,0.23-0.24,0.36-0.27c0.4-0.09,0.61-0.46,0.95-0.63c0.03-0.02,0.07-0.07,0.07-0.1
	c-0.03-0.2,0.12-0.29,0.24-0.38c0.39-0.29,0.82-0.5,1.27-0.69c0.38-0.16,0.77-0.29,1.17-0.4c0.5-0.14,1-0.31,1.52-0.4
	c0.19-0.03,0.41-0.01,0.56-0.09c0.2-0.1,0.4-0.01,0.57-0.08c0.21-0.09,0.41-0.09,0.61-0.08c0.72,0.04,1.44-0.06,2.16,0.07
	c0.39,0.07,0.8,0.16,1.21,0.11c0.11-0.01,0.23,0.06,0.35,0.08c0.13,0.02,0.26,0.02,0.4,0.08c0.45,0.19,0.92,0.35,1.36,0.56
	c0.18,0.09,0.34,0.17,0.54,0.15c0.13-0.01,0.23,0.02,0.34,0.11c0.15,0.12,0.36,0.2,0.55,0.23c0.24,0.03,0.43,0.15,0.62,0.28
	c0.25,0.16,0.46,0.41,0.75,0.48c0.2,0.05,0.31,0.16,0.44,0.29c0.06,0.06,0.12,0.13,0.18,0.18c0.05,0.04,0.12,0.09,0.18,0.08
	c0.18-0.03,0.29,0.08,0.35,0.2c0.13,0.29,0.39,0.47,0.57,0.72c0.21,0.29,0.42,0.59,0.57,0.9c0.29,0.62,0.64,1.23,0.72,1.93
	c0.2,0.24,0.13,0.55,0.22,0.82c0.07,0.2,0.05,0.44,0.09,0.66c0.05,0.23,0.04,0.47,0.08,0.71c0.06,0.34,0.03,0.7,0.01,1.05
	c-0.01,0.34,0.08,0.69-0.08,1.01c0.06,0.42-0.09,0.82-0.09,1.23c0,0.22,0,0.44-0.06,0.67c-0.06,0.22-0.1,0.46-0.14,0.69
	c-0.04,0.24-0.09,0.49-0.14,0.73c-0.07,0.38-0.19,0.74-0.3,1.1c-0.09,0.31-0.16,0.64-0.32,0.91c-0.08,0.15-0.02,0.3-0.12,0.44
	c-0.1,0.14-0.22,0.33-0.19,0.48c0.04,0.24-0.15,0.35-0.2,0.54c-0.07,0.26-0.21,0.49-0.31,0.74c-0.02,0.04-0.01,0.1-0.01,0.19
	c0.09-0.05,0.15-0.07,0.18-0.1c0.07-0.08,0.12-0.18,0.19-0.27c0.23-0.33,0.45-0.66,0.7-0.97c0.23-0.28,0.36-0.61,0.56-0.91
	c0.17-0.26,0.36-0.52,0.49-0.8c0.19-0.38,0.43-0.74,0.56-1.16c0.09-0.31,0.3-0.57,0.4-0.88c0.1-0.32,0.25-0.63,0.37-0.94
	c0.29-0.74,0.59-1.48,0.8-2.24c0.06-0.21,0.13-0.42,0.14-0.65c0.01-0.24,0.12-0.46,0.08-0.71c0.18-0.17,0.05-0.39,0.08-0.58
	c0.03-0.19,0.09-0.39,0.08-0.58c-0.02-0.47,0.07-0.94-0.07-1.41c-0.07-0.24-0.03-0.51-0.1-0.75c-0.16-0.5-0.27-1.02-0.44-1.52
	c-0.13-0.39-0.25-0.81-0.46-1.16c-0.26-0.44-0.53-0.89-0.93-1.23c-0.17-0.15-0.33-0.32-0.49-0.49c-0.34-0.38-0.77-0.64-1.17-0.93
	c-0.39-0.29-0.83-0.5-1.25-0.74c-0.5-0.28-1.03-0.5-1.56-0.7c-0.2-0.07-0.4-0.17-0.6-0.2c-0.42-0.05-0.8-0.24-1.22-0.3
	c-0.28-0.04-0.55-0.15-0.84-0.15c-0.19,0-0.39-0.03-0.55-0.12c-0.13-0.07-0.26,0-0.36-0.06c-0.13-0.07-0.26-0.09-0.4-0.08
	c-0.19,0-0.38,0.01-0.57-0.08c-0.17-0.07-0.39,0.06-0.56-0.1c-0.76,0-1.52,0-2.28,0c-0.11,0.12-0.26,0.07-0.39,0.09
	c-0.15,0.02-0.29,0.07-0.44,0.08c-0.2,0.02-0.4,0-0.59,0.03c-0.18,0.03-0.36,0.12-0.54,0.14c-0.19,0.02-0.36,0.13-0.54,0.15
	c-0.38,0.06-0.75,0.11-1.05,0.38c-0.31-0.01-0.57,0.17-0.83,0.28c-0.54,0.23-1.09,0.42-1.62,0.68c-1.14,0.56-1.49,0.92-2.16,1.64
	c-0.12,0.13-0.33,0.16-0.36,0.36c-0.34,0.3-0.55,0.7-0.79,1.07c-0.19,0.3-0.42,0.58-0.53,0.91c-0.1,0.28-0.26,0.53-0.33,0.83
	c-0.07,0.29-0.2,0.56-0.29,0.84c-0.07,0.22-0.15,0.44-0.17,0.67c-0.03,0.32-0.08,0.63-0.17,0.94
	C58.11,22.93,58.14,23.03,58.15,23.18z M78.89,74.08c-0.05-0.11-0.06-0.22-0.12-0.28c-0.18-0.18-0.24-0.39-0.26-0.64
	c0-0.07-0.02-0.14-0.04-0.2c-0.07-0.25-0.14-0.49-0.22-0.74c-0.08-0.25-0.23-0.48-0.17-0.76c0-0.01,0-0.03-0.01-0.04
	c-0.11-0.11-0.14-0.26-0.17-0.41c-0.03-0.14-0.12-0.27-0.19-0.4c-0.25-0.47-0.56-0.89-0.91-1.28c-0.36-0.39-0.75-0.77-1.2-1.05
	c-0.08-0.05-0.14-0.14-0.09-0.22c0.1-0.14,0.03-0.32,0.09-0.44c0.08-0.15,0.03-0.31,0.11-0.44c0.07-0.12,0.16-0.22,0.21-0.35
	c0.05-0.11,0.07-0.24,0.09-0.36c0.03-0.14,0.24-0.18,0.17-0.37c0.22-0.37,0.29-0.81,0.52-1.18c0.06-0.09,0.15-0.18,0.16-0.28
	c0.04-0.35,0.28-0.61,0.38-0.94c0.1-0.31,0.23-0.63,0.4-0.92c0.07-0.13,0.2-0.24,0.24-0.38c0.04-0.16,0.08-0.31,0.19-0.45
	c0.1-0.13,0.21-0.27,0.24-0.42c0.06-0.29,0.23-0.52,0.34-0.78c0.09-0.2,0.17-0.4,0.24-0.6c0.04-0.1,0.01-0.27,0.07-0.31
	c0.27-0.21,0.15-0.6,0.4-0.8c0.12-0.42,0.32-0.8,0.56-1.16c0.04-0.06,0.03-0.15,0.05-0.27c-0.12,0.03-0.21,0.02-0.27,0.06
	c-0.25,0.21-0.49,0.43-0.73,0.65c-0.07,0.06-0.15,0.12-0.23,0.18c-0.25,0.21-0.52,0.39-0.72,0.63c-0.13,0.16-0.27,0.32-0.41,0.48
	c-0.1,0.11-0.24,0.19-0.3,0.31c-0.19,0.39-0.48,0.7-0.7,1.06c-0.49,0.78-0.93,1.58-1.28,2.44c0.04,0.2-0.17,0.28-0.19,0.44
	c-0.06,0.39-0.28,0.75-0.26,1.16c0,0.04-0.02,0.08-0.03,0.12c-0.08,0.27-0.16,0.53-0.14,0.82c0.01,0.2,0.01,0.41,0,0.61
	c-0.01,0.31,0.08,0.6,0.17,0.87c-0.05,0.07-0.08,0.12-0.12,0.17c-0.61-0.22-1.05-0.69-1.64-0.89c-0.02-0.01-0.04-0.04-0.06-0.06
	c-0.3-0.26-0.65-0.44-0.98-0.65c-0.46-0.29-0.91-0.58-1.37-0.87c-0.24-0.15-0.48-0.3-0.71-0.46c-0.45-0.31-0.9-0.62-1.34-0.93
	c-0.16-0.11-0.3-0.24-0.46-0.35c-0.15-0.1-0.29-0.22-0.42-0.34c-0.12-0.11-0.3-0.17-0.43-0.3c-0.14-0.14-0.29-0.26-0.45-0.37
	c-0.21-0.14-0.31-0.39-0.51-0.52c-0.22-0.14-0.38-0.33-0.57-0.5c-0.13-0.11-0.26-0.22-0.38-0.34c-0.12-0.12-0.21-0.26-0.37-0.34
	c-0.1-0.05-0.16-0.19-0.24-0.29c-0.08-0.1-0.15-0.23-0.26-0.28c-0.26-0.12-0.43-0.33-0.53-0.56c-0.1-0.24-0.33-0.33-0.47-0.54
	c-0.25-0.37-0.52-0.73-0.84-1.05c-0.06-0.06-0.09-0.13-0.14-0.2c-0.16-0.26-0.3-0.53-0.53-0.74c-0.06-0.05-0.15-0.13-0.15-0.2
	c0-0.21-0.15-0.34-0.26-0.46c-0.16-0.19-0.31-0.39-0.41-0.62c-0.11-0.23-0.31-0.41-0.37-0.68c-0.03-0.13-0.15-0.24-0.16-0.37
	c-0.03-0.32-0.1-0.64-0.1-0.97c0-0.6,0.05-1.2,0.12-1.8c0.11-0.07,0.28-0.06,0.35-0.27c-0.16-0.01-0.3-0.01-0.43-0.02
	c-0.08,0-0.18,0.02-0.25-0.02c-0.16-0.1-0.34-0.1-0.49-0.17c-0.19-0.09-0.39,0.01-0.52-0.08c-0.15-0.11-0.33,0-0.44-0.09
	c-0.16-0.13-0.33-0.06-0.49-0.07c-0.37-0.01-0.72-0.12-1.08-0.2c-0.06-0.02-0.12-0.05-0.19-0.06c-0.22-0.03-0.45-0.02-0.65-0.1
	c-0.22-0.09-0.46-0.14-0.67-0.25c-0.27,0.09-0.45-0.21-0.7-0.18c-0.1-0.18-0.31-0.02-0.45-0.17c-0.11-0.12-0.31-0.15-0.46-0.23
	c-0.26-0.14-0.55-0.25-0.76-0.44c-0.24-0.22-0.57-0.3-0.76-0.58c-0.03-0.04-0.1-0.04-0.14-0.07c-0.13-0.1-0.27-0.19-0.39-0.3
	c-0.34-0.33-0.67-0.68-1.01-1.02c-0.06-0.06-0.14-0.11-0.18-0.19c-0.26-0.48-0.65-0.86-0.96-1.3c-0.24-0.35-0.55-0.65-0.71-1.06
	c-0.03-0.07-0.13-0.12-0.25-0.23c0,0.15-0.03,0.24,0.01,0.29c0.1,0.14,0.17,0.28,0.17,0.45c0.2,0.1,0.14,0.32,0.21,0.48
	c0.18,0.38,0.34,0.76,0.52,1.14c0.16,0.34,0.32,0.69,0.54,1c0.22,0.31,0.31,0.71,0.61,0.97c0.17,0.45,0.49,0.78,0.82,1.1
	c0.2,0.19,0.35,0.45,0.63,0.56c0.16,0.4,0.54,0.52,0.87,0.71c0.23,0.13,0.48,0.22,0.73,0.32c0.3,0.12,0.58,0.31,0.93,0.26
	c0.04-0.01,0.09,0,0.12,0.02c0.29,0.18,0.61,0.16,0.93,0.16c0.4,0,0.8,0,1.2,0c0.16,0,0.32,0.02,0.47-0.01
	c0.13-0.02,0.25-0.1,0.37-0.14c0.04-0.01,0.08-0.03,0.12-0.03c0.55,0,1.11,0,1.7,0c-0.03,0.15-0.06,0.25-0.08,0.36
	c-0.03,0.23-0.14,0.45-0.12,0.69c0.02,0.35,0,0.7,0.01,1.05c0,0.08,0,0.17,0.03,0.25c0.13,0.31,0.22,0.64,0.39,0.93
	c0.23,0.41,0.44,0.84,0.64,1.26c0.14,0.29,0.26,0.59,0.4,0.88c0.11,0.23,0.24,0.46,0.36,0.68c0.14,0.24,0.28,0.47,0.43,0.7
	c0.19,0.29,0.37,0.58,0.58,0.85c0.33,0.4,0.59,0.84,0.92,1.24c0.37,0.43,0.67,0.93,1.08,1.33c0.1,0.1,0.22,0.19,0.3,0.31
	c0.27,0.41,0.62,0.76,0.95,1.12c0.26,0.28,0.53,0.54,0.83,0.79c0.42,0.34,0.81,0.73,1.24,1.07c0.37,0.29,0.73,0.58,1.12,0.84
	c0.61,0.4,1.19,0.84,1.85,1.16c0.25,0.12,0.49,0.29,0.71,0.46c0.23,0.17,0.51,0.25,0.74,0.41c0.23,0.17,0.5,0.27,0.73,0.43
	c0.3,0.2,0.6,0.4,0.93,0.56c0.16,0.08,0.28,0.26,0.47,0.33c0.18,0.06,0.29,0.24,0.45,0.35c0.36,0.25,0.7,0.54,1.06,0.78
	c0.14,0.09,0.14,0.27,0.29,0.32c0.21,0.07,0.34,0.25,0.48,0.41c0.27,0.32,0.53,0.65,0.79,0.98c0.32,0.41,0.62,0.84,0.87,1.3
	C78.58,74.07,78.67,74.12,78.89,74.08z M53.36,18.37c0.23-0.17,0.47-0.34,0.69-0.52c0.13-0.1,0.25-0.3,0.38-0.32
	c0.22-0.02,0.3-0.2,0.44-0.29c0.34-0.21,0.65-0.47,0.94-0.75c0.31-0.29,0.6-0.6,0.86-0.94c0.27-0.35,0.54-0.68,0.68-1.12
	c0.12-0.37,0.29-0.71,0.25-1.12c-0.01-0.14-0.01-0.29,0-0.44c0.01-0.26-0.09-0.49-0.22-0.69c-0.22-0.34-0.49-0.64-0.83-0.87
	c-0.2-0.13-0.41-0.22-0.62-0.26c-0.29-0.06-0.57,0.03-0.84,0.14c-0.33,0.14-0.62,0.35-0.86,0.62c-0.07,0.08-0.14,0.17-0.18,0.27
	c-0.11,0.24-0.3,0.39-0.48,0.55c-0.14-0.1-0.26-0.16-0.35-0.26c-0.11-0.13-0.18-0.31-0.29-0.44c-0.13-0.14-0.31-0.24-0.44-0.38
	c-0.17-0.17-0.37-0.27-0.59-0.34c-0.15-0.05-0.32-0.06-0.47-0.12c-0.16-0.07-0.3-0.05-0.47,0c-0.39,0.12-0.74,0.28-0.92,0.68
	c-0.01,0.02-0.04,0.04-0.06,0.05c-0.29,0.09-0.26,0.39-0.37,0.59c-0.04,0.07-0.03,0.17-0.08,0.22c-0.08,0.08-0.09,0.17-0.09,0.27
	c0,0.31,0,0.61,0,0.92c0,0.07,0.02,0.15,0.06,0.19c0.14,0.15,0.15,0.35,0.2,0.53c0.04,0.13,0.09,0.26,0.16,0.37
	c0.1,0.15,0.21,0.3,0.33,0.43c0.18,0.2,0.38,0.39,0.57,0.59c0.19,0.2,0.4,0.38,0.57,0.59c0.17,0.2,0.36,0.39,0.56,0.53
	c0.27,0.2,0.46,0.46,0.71,0.67C52.86,17.94,53.1,18.15,53.36,18.37z M64.52,30.47c-0.03-0.11-0.05-0.19-0.08-0.26
	c-0.3-0.62-0.8-1.06-1.31-1.48c-0.12-0.1-0.26-0.18-0.34-0.31c-0.11-0.16-0.31-0.09-0.43-0.24c-0.21-0.26-0.53-0.3-0.8-0.22
	c-0.21,0.06-0.41,0.06-0.61,0.07c-0.2,0.01-0.4-0.01-0.6,0c-0.28,0.02-0.47,0.22-0.5,0.51c-0.02,0.18,0.05,0.32,0.14,0.46
	c0.26,0,0.52,0,0.78,0c0.26,0,0.52,0.01,0.78,0.07c0.17,0.04,0.35,0.12,0.52,0.09c0.23-0.03,0.34,0.17,0.52,0.22
	c0.29,0.08,0.51,0.26,0.71,0.47c0.22,0.24,0.52,0.35,0.77,0.55C64.18,30.49,64.32,30.5,64.52,30.47z M61.2,52.81
	c0.4,0.03,0.73-0.06,1.06-0.21c0.3-0.13,0.49-0.36,0.7-0.61c0.32-0.39,0.45-0.84,0.5-1.32c0.03-0.29,0.02-0.59-0.07-0.88
	c-0.1-0.35-0.25-0.67-0.45-0.95c-0.18-0.26-0.43-0.47-0.66-0.68c-0.14-0.13-0.32-0.21-0.53-0.25c-0.01,0.22,0.15,0.27,0.24,0.37
	c0.29,0.33,0.56,0.68,0.66,1.12c0.05,0.21,0.15,0.42,0.13,0.64c0.24,0.37-0.03,0.73-0.03,1.09c-0.24,0.5-0.5,0.99-1,1.28
	c-0.15,0.09-0.31,0.14-0.47,0.23C61.24,52.66,61.23,52.73,61.2,52.81z M66.88,56.14c-0.5,0.48-0.92,0.91-1.27,1.41
	c-0.22,0.3-0.36,0.63-0.49,0.98c-0.11,0.3-0.23,0.59-0.2,0.92c0.01,0.13,0.01,0.26,0,0.39c-0.02,0.19,0.03,0.36,0.12,0.5
	c0.08,0,0.15,0,0.2,0c0.05-0.18,0.05-0.37,0.14-0.48c0.17-0.2,0.2-0.45,0.31-0.66c0.11-0.23,0.19-0.48,0.26-0.72
	c0.15-0.48,0.33-0.94,0.63-1.35c0.13-0.17,0.22-0.37,0.3-0.57C66.92,56.46,66.88,56.34,66.88,56.14z M63.37,31.47
	c-0.32-0.05-0.61-0.26-0.95-0.21c-0.04,0.01-0.09-0.05-0.13-0.09c-0.27-0.3-0.62-0.56-0.92-0.67c-0.1-0.04-0.17-0.03-0.26,0.05
	c-0.19,0.16-0.28,0.35-0.21,0.6c0.18,0.17,0.33,0.38,0.58,0.47c0.04,0.01,0.09,0.03,0.1,0.05c0.06,0.31,0.34,0.25,0.46,0.19
	c0.16-0.08,0.3-0.06,0.44-0.07c0.27-0.01,0.54,0,0.81,0c0.02,0,0.05-0.02,0.08-0.03C63.37,31.67,63.37,31.57,63.37,31.47z
	 M53.01,38.37c0.22,0.37,0.46,0.64,0.84,0.69c0.19,0.02,0.35,0.16,0.56,0.09c0.5-0.17,0.83-0.48,0.99-1.05
	c-0.27,0.07-0.52,0.1-0.75,0.2c-0.26,0.11-0.52,0.07-0.78,0.08C53.59,38.37,53.33,38.37,53.01,38.37z M49.4,35.16
	c0.1,0.06,0.17,0.12,0.26,0.14c0.29,0.05,0.52-0.09,0.75-0.24c0.1-0.06,0.79-0.36,0.88-0.37c0.27-0.04,0.54-0.08,0.84-0.12
	c-0.13-0.09-0.19-0.19-0.34-0.24c-0.36-0.13-0.72-0.07-1.08-0.07c-0.12,0-0.25,0.09-0.36,0.16c-0.3,0.21-0.57,0.46-0.89,0.64
	C49.46,35.07,49.45,35.08,49.4,35.16z"/>
<g>
	<path class="st1" d="M41.9,102.3c14.19,2.39,27.97-1.58,38.56-9.85c-10.21,7.01-22.96,10.22-36.06,8.01
		C17.1,95.88-1.38,69.58,3.12,41.72c2.16-13.37,9.23-24.66,19.01-32.29C11.05,17.02,2.95,29.07,0.62,43.55
		C-3.88,71.41,14.6,97.71,41.9,102.3z"/>
</g>
<g>
	<path class="st2" d="M52.62,0C66.4,0.22,78.44,5.22,88.22,15.4c9.6,10,14.38,22.18,14.22,36.13c-0.16,14.06-5.28,26.18-15.22,35.99
		c-9.82,9.69-21.74,14.52-35.4,14.35c-13.88-0.17-25.83-5.43-35.48-15.63C6.91,76.26,2.21,64.17,2.38,50.34
		c0.17-13.92,5.21-25.95,14.99-35.72C27.06,4.94,38.85,0.2,52.62,0z M56.25,65.75C56.25,65.75,56.24,65.75,56.25,65.75
		c0.01-0.02,0.03-0.05,0.06-0.08c0.32-0.57,0.59-1.15,0.55-1.85c-0.06-1.16-1.05-2.25-2.18-2.36c-0.15-0.04-0.3-0.12-0.44-0.12
		c-0.33,0.02-0.67,0.1-1,0.11c-0.57,0.01-0.97,0.41-1.25,0.77c-0.57,0.74-0.89,1.6-0.61,2.61c0.2,0.74,0.59,1.34,1.2,1.7
		c0.61,0.35,1.34,0.46,2.04,0.3c0.61-0.14,1.16-0.42,1.51-1l0.03,0l0.01-0.03C56.19,65.79,56.22,65.77,56.25,65.75z M56.76,52.41
		c0.07-0.03,0.15-0.06,0.22-0.09c1.21-0.7,1.69-1.92,1.25-3.17c-0.29-0.83-1.38-1.73-2.09-1.73c-0.2-0.08-0.39-0.22-0.6-0.23
		c-0.26-0.01-0.52,0.08-0.78,0.13c-0.95,0.17-1.6,0.78-1.88,1.65c-0.54,1.68,0.18,2.98,1.67,3.7c0.2,0.1,0.47,0.04,0.71,0.08
		C55.82,52.83,56.34,52.83,56.76,52.41L56.76,52.41z M55.3,36.6c0.04-0.03,0.07-0.06,0.11-0.1c1.01-0.6,1.51-1.78,1.23-2.88
		c-0.29-1.12-1.25-1.85-2.46-1.88c-0.45-0.26-0.89-0.07-1.34,0.01c-0.97,0.16-1.47,0.91-1.85,1.68c-0.25,0.51-0.24,1.15-0.06,1.77
		c0.19,0.63,0.57,1.08,1.02,1.5c0.47,0.44,1.11,0.54,1.68,0.56C54.22,37.29,54.83,37.04,55.3,36.6L55.3,36.6z M71.52,68.73
		c-0.18-0.09-0.36-0.23-0.55-0.25c-0.77-0.07-1.53,0.09-2.12,0.58c-0.86,0.71-1.22,1.66-0.97,2.8c0.18,0.83,0.56,1.48,1.34,1.86
		c0.99,0.47,1.94,0.56,2.86-0.16c1.11-0.58,1.64-1.47,1.52-2.77C73.51,69.87,72.52,68.78,71.52,68.73z M48.51,59.6
		c-0.6-0.3-1.23-0.36-1.83-0.07c-0.48,0.23-0.99,0.52-1.31,0.93c-0.57,0.73-0.75,1.57-0.47,2.55c0.21,0.73,0.62,1.23,1.21,1.58
		c0.31,0.19,0.72,0.19,1.07,0.32c0.57,0.22,1.34,0.07,1.75-0.39c0.27-0.16,0.55-0.29,0.8-0.48c0.76-0.58,1.1-1.66,0.85-2.59
		C50.33,60.46,49.49,59.72,48.51,59.6z M63.44,49.77c0.16-0.1,0.32-0.19,0.48-0.29c1-0.68,1.39-1.91,0.94-3.03
		c-0.3-0.75-0.88-1.2-1.59-1.5c-0.18-0.1-0.35-0.24-0.54-0.29c-0.79-0.2-1.51-0.05-2.22,0.36c-0.97,0.56-1.58,2.18-1.11,3.36
		c0.49,1.23,1.54,1.95,2.89,1.81C62.68,50.15,63.05,49.91,63.44,49.77z M69.28,66.72c-0.29,0.07-0.57,0.13-0.86,0.2
		c-0.36,0.1-0.72,0.27-1.08,0.3c-0.91,0.07-1.82,0.09-2.74,0.11c-0.89,0.02-1.74-0.19-2.53-0.61c-0.55-0.29-1.06-0.67-1.6-1.02
		c-0.05,0.09-0.1,0.18-0.17,0.28c-0.41,0.62-0.74,1.32-1.24,1.84c-0.9,0.94-2.02,1.51-3.31,1.8c-1.15,0.26-2.11-0.06-3.01-0.72
		c-0.4-0.29-0.76-0.63-1.16-0.96c-0.19,0.18-0.37,0.4-0.6,0.53c-0.53,0.3-1.08,0.57-1.64,0.82c-0.89,0.39-1.78,0.76-2.68,1.09
		c-0.7,0.25-1.43,0.6-2.14,0.59c-1.33,0-2.69,0.24-3.99-0.28c-0.44-0.18-0.91-0.27-1.32-0.49c-0.94-0.52-1.85-1.09-2.81-1.66
		c-0.26,0.22-0.59,0.5-1.01,0.86c0.89,0.54,1.61,1.02,2.37,1.41c0.7,0.36,1.44,0.66,2.18,0.94c0.78,0.3,1.61,0.43,2.44,0.42
		c0.58-0.01,1.16-0.14,1.73-0.26c0.73-0.15,1.47-0.32,2.18-0.54c0.82-0.25,1.65-0.52,2.43-0.89c0.79-0.37,1.53-0.86,2.29-1.3
		c0.21-0.12,0.41-0.27,0.64-0.03c0.53,0.54,1.13,0.95,1.82,1.26c1.16,0.51,2.33,0.5,3.49,0.08c0.97-0.35,1.76-0.97,2.32-1.87
		c0.3-0.48,0.61-0.96,0.92-1.44c0.02,0.01,0.06,0.02,0.09,0.05c1.03,0.73,2.17,1.12,3.41,1.18c0.63,0.03,1.27,0.03,1.9,0
		c0.41-0.02,0.85-0.06,1.22-0.23c0.8-0.36,1.57-0.8,2.34-1.22C69.24,66.9,69.24,66.79,69.28,66.72c0-0.02,0.01-0.02,0.02-0.03
		C69.29,66.7,69.28,66.71,69.28,66.72z M42.21,55.03c-0.03-0.03-0.05-0.09-0.08-0.1c-0.77-0.03-1.51-0.12-2.23,0.37
		c-0.84,0.58-1.14,1.42-1.33,2.34c-0.01,0.06,0.01,0.14,0.03,0.21c0.16,0.48,0.32,0.97,0.52,1.55c-0.62-0.06-1.17-0.15-1.72-0.17
		c-0.98-0.03-1.94-0.11-2.91-0.28c-0.88-0.16-1.76-0.3-2.6-0.61c-0.68-0.25-1.34-0.6-1.81-1.28c0.69-0.4,1.36-0.77,2.02-1.16
		c0.96-0.57,1.93-1.12,2.86-1.73c0.83-0.55,1.62-1.17,2.44-1.74c0.13-0.09,0.38-0.1,0.53-0.03c0.46,0.21,0.88,0.55,1.36,0.7
		c0.83,0.25,1.7,0.39,2.55,0.59c0.84,0.2,1.66,0.08,2.48-0.12c0.32-0.08,0.64-0.11,0.85-0.14c0.32,0.8,0.56,1.51,0.89,2.16
		c0.22,0.43,0.51,0.85,0.87,1.16c0.42,0.35,0.93,0.58,1.42,0.84c1,0.53,2.05,0.6,3.11,0.24c0.6-0.2,1.17-0.5,1.75-0.76
		c0.25-0.11,0.41-0.11,0.54,0.18c0.09,0.2,0.22,0.39,0.37,0.56c0.85,0.98,1.88,1.74,2.94,2.46c1.03,0.69,2.06,1.4,3.26,1.74
		c0.75,0.22,1.52,0.41,2.29,0.48c1.17,0.11,2.34,0,3.47-0.41c0.65-0.24,1.32-0.41,1.97-0.67c0.64-0.25,0.63-0.28,0.31-0.9
		c-0.04-0.08-0.08-0.16-0.09-0.24c-0.04-0.29-0.24-0.28-0.42-0.21c-0.5,0.19-0.98,0.47-1.5,0.62c-0.74,0.21-1.5,0.4-2.26,0.49
		c-0.64,0.08-1.3,0.08-1.95,0.02c-0.45-0.04-0.93,0-1.35-0.13c-1.11-0.35-2.18-0.83-3.14-1.49c-0.79-0.55-1.56-1.13-2.3-1.76
		c-0.61-0.52-1.16-1.11-1.73-1.67c-0.52,0.17-1.13,0.39-1.76,0.58c-1.06,0.32-2.11,0.26-3.16-0.07c-0.98-0.31-1.66-1.01-2.15-1.85
		c-0.56-0.96-0.96-2.01-1.43-3.03c-2.31,1.28-5.01,0.84-6.82-0.16c0.28-0.23,0.6-0.4,0.78-0.65c0.51-0.73,1.42-1.04,1.81-1.88
		c0.11-0.23,0.32-0.43,0.52-0.6c0.13-0.11,0.33-0.22,0.5-0.21c0.76,0.01,1.51,0.07,2.27,0.1c0.91,0.03,1.81-0.16,2.62-0.56
		c0.94-0.46,1.85-1.01,2.72-1.6c0.45-0.31,0.85-0.75,1.17-1.21c0.21-0.31,0.27-0.23,0.54-0.1c0.6,0.32,1.22,0.64,1.87,0.8
		c1.07,0.27,2.17,0.26,3.2-0.22c0.56-0.27,1.13-0.56,1.61-0.96c0.65-0.54,1.08-1.28,1.4-2.07c0.13-0.32,0.3-0.44,0.64-0.24
		c0.8,0.48,1.62,0.29,2.42-0.01c0.09-0.04,0.16-0.16,0.24-0.24c-1.25,0.03-2.27-0.46-3.27-1.18c-0.15,0.33-0.26,0.6-0.39,0.86
		c-0.22,0.44-0.37,0.98-0.71,1.3c-0.61,0.59-1.29,1.11-2.01,1.55c-0.85,0.52-1.84,0.52-2.8,0.43c-0.43-0.04-0.86-0.23-1.26-0.42
		c-0.48-0.23-0.93-0.52-1.43-0.8c-0.86,1.42-2.22,2.25-3.66,2.87c-1.46,0.62-3,0.94-4.72,0.69c2.34-3.49,4.23-7.18,6.04-11.01
		c-0.7,0-1.28,0.02-1.85,0c-0.57-0.02-1.14-0.08-1.7-0.12c-0.13-0.01-0.26,0.04-0.38,0.02c-0.58-0.09-1.15-0.22-1.74-0.3
		c-0.65-0.1-1.26-0.34-1.76-0.76c-0.14-0.12-0.17-0.48-0.11-0.69c0.04-0.16,0.31-0.25,0.47-0.38c0.64-0.51,1.32-0.97,1.92-1.53
		c0.71-0.66,1.36-1.4,2.04-2.11c0.18-0.19,0.35-0.4,0.6-0.7c0.01,0.25,0.04,0.38,0.03,0.5c-0.09,1.09,0.63,2.05,1.68,2.48
		c0.6,0.25,1.24,0.28,1.88,0.09c0.17-0.06,0.35-0.11,0.52-0.18c1.09-0.44,1.72-1.34,1.71-2.42c-0.01-1.02-0.8-2.11-1.8-2.5
		c-0.07-0.08-0.14-0.16-0.21-0.24c0.08-0.06,0.16-0.13,0.26-0.17c0.48-0.23,0.96-0.45,1.5-0.71c0.24,0.4,0.52,0.83,0.77,1.28
		c0.51,0.9,1.23,1.52,2.26,1.69c0.49,0.08,0.99,0.05,1.49,0.11c0.73,0.09,1.37-0.21,1.99-0.52c0.47-0.23,0.91-0.55,1.36-0.83
		c0.87,1.37,1.76,2.37,3.42,2.02c0-0.23,0-0.46,0-0.74c-1.47-0.28-2.8-0.85-3.62-2.15c-0.58,0.29-1.12,0.63-1.71,0.83
		c-0.63,0.22-1.3,0.44-1.96,0.46c-1.41,0.04-2.36-0.84-3.13-1.93c-0.31-0.43-0.52-0.94-0.77-1.41c-2.47,1.41-2.76,1.53-3.24,1.31
		c0.17-0.28,0.32-0.57,0.5-0.84c0.38-0.59,0.8-1.15,1.15-1.75c0.35-0.6,0.67-1.23,0.96-1.87c0.39-0.86,0.8-1.73,1.09-2.62
		c0.22-0.68,0.28-1.42,0.4-2.13c0.15-0.86,0.29-1.72,0.44-2.57c0.02-0.13,0.09-0.26,0.16-0.44c0.2,0.41,0.34,0.73,0.5,1.02
		c0.39,0.71,0.78,1.42,1.2,2.11c0.57,0.94,1.15,1.88,1.78,2.78c0.51,0.73,1.09,1.41,1.66,2.1c0.64,0.78,1.27,1.57,1.96,2.29
		c0.87,0.9,1.8,1.73,2.7,2.59c0.1,0.1,0.18,0.23,0.3,0.31c0.54,0.42,1.08,0.83,1.63,1.23c0.55,0.41,1.1,0.82,1.68,1.19
		c0.48,0.31,0.66,0.72,0.34,1.07c-0.21,0.24-0.48,0.45-0.77,0.57c-0.79,0.31-1.6,0.57-2.41,0.82c-0.84,0.27-1.71,0.41-2.59,0.41
		c-0.79,0-1.58,0-2.37,0c-0.12,0-0.24,0.02-0.37,0.03c0.17,0.35,0.29,0.66,0.46,0.95c0.51,0.88,1.04,1.76,1.57,2.63
		c0.59,0.97,1.19,1.94,1.8,2.9c0.55,0.87,1.08,1.75,1.69,2.57c0.79,1.07,1.62,2.12,2.51,3.09c0.75,0.82,1.6,1.55,2.45,2.26
		c0.58,0.48,1.23,0.88,1.85,1.31c0.65,0.45,1.27,0.96,1.97,1.32c1.24,0.64,2.43,1.41,3.8,1.8c0.55,0.16,1.08,0.43,1.69,0.67
		c-0.4,0.32-0.77,0.75-1.24,0.99c-1.16,0.59-2.3,1.24-3.62,1.5c-0.91,0.18-1.83,0.28-2.75,0.35c-0.73,0.05-1.47,0.01-2.21,0.01
		c0.47,0.41,1,0.57,1.58,0.64c0.91,0.12,1.8,0.35,2.71,0.39c0.94,0.04,1.88-0.08,2.82-0.13c0.15-0.01,0.31-0.04,0.46-0.07
		c0.84-0.19,1.63-0.5,2.34-0.99c0.73-0.51,1.44-1.07,1.85-1.87c0.34-0.66,0.53-1.4,0.76-2.11c0.03-0.08-0.11-0.28-0.21-0.32
		c-0.34-0.13-0.71-0.17-1.05-0.3c-0.88-0.35-1.77-0.69-2.63-1.1c-0.8-0.38-1.56-0.82-2.33-1.26c-0.59-0.34-1.16-0.7-1.73-1.07
		c-0.69-0.45-1.36-0.91-2.03-1.39c-0.69-0.48-1.4-0.95-2.04-1.48c-0.53-0.44-0.98-0.98-1.46-1.48c-1.34-1.35-2.69-2.7-3.77-4.28
		c-0.69-1.01-1.37-2.03-2.02-3.06c-0.28-0.43-0.49-0.91-0.77-1.42c0.22-0.02,0.35-0.03,0.47-0.03c1.65-0.04,3.31,0.13,4.93-0.42
		c1.02-0.34,1.98-0.73,2.77-1.47c0.68-0.63,1.31-1.31,1.73-2.21c-0.65-0.26-1.31-0.45-1.9-0.77c-1.02-0.55-2.02-1.17-3-1.8
		c-0.58-0.37-1.11-0.82-1.66-1.24c-0.86-0.66-1.75-1.29-2.55-2.02c-0.89-0.81-1.71-1.71-2.53-2.6c-0.64-0.69-1.25-1.41-1.82-2.15
		c-0.66-0.86-1.27-1.77-1.91-2.65c-1.02-1.39-1.67-2.97-2.34-4.54c-0.04-0.1-0.02-0.23-0.04-0.34c1.26,1.62,3.03,1.94,4.96,2.19
		c-0.99-1.28-1.92-2.48-2.9-3.74c1.24-0.19,2.16-0.71,2.96-1.56c-0.75-0.13-1.49-0.23-2.21-0.41c-0.73-0.18-1.59,0-2.05-0.91
		c-0.37-0.73-0.86-1.39-1.27-2.03c0.02,0.17-0.03,0.45,0.07,0.66c0.33,0.71,0.69,1.39,1.06,2.07c0.07,0.12,0.23,0.25,0.37,0.27
		c0.66,0.12,1.34,0.19,2,0.3c0.24,0.04,0.48,0.1,0.78,0.17C56.53,8.91,56.5,9,56.43,9.03c-0.59,0.31-1.17,0.66-1.79,0.9
		c-0.34,0.13-0.26,0.25-0.11,0.42c0.33,0.39,0.69,0.76,1.02,1.15c0.35,0.41,0.7,0.82,1.04,1.25c0.08,0.11,0.12,0.25,0.2,0.41
		c-0.67-0.21-2.41-0.94-4.26-2.59c-0.22,0.24-0.44,0.49-0.67,0.72c-0.49,0.48-0.99,0.95-1.48,1.42l0,0.01
		c-0.01-0.04-0.03-0.08-0.03-0.11c0.05-0.88,0.11-1.76,0.16-2.59c-1.02-0.44-1.96-0.85-2.91-1.26c0.64-0.24,1.25-0.38,1.85-0.56
		c0.38-0.11,0.83-0.1,1.07-0.52c0.11-0.18,0.21-0.37,0.3-0.57c0.31-0.66,0.61-1.31,0.9-1.98c0.06-0.14,0.01-0.32,0.01-0.48
		c-0.03-0.01-0.07-0.03-0.1-0.04c-0.5,0.77-0.98,1.55-1.51,2.3c-0.17,0.25-0.42,0.48-0.68,0.61c-0.31,0.16-0.68,0.22-1.03,0.31
		c-0.78,0.19-1.57,0.37-2.35,0.57c-0.11,0.03-0.21,0.09-0.32,0.13c-0.01,0.06-0.02,0.11-0.03,0.17c1.36,0.72,2.72,1.43,4.11,2.17
		c-0.37,1.31-0.75,2.68-1.14,4.07c1.61-0.64,2.59-2.02,3.77-3.3c0,0.18,0.01,0.24,0,0.29c-0.23,0.74-0.48,1.48-0.7,2.23
		c-0.19,0.63-0.33,1.28-0.52,1.91c-0.18,0.58-0.39,1.15-0.58,1.73c-0.26,0.8-0.43,1.65-0.78,2.4c-0.53,1.12-1.2,2.16-1.79,3.25
		c-0.92,1.71-1.94,3.36-3.15,4.86c-0.72,0.9-1.54,1.74-2.42,2.47c-0.89,0.74-1.88,1.38-2.9,1.93c-0.75,0.41-1.61,0.62-2.43,0.91
		c-0.44,0.16-0.89,0.31-1.38,0.47c0.38,0.51,0.64,1,1.03,1.35c0.6,0.53,1.27,0.99,1.95,1.42c0.33,0.21,0.73,0.34,1.11,0.43
		c0.61,0.14,1.24,0.28,1.86,0.31c0.96,0.06,1.93,0.04,2.89,0.02c0.38,0,0.77-0.08,1.21-0.12c-0.28,0.66-0.54,1.28-0.8,1.9
		c-0.37,0.89-0.69,1.8-1.12,2.66c-0.78,1.55-1.98,2.8-3.01,4.17c-0.59,0.78-1.29,1.48-1.99,2.17c-1,0.99-2,1.98-3.09,2.87
		C34.97,52,33.99,52.61,33,53.17c-0.99,0.57-2.03,1.06-3.09,1.5c-0.83,0.34-1.71,0.57-2.59,0.79c-0.33,0.08-0.45,0.21-0.4,0.52
		c0.15,0.99,0.49,1.89,1.16,2.64c0.66,0.74,1.53,1.14,2.43,1.44c1.02,0.34,2.07,0.52,3.15,0.51c0.96-0.01,1.93,0,2.89,0
		c0.38,0,0.76,0,1.27,0c-0.28,0.38-0.5,0.67-0.72,0.96c-0.36,0.47-0.71,0.96-1.1,1.4c-0.4,0.45-0.85,0.86-1.28,1.28
		c-0.9,0.87-1.8,1.75-2.72,2.61c-0.61,0.57-1.23,1.13-1.88,1.66c-0.79,0.65-1.6,1.28-2.43,1.89c-1.05,0.78-2.12,1.54-3.21,2.26
		c-0.37,0.24-0.3,0.44-0.1,0.69c0.26,0.33,0.55,0.65,0.83,0.96c0.11,0.13,0.21,0.29,0.35,0.38c0.63,0.41,1.25,0.85,1.91,1.2
		c0.68,0.36,1.4,0.69,2.13,0.94c0.86,0.29,1.75,0.53,2.65,0.69c0.88,0.16,1.79,0.27,2.68,0.28c1.58,0.01,3.16-0.08,4.74-0.14
		c0.4-0.01,0.8-0.05,1.18-0.14c0.79-0.17,1.58-0.35,2.36-0.59c0.97-0.3,1.92-0.67,2.87-1.02c0.38-0.14,0.67-0.22,1.05,0.15
		c0.52,0.51,1.15,0.93,1.77,1.32c0.57,0.36,1.19,0.65,1.8,0.97c0.25,0.13,0.42,0.27,0.4,0.62c-0.03,0.86-0.07,1.73,0,2.59
		c0.09,0.97-0.23,1.85-0.5,2.73c-0.27,0.88-0.66,1.71-0.98,2.57c-0.08,0.21-0.15,0.47-0.09,0.66c0.17,0.46,0.42,0.89,0.65,1.36
		c0.07-0.08,0.14-0.12,0.17-0.19c0.37-0.84,0.73-1.69,1.09-2.53c0.57-1.34,0.96-2.72,0.96-4.21c0-0.35,0.09-0.71,0.08-1.06
		c0-0.45-0.07-0.89-0.09-1.34c-0.01-0.28,0.05-0.4,0.38-0.24c0.38,0.17,0.8,0.27,1.21,0.34c0.7,0.12,1.41,0.21,2.12,0.31
		c0.02,0,0.04,0.03,0.06,0.05c-0.09,0.51-0.24,1.01-0.24,1.51c0.01,1.85,0.12,3.7,0.09,5.54c-0.01,0.59-0.36,1.18-0.58,1.86
		c-0.56-0.75-1.16-1.25-1.89-1.58c-0.44-0.2-0.88-0.33-1.27,0.07c-0.28,0.29-0.54,0.62-0.76,0.96c-0.36,0.54-0.65,1.13-1.02,1.65
		c-0.24,0.33-0.78,0.27-0.94-0.07c-0.17-0.36-0.28-0.75-0.44-1.11c-0.28-0.63-0.54-1.28-0.91-1.85c-0.15-0.23-0.61-0.45-0.85-0.38
		c-0.59,0.18-1.17,0.46-1.68,0.81c-0.83,0.58-1.6,1.26-2.41,1.88c-0.82,0.62-1.65,1.23-2.49,1.83c-1.46,1.04-3.03,1.79-4.85,1.88
		c-0.12,0.01-0.24,0.09-0.36,0.13c0,0.04,0.01,0.08,0.01,0.12c0.21,0.04,0.43,0.05,0.63,0.13c0.97,0.34,1.96,0.58,3,0.52
		c0.51-0.03,1.06,0.01,1.5-0.19c1.27-0.55,2.35-1.4,3.25-2.48c0.46-0.54,0.87-1.13,1.37-1.63c0.52-0.52,1.12-0.97,1.68-1.44
		c0.49-0.41,1.26-0.34,1.48,0.15c0.28,0.62,0.54,1.25,0.82,1.87c0.21,0.49,0.55,0.91,1.08,0.94c0.59,0.03,1.12-0.14,1.52-0.72
		c0.39-0.57,0.65-1.19,0.94-1.8c0.13-0.28,0.33-0.45,0.68-0.42c0.72,0.05,1.09,0.59,1.52,1.07c0.22,0.24,0.42,0.5,0.66,0.79
		c0.13-0.2,0.23-0.32,0.3-0.46c0.27-0.53,0.53-1.06,0.8-1.59c0.39-0.77,0.99-1.16,1.86-1.05c0.43,0.05,1.17,0.56,1.22,0.89
		c0.17,1.12,0.75,2.02,1.69,2.56c0.82,0.46,1.74,0.75,2.64,1.03c0.62,0.19,1.3,0.21,2.01,0.32c-0.05,0.15-0.07,0.31-0.14,0.43
		c-0.13,0.23-0.3,0.45-0.44,0.67c-0.57,0.93-1.29,1.64-2.35,2c-0.72,0.25-1.22-0.09-1.75-0.44c-0.64-0.43-1.28-0.86-1.92-1.29
		c-0.3-0.2-0.55,0-0.68,0.21c-0.71,1.13-1.59,2.07-2.78,2.66c-0.86,0.43-1.72,0.32-2.51-0.13c-0.54-0.31-0.99-0.8-1.48-1.21
		c-0.28-0.23-0.48-0.44-0.95-0.27c-0.97,0.35-1.98,0.58-2.98,0.82c-0.77,0.18-1.55,0.33-2.33,0.44c-0.26,0.04-0.56-0.06-0.83-0.14
		c-0.39-0.11-0.77-0.26-1.14-0.41c-0.13-0.05-0.24-0.14-0.36-0.21c0.01,0.17,0.06,0.27,0.14,0.34c0.39,0.35,0.74,0.78,1.2,1.01
		c0.76,0.38,1.41,1.04,2.45,0.7c0.67-0.22,1.36-0.42,2.02-0.68c0.75-0.3,1.49-0.66,2.26-0.91c0.22-0.07,0.59,0.05,0.77,0.21
		c0.5,0.44,0.92,0.96,1.4,1.42c0.15,0.15,0.37,0.35,0.55,0.34c0.84-0.05,1.71,0.27,2.5-0.25c0.2-0.13,0.4-0.26,0.57-0.43
		c0.62-0.61,1.26-1.21,1.81-1.88c0.34-0.42,0.73-0.66,1.13-0.4c0.76,0.5,1.52,1.01,2.25,1.55c0.45,0.33,1.19,0.38,1.65,0.04
		c0.28-0.21,0.56-0.42,0.85-0.6c0.74-0.47,1.34-1.07,1.71-1.86c0.31-0.65,0.5-1.36,0.76-2.1c-0.22-0.02-0.35,0-0.47-0.04
		c-0.99-0.28-1.99-0.55-2.97-0.87c-0.92-0.3-1.87-0.53-2.69-1.11c-0.58-0.41-0.97-0.97-1.24-1.59c-0.26-0.61-0.63-1.04-1.2-1.33
		c-0.29-0.15-0.71-0.14-0.8-0.59c-0.1-0.51-0.24-1.01-0.34-1.52c-0.11-0.54-0.14-1.11-0.32-1.63c-0.29-0.86-0.2-1.74-0.23-2.55
		c0.42-0.07,0.79-0.15,1.16-0.19c0.91-0.11,1.83-0.18,2.74-0.29c0.79-0.1,1.6-0.21,2.28-0.69c0.68-0.48,1.37-0.96,2.03-1.48
		c0.29-0.23,0.5-0.56,0.65-0.73c0.72,0.31,1.3,0.59,1.89,0.83c0.78,0.31,1.55,0.64,2.35,0.88c0.51,0.15,1.07,0.15,1.61,0.22
		c0.79,0.1,1.59,0.26,2.38,0.27c1.03,0.02,2.07-0.07,3.1-0.15c0.84-0.06,1.69-0.12,2.51-0.29c1.2-0.26,2.16-1,3.06-1.8
		c0.63-0.57,1.21-1.21,1.82-1.83c-0.01-0.02-0.04-0.09-0.09-0.13c-0.71-0.64-1.45-1.25-2.13-1.92c-0.51-0.5-0.96-1.07-1.45-1.59
		c-1.08-1.15-2.18-2.3-3.27-3.44c-0.81-0.86-1.62-1.72-2.43-2.59c-0.8-0.86-1.61-1.71-2.39-2.59c-0.67-0.75-1.3-1.55-1.97-2.31
		c-0.64-0.73-1.32-1.44-1.97-2.17c-0.59-0.66-1.14-1.35-1.73-2.01c-0.09-0.11-0.28-0.12-0.43-0.18c0.03,0.15,0.02,0.32,0.1,0.44
		c0.2,0.34,0.45,0.65,0.66,0.98c0.58,0.9,1.13,1.82,1.73,2.7c0.63,0.92,1.3,1.81,1.97,2.7c0.75,1.01,1.5,2.02,2.28,3
		c0.72,0.91,1.48,1.79,2.23,2.68c0.12,0.14,0.27,0.27,0.39,0.41c0.71,0.82,1.43,1.64,2.14,2.46c0.45,0.52,0.97,0.94,1.55,1.33
		c0.54,0.36,1.02,0.82,1.57,1.27c-0.91,0.81-1.71,1.69-3.01,2.04c-0.83,0.22-1.69,0.29-2.52,0.51c-0.65,0.17-1.36,0.13-2.04,0.13
		c-0.85,0-1.71-0.03-2.56-0.1c-0.56-0.05-1.13-0.14-1.67-0.29c-0.69-0.19-1.36-0.47-2.05-0.69c-0.91-0.3-1.81-0.64-2.59-1.23
		c-0.06-0.05-0.25-0.01-0.31,0.05c-0.36,0.39-0.65,0.87-1.07,1.17c-0.74,0.53-1.55,0.97-2.34,1.43c-0.94,0.55-1.96,0.76-3.03,0.81
		c-1.52,0.07-3.03-0.04-4.46-0.56c-1.23-0.45-2.41-1.04-3.59-1.6c-0.56-0.26-1.08-0.61-1.62-0.91c-0.65-0.36-1.29-0.73-1.96-1.06
		c-0.37-0.18-0.77-0.35-1.16-0.38c-0.29-0.02-0.59,0.21-0.9,0.31c-0.85,0.29-1.71,0.58-2.57,0.84c-0.46,0.14-0.94,0.19-1.41,0.29
		c-0.65,0.14-1.3,0.31-1.96,0.41c-0.5,0.08-1.02,0.06-1.53,0.13c-0.57,0.08-1.13,0.28-1.7,0.28c-1.23,0-2.46-0.07-3.68-0.14
		c-0.36-0.02-0.73-0.07-1.08-0.16c-0.63-0.16-1.26-0.32-1.87-0.56c-0.54-0.21-1.07-0.48-1.53-0.93c4.85-3.91,9.03-8.35,12.13-13.79
		c1.11,0.67,2.24,0.86,3.36-0.03c0.87-0.39,1.54-1.64,1.4-2.58C44.2,56.01,43.36,55.15,42.21,55.03z"/>
	<path class="st3" d="M49.44,32.73c-0.64,0.19-1.27,0.16-1.88-0.09c-1.05-0.44-1.77-1.39-1.68-2.48c0.01-0.12-0.01-0.25-0.03-0.5
		c-0.26,0.3-0.42,0.51-0.6,0.7c-0.67,0.71-1.32,1.44-2.04,2.11c-0.6,0.56-1.28,1.02-1.92,1.53c-0.16,0.13-0.43,0.22-0.47,0.38
		c-0.06,0.21-0.03,0.58,0.11,0.69c0.5,0.42,1.1,0.66,1.76,0.76c0.58,0.09,1.16,0.21,1.74,0.3c0.12,0.02,0.26-0.02,0.38-0.02
		c0.57,0.04,1.14,0.1,1.7,0.12c0.57,0.02,1.15,0,1.85,0c-1.81,3.83-3.69,7.52-6.04,11.01c1.72,0.25,3.27-0.06,4.72-0.69
		c1.45-0.62,2.8-1.45,3.66-2.87c0.5,0.28,0.95,0.57,1.43,0.8c0.4,0.19,0.83,0.38,1.26,0.42c0.96,0.09,1.95,0.09,2.8-0.43
		c0.72-0.44,1.41-0.96,2.01-1.55c0.34-0.33,0.48-0.86,0.71-1.3c0.13-0.26,0.24-0.53,0.39-0.86c1,0.72,2.02,1.21,3.27,1.18
		c-0.08,0.08-0.14,0.2-0.24,0.24c-0.8,0.31-1.62,0.49-2.42,0.01c-0.34-0.2-0.51-0.08-0.64,0.24c-0.32,0.79-0.75,1.53-1.4,2.07
		c-0.48,0.39-1.05,0.69-1.61,0.96c-1.03,0.49-2.13,0.49-3.2,0.22c-0.65-0.16-1.27-0.49-1.87-0.8c-0.26-0.14-0.33-0.21-0.54,0.1
		c-0.32,0.46-0.71,0.9-1.17,1.21c-0.87,0.59-1.78,1.14-2.72,1.6c-0.81,0.39-1.71,0.58-2.62,0.56c-0.76-0.02-1.51-0.08-2.27-0.1
		c-0.17,0-0.37,0.1-0.5,0.21c-0.2,0.17-0.41,0.37-0.52,0.6c-0.39,0.84-1.3,1.15-1.81,1.88c-0.18,0.26-0.49,0.42-0.78,0.65
		c1.81,1,4.51,1.44,6.82,0.16c0.47,1.01,0.86,2.07,1.43,3.03c0.49,0.83,1.17,1.54,2.15,1.85c1.05,0.33,2.1,0.4,3.16,0.07
		c0.62-0.19,1.24-0.41,1.76-0.58c0.57,0.56,1.12,1.15,1.73,1.67c0.74,0.62,1.51,1.21,2.3,1.76c0.96,0.66,2.03,1.15,3.14,1.49
		c0.42,0.13,0.9,0.09,1.35,0.13c0.65,0.06,1.31,0.06,1.95-0.02c0.76-0.09,1.52-0.28,2.26-0.49c0.51-0.15,0.99-0.42,1.5-0.62
		c0.17-0.07,0.38-0.08,0.42,0.21c0.01,0.08,0.05,0.17,0.09,0.24c0.32,0.62,0.34,0.65-0.31,0.9c-0.64,0.25-1.32,0.43-1.97,0.67
		c-1.13,0.41-2.3,0.52-3.47,0.41c-0.77-0.07-1.54-0.27-2.29-0.48c-1.2-0.35-2.23-1.05-3.26-1.74c-1.06-0.72-2.09-1.48-2.94-2.46
		c-0.15-0.17-0.28-0.36-0.37-0.56c-0.12-0.29-0.29-0.29-0.54-0.18c-0.58,0.27-1.15,0.56-1.75,0.76c-1.06,0.36-2.11,0.29-3.11-0.24
		c-0.49-0.26-1.01-0.49-1.42-0.84c-0.36-0.3-0.66-0.73-0.87-1.16c-0.33-0.66-0.57-1.37-0.89-2.16c-0.21,0.03-0.53,0.06-0.85,0.14
		c-0.82,0.2-1.64,0.32-2.48,0.12c-0.85-0.2-1.71-0.34-2.55-0.59c-0.48-0.15-0.89-0.49-1.36-0.7c-0.15-0.07-0.4-0.05-0.53,0.03
		c-0.82,0.57-1.61,1.19-2.44,1.74c-0.93,0.61-1.9,1.17-2.86,1.73c-0.66,0.39-1.33,0.76-2.02,1.16c0.47,0.68,1.13,1.03,1.81,1.28
		c0.84,0.31,1.72,0.46,2.6,0.61c0.97,0.17,1.93,0.25,2.91,0.28c0.55,0.02,1.1,0.1,1.72,0.17c-0.19-0.58-0.36-1.06-0.52-1.55
		c-0.02-0.07-0.05-0.15-0.03-0.21c0.19-0.93,0.49-1.76,1.33-2.34c0.72-0.49,1.46-0.41,2.23-0.37c0.03,0,0.05,0.06,0.08,0.1
		c-0.1,0-0.2,0.01-0.3,0.01c-1.25,0.03-2.3,1.01-2.39,2.24c-0.1,1.35,0.73,2.5,2.04,2.68c0.46,0.07,0.95-0.07,1.43-0.11
		c-1.12,0.89-2.25,0.7-3.36,0.03c-3.09,5.44-7.28,9.88-12.13,13.79c0.46,0.45,0.98,0.73,1.53,0.93c0.6,0.23,1.24,0.4,1.87,0.56
		c0.35,0.09,0.72,0.14,1.08,0.16c1.23,0.06,2.46,0.14,3.68,0.14c0.57,0,1.13-0.2,1.7-0.28c0.51-0.07,1.03-0.05,1.53-0.13
		c0.66-0.11,1.31-0.28,1.96-0.41c0.47-0.1,0.95-0.16,1.41-0.29c0.86-0.26,1.72-0.55,2.57-0.84c0.3-0.1,0.61-0.33,0.9-0.31
		c0.4,0.03,0.8,0.2,1.16,0.38c0.67,0.33,1.31,0.7,1.96,1.06c0.54,0.3,1.06,0.64,1.62,0.91c1.19,0.56,2.37,1.15,3.59,1.6
		c1.43,0.53,2.94,0.63,4.46,0.56c1.07-0.05,2.09-0.25,3.03-0.81c0.79-0.47,1.6-0.9,2.34-1.43c0.42-0.3,0.71-0.79,1.07-1.17
		c0.06-0.06,0.25-0.1,0.31-0.05c0.78,0.59,1.67,0.93,2.59,1.23c0.68,0.23,1.35,0.5,2.05,0.69c0.54,0.15,1.11,0.24,1.67,0.29
		c0.85,0.07,1.71,0.1,2.56,0.1c0.68,0,1.39,0.04,2.04-0.13c0.83-0.22,1.68-0.29,2.52-0.51c1.3-0.34,2.11-1.23,3.01-2.04
		c-0.55-0.45-1.03-0.91-1.57-1.27c-0.57-0.38-1.1-0.8-1.55-1.33c-0.71-0.82-1.42-1.64-2.14-2.46c-0.12-0.14-0.27-0.26-0.39-0.41
		c-0.75-0.89-1.51-1.77-2.23-2.68c-0.78-0.98-1.53-2-2.28-3c-0.67-0.89-1.34-1.78-1.97-2.7c-0.6-0.88-1.15-1.8-1.73-2.7
		c-0.21-0.33-0.46-0.64-0.66-0.98c-0.07-0.12-0.07-0.29-0.1-0.44c0.15,0.06,0.34,0.07,0.43,0.18c0.59,0.66,1.14,1.35,1.73,2.01
		c0.65,0.73,1.32,1.43,1.97,2.17c0.67,0.76,1.3,1.55,1.97,2.31c0.78,0.88,1.59,1.73,2.39,2.59c0.81,0.87,1.62,1.73,2.43,2.59
		c1.09,1.15,2.18,2.29,3.27,3.44c0.49,0.52,0.93,1.09,1.45,1.59c0.69,0.66,1.42,1.28,2.13,1.92c0.05,0.05,0.08,0.12,0.09,0.13
		c-0.62,0.62-1.19,1.26-1.82,1.83c-0.9,0.81-1.86,1.55-3.06,1.8c-0.82,0.18-1.67,0.23-2.51,0.29c-1.03,0.08-2.07,0.16-3.1,0.15
		c-0.8-0.01-1.59-0.17-2.38-0.27c-0.54-0.07-1.1-0.06-1.61-0.22c-0.8-0.24-1.57-0.57-2.35-0.88c-0.6-0.24-1.18-0.51-1.89-0.83
		c-0.15,0.18-0.37,0.5-0.65,0.73c-0.66,0.52-1.35,0.99-2.03,1.48c-0.68,0.48-1.49,0.59-2.28,0.69c-0.91,0.12-1.83,0.19-2.74,0.29
		c-0.37,0.04-0.74,0.12-1.16,0.19c0.03,0.81-0.06,1.69,0.23,2.55c0.17,0.52,0.2,1.08,0.32,1.63c0.1,0.51,0.24,1.01,0.34,1.52
		c0.09,0.45,0.51,0.44,0.8,0.59c0.56,0.3,0.94,0.73,1.2,1.33c0.27,0.62,0.66,1.18,1.24,1.59c0.82,0.58,1.77,0.81,2.69,1.11
		c0.98,0.32,1.98,0.59,2.97,0.87c0.12,0.03,0.25,0.02,0.47,0.04c-0.26,0.74-0.46,1.45-0.76,2.1c-0.37,0.79-0.97,1.4-1.71,1.86
		c-0.29,0.19-0.57,0.39-0.85,0.6c-0.45,0.34-1.2,0.29-1.65-0.04c-0.73-0.54-1.49-1.05-2.25-1.55c-0.41-0.26-0.79-0.02-1.13,0.4
		c-0.55,0.67-1.19,1.26-1.81,1.88c-0.17,0.17-0.37,0.3-0.57,0.43c-0.79,0.52-1.67,0.19-2.5,0.25c-0.18,0.01-0.4-0.19-0.55-0.34
		c-0.47-0.47-0.9-0.99-1.4-1.42c-0.19-0.16-0.56-0.28-0.77-0.21c-0.77,0.26-1.5,0.61-2.26,0.91c-0.66,0.26-1.35,0.46-2.02,0.68
		c-1.05,0.34-1.7-0.31-2.45-0.7c-0.45-0.23-0.8-0.66-1.2-1.01c-0.08-0.07-0.14-0.17-0.14-0.34c0.12,0.07,0.24,0.16,0.36,0.21
		c0.38,0.15,0.76,0.29,1.14,0.41c0.27,0.08,0.56,0.18,0.83,0.14c0.78-0.11,1.56-0.26,2.33-0.44c1-0.24,2.02-0.47,2.98-0.82
		c0.47-0.17,0.67,0.04,0.95,0.27c0.49,0.41,0.94,0.89,1.48,1.21c0.79,0.45,1.65,0.56,2.51,0.13c1.19-0.6,2.07-1.53,2.78-2.66
		c0.13-0.21,0.38-0.41,0.68-0.21c0.64,0.43,1.27,0.87,1.92,1.29c0.53,0.35,1.02,0.69,1.75,0.44c1.06-0.36,1.78-1.08,2.35-2
		c0.14-0.23,0.31-0.44,0.44-0.67c0.07-0.12,0.09-0.28,0.14-0.43c-0.72-0.11-1.39-0.14-2.01-0.32c-0.9-0.27-1.83-0.56-2.64-1.03
		c-0.94-0.53-1.52-1.43-1.69-2.56c-0.05-0.32-0.79-0.83-1.22-0.89c-0.88-0.11-1.47,0.29-1.86,1.05c-0.27,0.53-0.53,1.06-0.8,1.59
		c-0.07,0.14-0.17,0.26-0.3,0.46c-0.25-0.3-0.45-0.55-0.66-0.79c-0.43-0.47-0.8-1.02-1.52-1.07c-0.35-0.02-0.55,0.15-0.68,0.42
		c-0.29,0.62-0.56,1.23-0.94,1.8c-0.39,0.59-0.93,0.75-1.52,0.72c-0.53-0.03-0.87-0.45-1.08-0.94c-0.27-0.62-0.53-1.25-0.82-1.87
		c-0.23-0.49-0.99-0.57-1.48-0.15c-0.56,0.48-1.16,0.92-1.68,1.44c-0.5,0.5-0.92,1.08-1.37,1.63c-0.9,1.08-1.98,1.93-3.25,2.48
		c-0.45,0.19-1,0.15-1.5,0.19c-1.04,0.07-2.03-0.17-3-0.52c-0.2-0.07-0.42-0.09-0.63-0.13c0-0.04-0.01-0.08-0.01-0.12
		c0.12-0.05,0.24-0.12,0.36-0.13c1.82-0.1,3.39-0.84,4.85-1.88c0.84-0.6,1.67-1.2,2.49-1.83c0.81-0.62,1.58-1.3,2.41-1.88
		c0.51-0.35,1.09-0.64,1.68-0.81c0.24-0.07,0.7,0.15,0.85,0.38c0.37,0.57,0.63,1.22,0.91,1.85c0.16,0.36,0.27,0.75,0.44,1.11
		c0.16,0.34,0.7,0.4,0.94,0.07c0.37-0.53,0.67-1.11,1.02-1.65c0.23-0.34,0.48-0.67,0.76-0.96c0.38-0.4,0.83-0.27,1.27-0.07
		c0.73,0.33,1.33,0.83,1.89,1.58c0.22-0.68,0.57-1.26,0.58-1.86c0.03-1.85-0.08-3.69-0.09-5.54c0-0.5,0.15-1,0.24-1.51
		c-0.02-0.02-0.04-0.05-0.06-0.05c-0.71-0.1-1.42-0.18-2.12-0.31c-0.41-0.07-0.83-0.17-1.21-0.34c-0.33-0.15-0.39-0.04-0.38,0.24
		c0.02,0.45,0.08,0.89,0.09,1.34c0,0.35-0.08,0.71-0.08,1.06c0.01,1.48-0.39,2.86-0.96,4.21c-0.36,0.85-0.72,1.69-1.09,2.53
		c-0.03,0.06-0.09,0.11-0.17,0.19c-0.23-0.46-0.48-0.89-0.65-1.36c-0.07-0.19,0.01-0.45,0.09-0.66c0.32-0.86,0.71-1.7,0.98-2.57
		c0.27-0.88,0.58-1.76,0.5-2.73c-0.08-0.86-0.04-1.73,0-2.59c0.01-0.35-0.15-0.48-0.4-0.62c-0.6-0.32-1.22-0.6-1.8-0.97
		c-0.62-0.39-1.25-0.81-1.77-1.32c-0.37-0.37-0.67-0.28-1.05-0.15c-0.96,0.35-1.9,0.72-2.87,1.02c-0.77,0.24-1.57,0.42-2.36,0.59
		c-0.39,0.08-0.79,0.12-1.18,0.14c-1.58,0.06-3.16,0.14-4.74,0.14c-0.9,0-1.8-0.11-2.68-0.28c-0.89-0.16-1.78-0.4-2.65-0.69
		c-0.73-0.25-1.44-0.57-2.13-0.94c-0.66-0.35-1.28-0.79-1.91-1.2c-0.14-0.09-0.24-0.25-0.35-0.38c-0.28-0.32-0.57-0.63-0.83-0.96
		c-0.19-0.25-0.26-0.45,0.1-0.69c1.09-0.72,2.15-1.48,3.21-2.26c0.83-0.61,1.63-1.24,2.43-1.89c0.65-0.53,1.27-1.09,1.88-1.66
		c0.92-0.86,1.81-1.74,2.72-2.61c0.43-0.42,0.88-0.83,1.28-1.28c0.39-0.44,0.74-0.93,1.1-1.4c0.22-0.29,0.43-0.58,0.72-0.96
		c-0.51,0-0.89,0-1.27,0c-0.96,0-1.93-0.01-2.89,0c-1.08,0.01-2.13-0.17-3.15-0.51c-0.9-0.3-1.77-0.71-2.43-1.44
		c-0.67-0.75-1.01-1.65-1.16-2.64c-0.05-0.31,0.07-0.44,0.4-0.52c0.87-0.22,1.76-0.45,2.59-0.79c1.06-0.43,2.1-0.93,3.09-1.5
		c0.99-0.56,1.97-1.17,2.86-1.89c1.09-0.88,2.09-1.88,3.09-2.87c0.7-0.69,1.4-1.39,1.99-2.17c1.03-1.37,2.23-2.62,3.01-4.17
		c0.43-0.86,0.75-1.77,1.12-2.66c0.26-0.62,0.52-1.24,0.8-1.9c-0.45,0.05-0.83,0.12-1.21,0.12c-0.96,0.01-1.93,0.03-2.89-0.02
		c-0.62-0.04-1.25-0.17-1.86-0.31c-0.38-0.09-0.78-0.22-1.11-0.43c-0.68-0.43-1.35-0.89-1.95-1.42c-0.39-0.35-0.66-0.84-1.03-1.35
		c0.49-0.17,0.94-0.31,1.38-0.47c0.81-0.29,1.67-0.5,2.43-0.91c1.01-0.55,2-1.19,2.9-1.93c0.88-0.73,1.7-1.57,2.42-2.47
		c1.21-1.5,2.23-3.15,3.15-4.86c0.58-1.09,1.26-2.13,1.79-3.25c0.36-0.75,0.52-1.6,0.78-2.4c0.19-0.58,0.4-1.15,0.58-1.73
		c0.19-0.63,0.34-1.28,0.52-1.91c0.22-0.75,0.47-1.48,0.7-2.23c0.02-0.05,0-0.11,0-0.29c-1.18,1.28-2.16,2.66-3.77,3.3
		c0.39-1.39,0.77-2.75,1.14-4.07c-1.4-0.74-2.76-1.45-4.11-2.17c0.01-0.06,0.02-0.11,0.03-0.17c0.11-0.04,0.21-0.1,0.32-0.13
		c0.78-0.19,1.57-0.37,2.35-0.57c0.35-0.09,0.71-0.15,1.03-0.31c0.26-0.14,0.51-0.37,0.68-0.61c0.52-0.75,1.01-1.53,1.51-2.3
		c0.03,0.01,0.07,0.03,0.1,0.04c0,0.16,0.05,0.34-0.01,0.48c-0.28,0.67-0.59,1.32-0.9,1.98c-0.09,0.19-0.19,0.38-0.3,0.57
		c-0.24,0.41-0.69,0.4-1.07,0.52c-0.6,0.18-1.2,0.31-1.85,0.56c0.94,0.41,1.89,0.82,2.91,1.26c-0.05,0.83-0.11,1.71-0.16,2.59
		c0,0.04,0.02,0.08,0.03,0.11c-0.02-0.01-0.04-0.01-0.07-0.02c0,0.02,0,0.04,0.01,0.06c0.02-0.02,0.04-0.04,0.06-0.05
		c0.49-0.47,0.99-0.94,1.48-1.42c0.24-0.23,0.45-0.48,0.67-0.72c1.85,1.65,3.59,2.38,4.26,2.59c-0.07-0.16-0.11-0.3-0.2-0.41
		c-0.34-0.42-0.69-0.84-1.04-1.25c-0.34-0.39-0.69-0.76-1.02-1.15c-0.15-0.17-0.22-0.29,0.11-0.42c0.62-0.24,1.2-0.59,1.79-0.9
		c0.06-0.03,0.1-0.13,0.21-0.27c-0.31-0.07-0.54-0.13-0.78-0.17c-0.67-0.1-1.34-0.18-2-0.3c-0.14-0.02-0.3-0.15-0.37-0.27
		c-0.37-0.68-0.74-1.37-1.06-2.07c-0.1-0.21-0.06-0.49-0.07-0.66c0.41,0.64,0.9,1.3,1.27,2.03c0.46,0.91,1.32,0.73,2.05,0.91
		c0.72,0.18,1.46,0.27,2.21,0.41c-0.8,0.85-1.72,1.36-2.96,1.56c0.97,1.26,1.9,2.46,2.9,3.74c-1.93-0.24-3.69-0.56-4.96-2.19
		c0.01,0.11-0.01,0.24,0.04,0.34c0.67,1.57,1.32,3.16,2.34,4.54c0.64,0.88,1.24,1.79,1.91,2.65c0.57,0.74,1.19,1.46,1.82,2.15
		c0.82,0.89,1.64,1.79,2.53,2.6c0.8,0.73,1.69,1.35,2.55,2.02c0.55,0.42,1.08,0.87,1.66,1.24c0.98,0.63,1.97,1.24,3,1.8
		c0.59,0.32,1.25,0.51,1.9,0.77c-0.43,0.9-1.05,1.58-1.73,2.21c-0.8,0.74-1.76,1.13-2.77,1.47c-1.62,0.55-3.28,0.38-4.93,0.42
		c-0.12,0-0.25,0.02-0.47,0.03c0.27,0.52,0.49,0.99,0.77,1.42c0.66,1.03,1.33,2.05,2.02,3.06c1.09,1.58,2.43,2.93,3.77,4.28
		c0.49,0.49,0.94,1.03,1.46,1.48c0.65,0.54,1.35,1,2.04,1.48c0.67,0.47,1.35,0.94,2.03,1.39c0.57,0.37,1.14,0.73,1.73,1.07
		c0.77,0.44,1.53,0.88,2.33,1.26c0.86,0.41,1.74,0.75,2.63,1.1c0.34,0.13,0.71,0.18,1.05,0.3c0.1,0.04,0.24,0.24,0.21,0.32
		c-0.23,0.71-0.42,1.45-0.76,2.11c-0.42,0.8-1.12,1.36-1.85,1.87c-0.72,0.5-1.51,0.8-2.34,0.99c-0.15,0.04-0.31,0.06-0.46,0.07
		c-0.94,0.06-1.89,0.18-2.82,0.13c-0.91-0.04-1.8-0.27-2.71-0.39c-0.57-0.08-1.11-0.23-1.58-0.64c0.74,0,1.48,0.04,2.21-0.01
		c0.92-0.07,1.83-0.17,2.75-0.35c1.32-0.26,2.46-0.9,3.62-1.5c0.47-0.24,0.84-0.67,1.24-0.99c-0.61-0.25-1.14-0.51-1.69-0.67
		c-1.36-0.4-2.55-1.16-3.8-1.8c-0.7-0.36-1.32-0.87-1.97-1.32c-0.62-0.43-1.27-0.82-1.85-1.31c-0.85-0.71-1.7-1.44-2.45-2.26
		c-0.9-0.98-1.72-2.03-2.51-3.09c-0.61-0.82-1.14-1.71-1.69-2.57c-0.61-0.96-1.21-1.93-1.8-2.9c-0.53-0.87-1.06-1.75-1.57-2.63
		c-0.17-0.29-0.3-0.61-0.46-0.95c0.13-0.01,0.25-0.03,0.37-0.03c0.79,0,1.58-0.01,2.37,0c0.89,0.01,1.75-0.14,2.59-0.41
		c0.81-0.26,1.62-0.51,2.41-0.82c0.29-0.11,0.56-0.33,0.77-0.57c0.31-0.35,0.13-0.76-0.34-1.07c-0.58-0.37-1.13-0.79-1.68-1.19
		c-0.55-0.4-1.09-0.82-1.63-1.23c-0.11-0.09-0.19-0.21-0.3-0.31c-0.9-0.86-1.83-1.69-2.7-2.59c-0.7-0.72-1.32-1.51-1.96-2.29
		c-0.57-0.69-1.15-1.37-1.66-2.1c-0.63-0.9-1.2-1.84-1.78-2.78c-0.42-0.69-0.81-1.4-1.2-2.11c-0.16-0.29-0.3-0.61-0.5-1.02
		c-0.07,0.18-0.14,0.3-0.16,0.44c-0.15,0.86-0.29,1.72-0.44,2.57c-0.12,0.71-0.18,1.45-0.4,2.13c-0.29,0.9-0.7,1.76-1.09,2.62
		c-0.29,0.64-0.6,1.26-0.96,1.87c-0.35,0.6-0.77,1.17-1.15,1.75c-0.18,0.27-0.33,0.56-0.5,0.84c0.47,0.22,0.77,0.1,3.24-1.31
		c0.25,0.47,0.47,0.98,0.77,1.41c0.77,1.09,1.72,1.97,3.13,1.93c0.66-0.02,1.33-0.23,1.96-0.46c0.59-0.21,1.13-0.54,1.71-0.83
		c0.81,1.3,2.14,1.87,3.62,2.15c0,0.29,0,0.52,0,0.74c-1.65,0.35-2.55-0.65-3.42-2.02c-0.45,0.28-0.89,0.59-1.36,0.83
		c-0.62,0.31-1.26,0.6-1.99,0.52c-0.49-0.06-1-0.03-1.49-0.11c-1.03-0.16-1.74-0.79-2.26-1.69c-0.25-0.45-0.53-0.88-0.77-1.28
		c-0.55,0.26-1.03,0.48-1.5,0.71c-0.09,0.04-0.17,0.12-0.26,0.17c0.07,0.08,0.14,0.16,0.21,0.24c-0.55,0.06-1.1,0.1-1.65,0.17
		c-0.12,0.02-0.24,0.1-0.34,0.18c-0.56,0.47-0.98,1.01-1.08,1.8c-0.17,1.25,0.57,2.47,1.77,2.78
		C48.85,32.64,49.15,32.68,49.44,32.73z"/>
	<path class="st3" d="M69.27,66.71c-0.03,0.08-0.03,0.19-0.08,0.22c-0.78,0.42-1.54,0.86-2.34,1.22c-0.37,0.17-0.81,0.21-1.22,0.23
		c-0.63,0.04-1.27,0.03-1.9,0c-1.25-0.05-2.39-0.45-3.41-1.18c-0.03-0.02-0.07-0.04-0.09-0.05c-0.31,0.49-0.62,0.96-0.92,1.44
		c-0.56,0.9-1.36,1.52-2.32,1.87c-1.16,0.42-2.33,0.43-3.49-0.08c-0.69-0.31-1.29-0.72-1.82-1.26c-0.23-0.24-0.44-0.09-0.64,0.03
		c-0.76,0.44-1.5,0.93-2.29,1.3c-0.78,0.36-1.61,0.63-2.43,0.89c-0.72,0.22-1.45,0.38-2.18,0.54c-0.57,0.12-1.15,0.25-1.73,0.26
		c-0.83,0.01-1.66-0.12-2.44-0.42c-0.74-0.28-1.48-0.58-2.18-0.94c-0.76-0.39-1.48-0.87-2.37-1.41c0.42-0.36,0.75-0.64,1.01-0.86
		c0.96,0.57,1.87,1.15,2.81,1.66c0.41,0.22,0.89,0.32,1.32,0.49c1.3,0.53,2.66,0.28,3.99,0.28c0.71,0,1.44-0.34,2.14-0.59
		c0.91-0.33,1.8-0.71,2.68-1.09c0.56-0.24,1.11-0.52,1.64-0.82c0.23-0.13,0.41-0.35,0.6-0.53c0.4,0.34,0.76,0.67,1.16,0.96
		c0.9,0.66,1.85,0.98,3.01,0.72c1.29-0.29,2.41-0.86,3.31-1.8c0.5-0.53,0.83-1.22,1.24-1.84c0.06-0.09,0.11-0.19,0.17-0.28
		c0.55,0.35,1.05,0.73,1.6,1.02c0.78,0.42,1.64,0.63,2.53,0.61c0.91-0.02,1.83-0.04,2.74-0.11c0.37-0.03,0.72-0.2,1.08-0.3
		C68.7,66.84,68.99,66.79,69.27,66.71L69.27,66.71z"/>
	<path class="st4" d="M49.44,32.73c-0.29-0.06-0.58-0.1-0.87-0.17c-1.2-0.31-1.94-1.54-1.77-2.78c0.1-0.79,0.53-1.32,1.08-1.8
		c0.1-0.08,0.22-0.16,0.34-0.18c0.55-0.07,1.1-0.12,1.65-0.17c1,0.38,1.79,1.47,1.8,2.5c0.01,1.09-0.62,1.98-1.71,2.42
		C49.79,32.62,49.61,32.67,49.44,32.73z"/>
	<path class="st5" d="M42.99,59.85c-0.48,0.04-0.97,0.17-1.43,0.11c-1.31-0.18-2.15-1.33-2.04-2.68c0.09-1.23,1.14-2.21,2.39-2.24
		c0.1,0,0.2-0.01,0.3-0.01c1.15,0.13,1.98,0.98,2.18,2.24C44.54,58.2,43.86,59.45,42.99,59.85z"/>
	<path class="st4" d="M56.15,47.41c0.71,0,1.8,0.9,2.09,1.73c0.44,1.25-0.04,2.47-1.25,3.17c-0.07,0.03-0.15,0.06-0.22,0.09
		c0,0,0.01,0,0.01,0c-0.13,0.01-0.26,0.02-0.38,0.04c-1.13,0.21-2.25-0.4-2.69-1.48c-0.45-1.1-0.1-2.38,0.9-2.99
		C55.07,47.69,55.63,47.59,56.15,47.41z"/>
	<path class="st5" d="M54.17,31.75c1.22,0.03,2.17,0.76,2.46,1.88c0.28,1.09-0.22,2.28-1.23,2.88c-0.04,0.03-0.07,0.06-0.11,0.1
		c0,0,0.01-0.01,0.01-0.01c-0.14,0.03-0.28,0.05-0.42,0.08c-1.8,0.39-3.29-0.97-3.04-2.77C52,32.74,52.8,32.01,54.17,31.75z"/>
	<path class="st5" d="M63.27,44.94c0.71,0.3,1.29,0.75,1.59,1.5c0.44,1.13,0.06,2.36-0.94,3.03c-0.15,0.1-0.32,0.19-0.48,0.29
		c-0.14,0.02-0.28,0.03-0.42,0.06c-1.03,0.2-2.07-0.31-2.57-1.25c-0.5-0.95-0.34-2.15,0.39-2.91
		C61.51,44.94,62.34,44.78,63.27,44.94z"/>
	<path class="st5" d="M54.67,61.46c1.14,0.11,2.12,1.2,2.18,2.36c0.04,0.69-0.23,1.27-0.55,1.85c-0.02,0.03-0.04,0.06-0.06,0.09
		c0,0,0.01-0.01,0.01-0.01c-0.03,0.02-0.06,0.04-0.08,0.06l-0.01,0.03c0,0-0.03,0-0.03,0c-0.44,0.2-0.86,0.47-1.32,0.57
		c-1.24,0.26-2.44-0.56-2.76-1.8c-0.32-1.27,0.36-2.57,1.58-2.97C53.96,61.53,54.32,61.52,54.67,61.46z"/>
	<path class="st4" d="M48.51,59.6c0.98,0.12,1.81,0.86,2.08,1.84c0.25,0.93-0.09,2.01-0.85,2.59c-0.25,0.19-0.53,0.32-0.8,0.48
		c-0.33,0.01-0.66,0.04-0.99,0.01c-1.22-0.12-1.94-0.92-2.14-1.97C45.49,60.88,46.82,59.48,48.51,59.6z"/>
	<path class="st4" d="M71.52,68.73c1,0.05,1.99,1.14,2.08,2.06c0.12,1.29-0.4,2.19-1.52,2.77c-0.37,0.03-0.74,0.12-1.11,0.09
		c-1.58-0.14-2.7-1.67-2.08-3.37C69.25,69.31,70.12,68.6,71.52,68.73z"/>
	<path class="st3" d="M54.17,31.75c-1.37,0.25-2.17,0.99-2.33,2.15c-0.25,1.8,1.24,3.16,3.04,2.77c0.14-0.03,0.28-0.05,0.42-0.08
		c-0.48,0.44-1.09,0.7-1.69,0.67c-0.57-0.02-1.21-0.12-1.68-0.56c-0.45-0.42-0.83-0.87-1.02-1.5c-0.18-0.62-0.18-1.26,0.06-1.77
		c0.37-0.77,0.88-1.52,1.85-1.68C53.28,31.69,53.73,31.5,54.17,31.75z"/>
	<path class="st3" d="M48.51,59.6c-1.69-0.12-3.02,1.28-2.7,2.96c0.2,1.04,0.91,1.85,2.14,1.97c0.33,0.03,0.66-0.01,0.99-0.01
		c-0.4,0.46-1.17,0.61-1.75,0.39c-0.35-0.14-0.76-0.14-1.07-0.32c-0.59-0.35-1-0.84-1.21-1.58c-0.28-0.97-0.1-1.82,0.47-2.55
		c0.32-0.41,0.83-0.69,1.31-0.93C47.28,59.24,47.91,59.31,48.51,59.6z"/>
	<path class="st3" d="M71.52,68.73c-1.4-0.14-2.27,0.58-2.63,1.55c-0.62,1.7,0.5,3.23,2.08,3.37c0.36,0.03,0.74-0.06,1.11-0.09
		c-0.92,0.72-1.87,0.63-2.86,0.16c-0.79-0.38-1.16-1.03-1.34-1.86c-0.25-1.14,0.11-2.09,0.97-2.8c0.59-0.49,1.35-0.65,2.12-0.58
		C71.16,68.5,71.34,68.65,71.52,68.73z"/>
	<path class="st3" d="M63.27,44.94c-0.93-0.16-1.76,0-2.44,0.71c-0.73,0.76-0.89,1.97-0.39,2.91c0.5,0.94,1.54,1.45,2.57,1.25
		c0.14-0.03,0.28-0.04,0.42-0.06c-0.38,0.15-0.76,0.38-1.15,0.42c-1.35,0.14-2.4-0.58-2.89-1.81c-0.47-1.18,0.13-2.8,1.11-3.36
		c0.71-0.41,1.44-0.56,2.22-0.36C62.92,44.7,63.09,44.84,63.27,44.94z"/>
	<path class="st3" d="M56.15,47.41c-0.52,0.18-1.09,0.28-1.55,0.56c-1,0.61-1.35,1.89-0.9,2.99c0.44,1.08,1.56,1.7,2.69,1.48
		c0.13-0.02,0.26-0.03,0.38-0.04c-0.43,0.43-0.95,0.43-1.49,0.33c-0.23-0.04-0.5,0.01-0.71-0.08c-1.49-0.72-2.21-2.01-1.67-3.7
		c0.28-0.87,0.93-1.48,1.88-1.65c0.26-0.05,0.52-0.14,0.78-0.13C55.76,47.19,55.96,47.33,56.15,47.41z"/>
	<path class="st3" d="M54.67,61.46c-0.35,0.06-0.71,0.07-1.05,0.18c-1.22,0.4-1.9,1.7-1.58,2.97c0.32,1.24,1.53,2.06,2.76,1.8
		c0.46-0.1,0.88-0.38,1.32-0.57c-0.35,0.57-0.91,0.85-1.51,1c-0.7,0.17-1.43,0.06-2.04-0.3c-0.62-0.36-1-0.96-1.2-1.7
		c-0.27-1.01,0.05-1.87,0.61-2.61c0.28-0.36,0.68-0.76,1.25-0.77c0.33-0.01,0.67-0.09,1-0.11C54.38,61.33,54.53,61.42,54.67,61.46z"
		/>
	<path class="st3" d="M56.76,52.41c0.07-0.03,0.15-0.06,0.22-0.09C56.91,52.35,56.84,52.38,56.76,52.41z"/>
	<path class="st3" d="M55.3,36.6c0.04-0.03,0.07-0.06,0.11-0.1C55.37,36.54,55.33,36.57,55.3,36.6z"/>
	<path class="st3" d="M56.24,65.75c0.02-0.03,0.04-0.06,0.06-0.09C56.29,65.69,56.26,65.72,56.24,65.75z"/>
	<path class="st3" d="M56.17,65.81c0.03-0.02,0.06-0.04,0.08-0.06C56.22,65.77,56.19,65.79,56.17,65.81z"/>
	<path class="st3" d="M69.28,66.72c0.01-0.01,0.01-0.02,0.02-0.03C69.29,66.69,69.28,66.7,69.28,66.72
		C69.27,66.71,69.28,66.72,69.28,66.72z"/>
	<path class="st2" d="M50.38,12.71c-0.02,0.02-0.04,0.04-0.06,0.05c0-0.02,0-0.04-0.01-0.06C50.34,12.71,50.37,12.71,50.38,12.71
		C50.39,12.72,50.38,12.71,50.38,12.71z"/>
</g>
</svg>
