<?xml version="1.0" encoding="utf-8"?>
<!-- Generator: Adobe Illustrator 23.0.1, SVG Export Plug-In . SVG Version: 6.00 Build 0)  -->
<svg version="1.1" id="Слой_1" xmlns="http://www.w3.org/2000/svg" xmlns:xlink="http://www.w3.org/1999/xlink" x="0px" y="0px" width="117" height="104"
	 viewBox="0 0 117 104" style="enable-background:new 0 0 117 104;" xml:space="preserve">
<style type="text/css">
	.st0{fill:#F5F5F5;}
	.st1{fill:#5C5C5C;}
	.st2{fill:#ECC1BF;}
	.st3{fill:#5D5D5D;}
	.st4{fill:#F4F4F4;}
	.st5{fill:#606060;}
	.st6{fill:#B7BBBD;}
</style>
<g>
	<path class="st0" d="M50.2,2C63.97,2.22,76,7.22,85.76,17.41c9.59,10.01,14.37,22.2,14.21,36.17c-0.16,14.1-5.28,26.24-15.22,36.07
		c-9.8,9.68-21.69,14.51-35.31,14.35c-13.88-0.17-25.83-5.44-35.46-15.67c-9.42-10-14.11-22.11-13.92-35.95
		c0.18-13.93,5.21-25.98,14.99-35.75C24.72,6.95,36.47,2.2,50.2,2z M67.81,29.67c0.01,0.01,0.02,0.02,0.02,0.02
		C67.82,29.68,67.81,29.68,67.81,29.67c-0.02-0.02-0.03-0.04-0.05-0.06c-0.01,0.02-0.02,0.03-0.03,0.05
		C67.76,29.66,67.78,29.66,67.81,29.67z M44.94,57.45c0.02-0.17,0.03-0.35,0.05-0.52c0.29-1.96,0.46-3.93,0.02-5.89
		c-0.52-2.33-2.05-4.07-4.71-4.54c1.9,1.64,2.35,2.38,2.72,4.95c0.24,1.71,0.06,3.42-0.22,5.11c-0.5,2.96-1.34,5.83-2.18,8.7
		c-1,3.43-1.99,6.85-2.9,10.31c-0.48,1.82-0.74,3.7-0.56,5.6c0.04,0.37,0.09,0.74,0.15,1.14c-1.18-0.01-2.23,0.29-3.29,0.96
		c1.82-0.14,3.32,0.49,4.76,1.35c1.98,1.18,3.69,2.73,5.46,4.19c2.01,1.66,4,3.35,6.1,4.88c2.93,2.14,6.16,3.55,9.86,3.47
		c0.85-0.02,1.7-0.05,2.55-0.07c0.22-0.01,0.45-0.01,0.67-0.01c2.23-0.91,4.28-2.1,6.1-3.72c1.58-1.41,2.9-3.01,3.71-4.99
		c1.25-3.04,1.11-6.11,0.04-9.16c-1.18-3.36-3.2-6.13-5.74-8.54c-2.04-1.93-4.3-3.5-6.93-4.49c-0.1-0.04-0.18-0.1-0.31-0.17
		c1.44-0.97,2.27-2.34,2.74-3.93c0.67-2.23,0.44-4.27-1.43-5.86c-0.45-0.38-0.91-0.79-1.42-1.06c-1.6-0.83-3.21-1.62-4.84-2.37
		c-1.82-0.83-3.65-1.63-5.26-2.87c-1.21-0.93-2.22-1.99-2.41-3.63c-0.27-2.48,0.1-4.84,1.22-7.07c0.14-0.28,0.35-0.52,0.53-0.79
		c0.16,0.1,0.27,0.17,0.37,0.24c1.41,0.92,2.95,1.32,4.6,1c3.45-0.66,5.73-2.83,7.19-6c0.4-0.88,0.62-1.81,0.62-2.8
		c0.25,0.03,0.47,0.06,0.76,0.09c-0.09-0.14-0.12-0.21-0.17-0.26c-0.32-0.33-0.27-0.6,0.02-0.97c0.48-0.62,0.91-1.28,1.27-1.98
		c1.02-1.96,1.45-4.05,1.18-6.29c0.38,0.34,0.61,0.78,0.64,1.27c0.04,0.72-0.02,1.45-0.03,2.18c-0.02,0.83-0.12,1.67-0.02,2.49
		c0.13,1.05,0.83,1.74,1.78,2.15c-0.08-0.17-0.18-0.32-0.29-0.47c-0.75-0.94-0.91-1.96-0.43-3.07c0.2-0.48,0.43-0.96,0.65-1.43
		c0.74-1.64,0.54-2.87-0.68-4.18c-0.26-0.28-0.53-0.57-0.81-0.87c1.15-0.89,1.69-2.12,1.61-3.55c-0.18-3.5-1.74-6.23-4.62-8.13
		c-0.98-0.65-2.09-0.89-3.26-0.57c-0.3,0.08-0.46,0.01-0.67-0.2c-2.46-2.54-5.48-3.57-8.92-3.29c-3.02,0.24-5.76,1.37-8.25,3.12
		c-4.48,3.15-7.42,7.46-9.04,12.73c-1.15,3.71-1.39,7.52-1.02,11.38c0.02,0.21-0.06,0.49-0.2,0.65c-1.24,1.45-2.18,3.08-2.94,4.83
		c-1.52,3.48-2.28,7.14-2.47,10.93c-0.16,3.29,0.18,6.52,1.2,9.66c0.15,0.46,0.33,0.91,0.49,1.37c0.06-0.29,0.04-0.55-0.01-0.81
		c-0.75-3.92-0.85-7.84-0.15-11.78c0.48-2.65,1.29-5.18,2.69-7.49c0.6-0.98,1.28-1.9,2.14-2.65c0.6,1.87,1.19,3.71,1.79,5.55
		c0-1.35-0.11-2.66-0.15-3.98c-0.05-2.23,0.07-4.45,0.38-6.66c0.71-5.01,2.27-9.69,5.08-13.89c2-2.98,4.45-5.48,7.66-7.1
		c2.69-1.36,5.49-1.84,8.43-0.92c0.4,0.12,0.78,0.3,1.17,0.45c0,0.04,0,0.08,0,0.12c-3.83,1.26-7.26,3.1-9.4,6.77
		c0.15-0.05,0.28-0.14,0.39-0.24c2.86-2.82,6.32-4.44,10.15-5.36c1.19-0.28,2.21-0.05,3.16,0.66c1.86,1.39,2.92,3.27,3.41,5.56
		c0.28,1.29-0.13,2.22-1.13,2.96c-0.15,0.11-0.29,0.24-0.44,0.36c-1.48,1.13-3.15,1.87-4.89,2.44c-2.94,0.97-5.91,1.87-8.86,2.82
		c-2.63,0.85-5.21,1.83-7.56,3.32c-1.98,1.26-3.66,2.83-4.68,5.02c-0.29,0.63-0.5,1.31-0.74,1.96c0.03,0.02,0.07,0.04,0.1,0.07
		c2-2.94,5.15-3.95,8.23-5.15c-0.42,1.16-0.84,2.3-1.4,3.36c-2.38,4.49-5.87,7.87-10.2,10.36c-1.69,0.97-2.96,2.28-3.74,4.1
		c-0.88,2.06-1.05,4.24-1.01,6.45c0.03,1.61,0.19,3.21,0.22,4.82c0.02,0.81,0.01,1.66-0.22,2.42c-1.19,4-2.06,8.06-2.41,12.24
		c-0.22,2.65-0.23,5.29,0.29,7.91c0.37,1.89,1,3.67,2.31,5.12c0.26,0.29,0.59,0.52,0.83,0.83c1.92,2.43,4.09,4.6,6.55,6.45
		c6.08,4.59,12.94,6.94,20.46,7.33c1.59,0.08,3.18-0.03,4.77-0.05c1.38-0.02,2.68-0.4,3.94-0.95c1.8-0.79,2.98-2.23,3.97-3.89
		c1.2-2.01,2.41-4.02,3.61-6.03c0.07-0.11,0.12-0.23,0.17-0.34c-0.03-0.02-0.07-0.05-0.1-0.07c-0.6,0.58-1.22,1.14-1.78,1.76
		c-1.24,1.36-2.45,2.75-3.68,4.13c-0.86,0.96-1.77,1.84-2.99,2.3c-1.26,0.48-2.59,0.49-3.9,0.52c-2.08,0.04-4.15-0.1-6.22-0.39
		c-4.32-0.61-8.4-1.95-12.22-4.1c-3.68-2.07-6.87-4.77-9.66-7.98c-1.24-1.42-2.21-2.98-2.77-4.8c-0.86-2.79-0.87-5.64-0.4-8.47
		c0.46-2.78,1.06-5.54,1.67-8.29c0.53-2.4,1.13-4.76,0.86-7.27c-0.27-2.55-0.37-5.11-0.09-7.67c0.18-1.65,0.53-3.26,1.34-4.73
		c0.33-0.6,0.78-1.02,1.39-1.36c1.82-1.02,3.66-2.02,5.38-3.2c2.84-1.95,5.24-4.37,6.74-7.6c0.03-0.06,0.11-0.1,0.2-0.19
		c0.1,1.15,0.39,2.19,0.97,3.12c0.19,0.3,0.18,0.54,0.07,0.85c-0.6,1.7-1.08,3.42-1.22,5.23c-0.12,1.55,0.09,3.04,0.77,4.44
		c0.84,1.73,2.17,3.05,3.56,4.31c0.64,0.58,1.33,1.11,2,1.66c-0.43,0.08-0.9,0.08-1.29,0.27c-1.2,0.59-2.43,1.17-3.54,1.92
		c-0.96,0.64-1.78,1.49-2.67,2.24C45.2,57.34,45.06,57.39,44.94,57.45z"/>
	<path class="st1" d="M52.8,52.82c-0.67-0.55-1.36-1.07-2-1.66c-1.39-1.26-2.71-2.58-3.56-4.31c-0.68-1.4-0.89-2.89-0.77-4.44
		c0.14-1.81,0.63-3.53,1.22-5.23c0.11-0.31,0.11-0.55-0.07-0.85c-0.57-0.93-0.86-1.96-0.97-3.12c-0.09,0.09-0.17,0.13-0.2,0.19
		c-1.5,3.22-3.89,5.64-6.74,7.6c-1.72,1.18-3.56,2.18-5.38,3.2c-0.61,0.34-1.06,0.76-1.39,1.36c-0.81,1.47-1.16,3.08-1.34,4.73
		c-0.28,2.56-0.18,5.12,0.09,7.67c0.26,2.51-0.34,4.87-0.86,7.27c-0.6,2.75-1.21,5.51-1.67,8.29c-0.46,2.83-0.45,5.68,0.4,8.47
		c0.56,1.82,1.53,3.39,2.77,4.8c2.79,3.2,5.97,5.9,9.66,7.98c3.82,2.15,7.9,3.49,12.22,4.1c2.06,0.29,4.14,0.43,6.22,0.39
		c1.31-0.02,2.64-0.04,3.9-0.52c1.22-0.46,2.14-1.34,2.99-2.3c1.23-1.38,2.44-2.77,3.68-4.13c0.56-0.62,1.19-1.17,1.78-1.76
		c0.03,0.02,0.07,0.05,0.1,0.07c-0.06,0.11-0.11,0.23-0.17,0.34c-1.2,2.01-2.42,4.01-3.61,6.03c-0.99,1.66-2.17,3.1-3.97,3.89
		c-1.26,0.55-2.56,0.93-3.94,0.95c-1.59,0.02-3.19,0.13-4.77,0.05c-7.52-0.39-14.38-2.74-20.46-7.33c-2.46-1.86-4.63-4.02-6.55-6.45
		c-0.24-0.3-0.57-0.54-0.83-0.83c-1.3-1.45-1.94-3.23-2.31-5.12c-0.51-2.62-0.51-5.26-0.29-7.91c0.35-4.17,1.22-8.23,2.41-12.24
		c0.23-0.76,0.23-1.61,0.22-2.42c-0.03-1.61-0.19-3.21-0.22-4.82c-0.04-2.21,0.13-4.39,1.01-6.45c0.78-1.81,2.05-3.13,3.74-4.1
		c4.34-2.49,7.82-5.87,10.2-10.36c0.56-1.06,0.98-2.2,1.4-3.36c-3.07,1.2-6.23,2.2-8.23,5.15c-0.03-0.02-0.07-0.04-0.1-0.07
		c0.24-0.65,0.45-1.33,0.74-1.96c1.02-2.19,2.7-3.77,4.68-5.02c2.35-1.5,4.93-2.48,7.56-3.32c2.95-0.95,5.92-1.84,8.86-2.82
		c1.74-0.57,3.41-1.32,4.89-2.44c0.15-0.11,0.29-0.25,0.44-0.36c1-0.74,1.4-1.67,1.13-2.96c-0.49-2.28-1.55-4.17-3.41-5.56
		c-0.95-0.71-1.98-0.94-3.16-0.66c-3.83,0.92-7.29,2.54-10.15,5.36c-0.11,0.11-0.24,0.19-0.39,0.24c2.14-3.67,5.57-5.51,9.4-6.77
		c0-0.04,0-0.08,0-0.12c-0.39-0.15-0.77-0.33-1.17-0.45c-2.93-0.91-5.73-0.44-8.43,0.92c-3.21,1.62-5.66,4.11-7.66,7.1
		c-2.81,4.2-4.37,8.89-5.08,13.89c-0.31,2.21-0.43,4.43-0.38,6.66c0.03,1.32,0.14,2.63,0.15,3.98c-0.59-1.84-1.18-3.68-1.79-5.55
		c-0.86,0.75-1.54,1.67-2.14,2.65c-1.4,2.31-2.21,4.84-2.69,7.49c-0.71,3.93-0.61,7.86,0.15,11.78c0.05,0.26,0.07,0.52,0.01,0.81
		c-0.16-0.46-0.34-0.91-0.49-1.37c-1.02-3.14-1.36-6.37-1.2-9.66c0.19-3.79,0.95-7.45,2.47-10.93c0.76-1.75,1.7-3.38,2.94-4.83
		c0.14-0.16,0.22-0.44,0.2-0.65c-0.37-3.86-0.13-7.67,1.02-11.38c1.63-5.26,4.56-9.58,9.04-12.73c2.49-1.75,5.23-2.88,8.25-3.12
		c3.43-0.28,6.46,0.75,8.92,3.29c0.2,0.21,0.37,0.28,0.67,0.2c1.16-0.31,2.28-0.07,3.26,0.57c2.88,1.9,4.45,4.63,4.62,8.13
		c0.07,1.43-0.46,2.66-1.61,3.55c0.29,0.31,0.55,0.59,0.81,0.87c1.22,1.31,1.42,2.54,0.68,4.18c-0.22,0.48-0.44,0.95-0.65,1.43
		c-0.47,1.11-0.31,2.14,0.43,3.07c0.11,0.14,0.22,0.29,0.29,0.47c-0.95-0.41-1.64-1.09-1.78-2.15c-0.1-0.81,0-1.66,0.02-2.49
		c0.01-0.73,0.07-1.46,0.03-2.18c-0.03-0.49-0.26-0.93-0.64-1.27c0.27,2.24-0.16,4.33-1.18,6.29c-0.36,0.69-0.8,1.36-1.27,1.98
		c-0.29,0.37-0.34,0.64-0.02,0.97c0.05,0.05,0.08,0.12,0.17,0.26c-0.29-0.03-0.5-0.06-0.76-0.09c0,0.99-0.21,1.92-0.62,2.8
		c-1.45,3.17-3.73,5.34-7.19,6c-1.65,0.32-3.19-0.08-4.6-1c-0.11-0.07-0.21-0.14-0.37-0.24c-0.18,0.27-0.39,0.51-0.53,0.79
		c-1.12,2.22-1.5,4.59-1.22,7.07c0.18,1.64,1.2,2.7,2.41,3.63c1.6,1.24,3.44,2.03,5.26,2.87c1.63,0.75,3.25,1.54,4.84,2.37
		c0.52,0.27,0.97,0.68,1.42,1.06c1.87,1.59,2.1,3.63,1.43,5.86c-0.48,1.59-1.3,2.96-2.74,3.93c0.13,0.07,0.22,0.13,0.31,0.17
		c2.62,0.99,4.89,2.56,6.93,4.49c2.54,2.4,4.56,5.18,5.74,8.54c1.07,3.05,1.21,6.12-0.04,9.16c-0.82,1.98-2.14,3.58-3.71,4.99
		c-1.82,1.62-3.87,2.81-6.1,3.72c0.59-0.68,1.21-1.33,1.77-2.03c2.2-2.75,3.58-5.88,3.88-9.44c0.26-3.1-0.34-6.06-1.67-8.85
		c-1.93-4.03-4.91-7.06-8.65-9.35c-0.62-0.38-1.26-0.72-1.91-1.09c0.65-0.78,1.28-1.52,1.88-2.28c0.86-1.11,1.65-2.27,1.9-3.69
		c0.14-0.8,0.13-1.62-0.54-2.24C57.85,56.07,55.29,54.5,52.8,52.82z M64.4,20.75c-0.06-0.02-0.11-0.04-0.17-0.06
		c-0.08,0.1-0.15,0.19-0.23,0.29c-0.39,0.45-0.74,0.94-1.16,1.35c-1.77,1.73-3.9,2.89-6.15,3.78c-2.87,1.14-5.79,2.14-8.69,3.18
		c-0.33,0.12-0.46,0.28-0.51,0.63c-0.09,0.63-0.28,1.25-0.4,1.89c-0.05,0.25-0.07,0.52-0.01,0.77c0.26,1.08,0.71,2.07,1.34,2.98
		c1.61,2.35,4.01,3.11,6.61,2.02c2.17-0.91,3.81-2.47,4.98-4.53c0.44-0.77,0.73-1.59,0.76-2.49c0.01-0.14-0.05-0.31-0.13-0.43
		c-0.24-0.36-0.18-0.56,0.2-0.74c0.22-0.1,0.45-0.25,0.59-0.44c1.38-1.85,2.21-3.95,2.68-6.21C64.23,22.07,64.3,21.41,64.4,20.75z"
		/>
	<path class="st2" d="M52.8,52.82c2.49,1.68,5.05,3.25,7.28,5.3c0.67,0.62,0.68,1.43,0.54,2.24c-0.25,1.43-1.04,2.59-1.9,3.69
		c-0.6,0.77-1.23,1.5-1.88,2.28c0.65,0.37,1.29,0.71,1.91,1.09c3.74,2.29,6.72,5.31,8.65,9.35c1.33,2.79,1.94,5.75,1.67,8.85
		c-0.3,3.56-1.68,6.69-3.88,9.44c-0.56,0.7-1.18,1.36-1.77,2.03c-0.22,0-0.45,0-0.67,0.01c-0.85,0.02-1.7,0.05-2.55,0.07
		c-0.12-0.05-0.23-0.14-0.36-0.15c-1.41-0.22-2.71-0.73-3.95-1.43c-2.35-1.31-4.36-3.08-6.33-4.9c-1.77-1.63-3.51-3.28-5.31-4.88
		c-1.32-1.18-2.74-2.23-4.39-2.89c-0.71-0.29-1.46-0.46-2.25-0.7c0.05-0.41,0.1-0.86,0.17-1.3c0.46-2.57,1.34-5.01,2.18-7.47
		c1.25-3.69,2.53-7.37,3.72-11.08c0.51-1.6,0.83-3.27,1.24-4.91c0.12-0.07,0.26-0.12,0.36-0.2c0.89-0.75,1.71-1.6,2.67-2.24
		c1.12-0.74,2.34-1.32,3.54-1.92C51.9,52.9,52.37,52.91,52.8,52.82z M61.02,82.91c-0.07-0.02-0.11-0.01-0.12-0.03
		c-0.09-0.08-0.16-0.16-0.25-0.24c-0.89-0.79-1.89-1.3-3.11-1.28c-1.94,0.03-2.9,1.42-2.63,3.31c0.21,1.43,1.08,2.43,2.13,3.28
		c1.68,1.35,3.64,2.14,5.65,2.81c0.13,0.04,0.36-0.03,0.47-0.14c1.05-1,1.95-2.14,2.64-3.43c0.82-1.53,1.29-3.16,0.96-4.93
		c-0.25-1.37-1.05-2.48-2.61-2.31c-0.71,0.08-1.3,0.43-1.83,0.89C61.69,81.41,61.26,82.1,61.02,82.91z"/>
	<path class="st3" d="M44.94,57.45c-0.41,1.64-0.73,3.31-1.24,4.91c-1.19,3.71-2.47,7.39-3.72,11.08c-0.83,2.46-1.72,4.9-2.18,7.47
		c-0.08,0.44-0.12,0.89-0.17,1.3c0.78,0.24,1.54,0.41,2.25,0.7c1.65,0.66,3.07,1.72,4.39,2.89c1.79,1.6,3.54,3.25,5.31,4.88
		c1.97,1.82,3.98,3.59,6.33,4.9c1.24,0.69,2.54,1.21,3.95,1.43c0.12,0.02,0.24,0.1,0.36,0.15c-3.71,0.08-6.93-1.33-9.86-3.47
		c-2.1-1.53-4.09-3.22-6.1-4.88c-1.77-1.46-3.49-3.01-5.46-4.19c-1.44-0.86-2.94-1.49-4.76-1.35c1.06-0.67,2.11-0.98,3.29-0.96
		c-0.05-0.4-0.11-0.77-0.15-1.14c-0.18-1.91,0.08-3.78,0.56-5.6c0.91-3.45,1.9-6.88,2.9-10.31c0.84-2.87,1.69-5.74,2.18-8.7
		c0.28-1.69,0.46-3.41,0.22-5.11c-0.36-2.57-0.81-3.31-2.72-4.95c2.66,0.47,4.19,2.21,4.71,4.54c0.44,1.97,0.27,3.93-0.02,5.89
		C44.97,57.1,44.96,57.28,44.94,57.45z"/>
	<path class="st1" d="M67.81,29.67c-0.03,0-0.05-0.01-0.08-0.01c0.01-0.02,0.02-0.03,0.03-0.05C67.78,29.63,67.79,29.65,67.81,29.67
		L67.81,29.67z"/>
	<path class="st1" d="M67.8,29.67c0.01,0.01,0.02,0.01,0.03,0.02C67.82,29.68,67.82,29.67,67.8,29.67
		C67.81,29.67,67.8,29.67,67.8,29.67z"/>
	<path class="st4" d="M64.4,20.75c-0.1,0.66-0.17,1.32-0.31,1.96c-0.47,2.26-1.3,4.36-2.68,6.21c-0.14,0.19-0.37,0.34-0.59,0.44
		c-0.38,0.18-0.45,0.37-0.2,0.74c0.08,0.12,0.14,0.29,0.13,0.43c-0.03,0.9-0.32,1.72-0.76,2.49c-1.17,2.07-2.81,3.62-4.98,4.53
		c-2.6,1.09-5,0.33-6.61-2.02c-0.62-0.91-1.08-1.9-1.34-2.98c-0.06-0.24-0.03-0.52,0.01-0.77c0.12-0.63,0.3-1.25,0.4-1.89
		c0.05-0.35,0.18-0.51,0.51-0.63c2.91-1.04,5.83-2.04,8.69-3.18c2.25-0.89,4.38-2.06,6.15-3.78c0.42-0.41,0.78-0.9,1.16-1.35
		c0.08-0.09,0.15-0.19,0.23-0.29C64.29,20.71,64.35,20.73,64.4,20.75z M54.88,27.57c-0.8,0.39-0.85,0.86-0.14,1.37
		c0.09,0.07,0.19,0.13,0.29,0.18c0.82,0.43,1.7,0.71,2.62,0.79c0.15,0.01,0.3,0,0.43,0c-0.13-0.34-0.24-0.63-0.36-0.93
		C56.67,28.88,55.48,28.91,54.88,27.57z"/>
	<path class="st0" d="M61.02,82.91c0.24-0.81,0.66-1.5,1.3-2.06c0.53-0.46,1.11-0.81,1.83-0.89c1.56-0.18,2.36,0.93,2.61,2.31
		c0.32,1.77-0.14,3.39-0.96,4.93c-0.69,1.29-1.59,2.43-2.64,3.43c-0.11,0.1-0.34,0.18-0.47,0.14c-2.01-0.67-3.97-1.45-5.65-2.81
		c-1.05-0.85-1.92-1.85-2.13-3.28c-0.28-1.9,0.69-3.28,2.63-3.31c1.22-0.02,2.22,0.49,3.11,1.28c0.09,0.08,0.17,0.16,0.25,0.24
		C60.92,82.9,60.95,82.89,61.02,82.91z"/>
	<path class="st5" d="M54.88,27.57c0.59,1.34,1.78,1.31,2.85,1.41c0.12,0.31,0.23,0.59,0.36,0.93c-0.14,0-0.29,0.01-0.43,0
		c-0.93-0.08-1.8-0.35-2.62-0.79c-0.1-0.05-0.2-0.11-0.29-0.18C54.04,28.43,54.09,27.96,54.88,27.57z"/>
	<path class="st6" d="M41.96,103.31c14.19,2.39,27.97-1.58,38.56-9.85c-10.21,7.01-22.96,10.22-36.06,8.01
		C17.16,96.89-1.32,70.59,3.18,42.74c2.16-13.37,9.23-24.66,19.01-32.29C11.11,18.04,3.01,30.08,0.67,44.57
		C-3.82,72.42,14.66,98.72,41.96,103.31z"/>
</g>
</svg>
